<?xml version="1.0" encoding="UTF-8"?>
<svg width="43px" height="26px" viewBox="0 0 43 26" version="1.1" xmlns="http://www.w3.org/2000/svg" xmlns:xlink="http://www.w3.org/1999/xlink">
    <title>أمام</title>
    <g id="Page-1" stroke="none" stroke-width="1" fill="none" fill-rule="evenodd">
        <g id="Arabic_Complete_Flow_Updated_v2-15" transform="translate(-166.000000, -210.000000)" fill="#1C1C1C" fill-rule="nonzero">
            <g id="Group" transform="translate(30.000000, 132.000000)">
                <g id="أمام-2" transform="translate(136.000000, 78.000000)">
                    <path d="M41.316,4.444 L42.174,2.838 L39.842,2.838 C39.6513333,2.60333333 39.556,2.38333333 39.556,2.178 C39.556,2.01666667 39.6073333,1.88466667 39.71,1.782 C39.8273333,1.66466667 40.0033333,1.606 40.238,1.606 C40.6193333,1.606 41.0153333,1.78933333 41.426,2.156 L41.426,2.156 L41.426,0.594 C41.0006667,0.198 40.524,4.08562073e-14 39.996,4.08562073e-14 C39.468,4.08562073e-14 39.028,0.168666667 38.676,0.506 C38.28,0.872666667 38.082,1.32733333 38.082,1.87 C38.082,2.20733333 38.17,2.53 38.346,2.838 L38.346,2.838 L37.62,2.838 L36.762,4.444 L41.316,4.444 Z M41.316,19.008 L41.316,5.698 L37.686,7.634 L37.686,19.008 L41.316,19.008 Z M24.574,19.008 C25.4246667,19.008 26.18,18.8246667 26.84,18.458 C27.5586667,18.8246667 28.4826667,19.008 29.612,19.008 C30.8733333,19.008 31.9,18.5753333 32.692,17.71 C33.6013333,16.742 34.056,15.4293333 34.056,13.772 C34.056,12.3493333 33.6966667,11.1686667 32.978,10.23 C32.142,9.11533333 30.9613333,8.558 29.436,8.558 C28.248,8.558 27.2726667,8.89533333 26.51,9.57 C25.6446667,10.3473333 25.212,11.4253333 25.212,12.804 L25.212,12.804 L25.212,14.52 C25.212,14.9013333 25.146,15.158 25.014,15.29 C24.882,15.422 24.6253333,15.488 24.244,15.488 L24.244,15.488 L22.198,15.488 L22.198,19.008 L24.574,19.008 Z M29.414,15.488 C29.0326667,15.488 28.842,15.334 28.842,15.026 L28.842,15.026 L28.842,12.672 C28.842,12.2026667 29.04,11.968 29.436,11.968 C30.14,11.968 30.492,12.5253333 30.492,13.64 C30.492,14.872 30.1326667,15.488 29.414,15.488 Z M22.638,19.008 L22.638,15.488 L20.592,15.488 C20.2106667,15.488 19.954,15.422 19.822,15.29 C19.69,15.158 19.624,14.9013333 19.624,14.52 L19.624,14.52 L19.624,4.818 L15.994,6.732 L15.994,14.696 C15.994,15.9133333 16.3386667,16.9106667 17.028,17.688 C17.8053333,18.568 18.8833333,19.008 20.262,19.008 L20.262,19.008 L22.638,19.008 Z M0,25.938 L3.63,24.024 L3.63,19.976 C3.63,19.5946667 3.696,19.338 3.828,19.206 C3.96,19.074 4.21666667,19.008 4.598,19.008 L4.598,19.008 L7.854,19.008 C10.758,19.008 12.2246667,17.9006667 12.254,15.686 L12.254,15.686 L12.254,12.804 C12.254,11.6013333 11.9166667,10.626 11.242,9.878 C10.4646667,8.998 9.394,8.558 8.03,8.558 C6.69533333,8.558 5.61733333,8.99066667 4.796,9.856 C3.872,10.824 3.41,12.1293333 3.41,13.772 C3.41,14.4173333 3.48333333,15.004 3.63,15.532 C2.58866667,15.6493333 1.75266667,16.0453333 1.122,16.72 C0.374,17.4973333 0,18.524 0,19.8 L0,19.8 L0,25.938 Z M8.052,15.488 C7.33333333,15.488 6.974,14.872 6.974,13.64 C6.974,12.5253333 7.326,11.968 8.03,11.968 C8.426,11.968 8.624,12.2026667 8.624,12.672 L8.624,12.672 L8.624,15.026 C8.624,15.334 8.43333333,15.488 8.052,15.488 Z" id="أمام"></path>
                </g>
            </g>
        </g>
    </g>
</svg>