<?xml version="1.0" encoding="UTF-8"?>
<svg width="120px" height="120px" viewBox="0 0 120 120" version="1.1" xmlns="http://www.w3.org/2000/svg" xmlns:xlink="http://www.w3.org/1999/xlink">
    <title>8B94F0B1-808B-417E-ADC6-7AC7093FCB34</title>
    <defs>
        <circle id="path-1" cx="60" cy="60" r="60"></circle>
        <linearGradient x1="0%" y1="50.0091458%" x2="100%" y2="50.0091458%" id="linearGradient-3">
            <stop stop-color="#F9E918" offset="0%"></stop>
            <stop stop-color="#C67F15" offset="100%"></stop>
        </linearGradient>
    </defs>
    <g id="All-In-One" stroke="none" stroke-width="1" fill="none" fill-rule="evenodd">
        <g id="Arabic_Complete_Flow_Updated_v2-01" transform="translate(-214.000000, -364.000000)">
            <g id="Oval-Copy" transform="translate(30.000000, 354.000000)">
                <g id="Group-9" transform="translate(184.000000, 10.000000)">
                    <mask id="mask-2" fill="white">
                        <use xlink:href="#path-1"></use>
                    </mask>
                    <use id="Mask" fill="#FFE000" xlink:href="#path-1"></use>
                    <g id="App_Illustrations_315x300-02" mask="url(#mask-2)">
                        <g transform="translate(9.000000, 22.000000)">
                            <polygon id="Path" stroke="none" fill="#FFFFFF" fill-rule="nonzero" points="48.2944426 53.664725 48.2944426 58.9426831 46.8779993 58.9426831 46.8779993 87.9319668 1.56832298 87.9319668 1.56832298 58.9426831 -4.69204422e-15 58.9426831 -4.69204422e-15 53.664725"></polygon>
                            <rect id="Rectangle" stroke="#0C0853" stroke-width="0.5" fill="none" x="17.3340961" y="58.9426831" width="29.5406015" height="28.9925742"></rect>
                            <rect id="Rectangle" stroke="#0C0853" stroke-width="0.5" fill="none" x="1.56502125" y="58.9426831" width="15.7690749" height="28.9925742"></rect>
                            <rect id="Rectangle" stroke="#0C0853" stroke-width="0.5" fill="none" x="-2.34602211e-15" y="53.6680155" width="16.175188" height="5.27466762"></rect>
                            <rect id="Rectangle" stroke="#0C0853" stroke-width="0.5" fill="none" x="16.175188" y="53.6680155" width="32.1159529" height="5.27466762"></rect>
                            <rect id="Rectangle" stroke="none" fill="#0C0853" fill-rule="nonzero" x="30.8745015" y="53.6680155" width="4.22291599" height="5.27466762"></rect>
                            <rect id="Rectangle" stroke="none" fill="#0C0853" fill-rule="nonzero" x="5.358712" y="53.6680155" width="4.22291599" height="5.27466762"></rect>
                            <polygon id="Path" stroke="none" fill="#0C0853" fill-rule="nonzero" points="34.608761 87.9319668 30.385845 87.9319668 30.8745015 58.9426831 35.0974175 58.9426831"></polygon>
                            <polygon id="Path" stroke="none" fill="#0C0853" fill-rule="nonzero" points="5.84736842 87.9319668 10.0702844 87.9319668 9.58162798 58.9426831 5.358712 58.9426831"></polygon>
                            <path d="M25.6016345,53.6680155 C25.6016345,53.6680155 20.7150703,49.3903686 19.0410919,49.4199831 C17.6129523,49.4984602 16.1907224,49.6610755 14.7818568,49.9069768 C14.7818568,49.9069768 15.4422033,49.4265641 21.7617195,53.6680155 L25.6016345,53.6680155 Z" id="Path" stroke="#0C0853" stroke-width="0.5" fill="none"></path>
                            <path d="M19.6585159,49.5351505 C16.4426283,48.5743252 14.8016672,53.6680155 18.1892449,53.6680155 C18.1892449,53.6680155 17.0006211,53.7272445 15.1879699,53.6680155 C11.9984962,53.5594291 11.4504086,50.2162835 14.8016672,49.6996754 C16.2511278,49.4726311 18.2750899,49.3113967 19.6585159,49.5351505 Z" id="Path" stroke="none" fill="#0C0853" fill-rule="nonzero"></path>
                            <path d="M25.6016345,53.6680155 C25.6016345,53.6680155 27.4869238,49.3179777 32.9810069,51.8549513 C32.9810069,51.8549513 29.7552141,51.7924319 28.8109186,53.6680155 L25.6016345,53.6680155 Z" id="Path" stroke="#0C0853" stroke-width="0.5" fill="none"></path>
                            <path d="M29.2962733,50.894126 C31.1551487,50.8710926 32.9909121,51.5522256 35.2030729,52.9112011 C37.4152337,54.2701766 42.5989539,53.6680155 42.5989539,53.6680155 C42.5989539,53.6680155 39.8552141,54.1747521 37.7388035,52.3715595 C35.6223929,50.5683668 32.2050997,50.3446129 29.2962733,50.894126 Z" id="Path" stroke="none" fill="#0C0853" fill-rule="nonzero"></path>
                            <path d="M40.2712324,53.5857531 C41.3416982,53.5654687 42.3613679,53.1270848 43.1107225,52.3649785 L46.8746976,52.3649785 C46.8746976,52.3649785 46.3431187,53.7535684 40.2712324,53.5857531 Z" id="Path" stroke="#0C0853" stroke-width="0.5" fill="none"></path>
                            <path d="M31.8287022,49.0613189 C31.201373,48.969185 29.7882314,50.0484682 29.2962733,50.894126 C29.2962733,50.894126 26.6185682,51.3416337 25.6049363,53.6680155 L24.4295195,52.6808662 C24.4295195,52.6808662 25.3143838,49.3903686 27.8963387,49.1731958 C29.2021992,49.0338481 30.5169916,48.9964419 31.8287022,49.0613189 Z" id="Path" stroke="none" fill="#0C0853" fill-rule="nonzero"></path>
                            <path d="M30.3330173,49.4199831 C31.9574698,48.8474365 33.0371363,49.4199831 33.2286368,50.8283161" id="Path" stroke="#0C0853" stroke-width="0.5" fill="none"></path>
                            <polygon id="Path" stroke="none" fill="#FFFFFF" fill-rule="nonzero" points="101 65.3130864 101 68.8832763 100.042498 68.8832763 100.042498 88.5078039 69.3727035 88.5078039 69.3727035 68.8832763 68.3128473 68.8832763 68.3128473 65.3130864"></polygon>
                            <rect id="Rectangle" stroke="#0C0853" stroke-width="0.5" fill="none" x="80.047205" y="68.8865668" width="19.9952926" height="19.6212371"></rect>
                            <rect id="Rectangle" stroke="#0C0853" stroke-width="0.5" fill="none" x="69.3727035" y="68.8865668" width="10.6745015" height="19.6212371"></rect>
                            <rect id="Rectangle" stroke="#0C0853" stroke-width="0.5" fill="none" x="68.3128473" y="65.3163769" width="10.9485453" height="3.57018987"></rect>
                            <rect id="Rectangle" stroke="#0C0853" stroke-width="0.5" fill="none" x="79.2613926" y="65.3163769" width="21.7386074" height="3.57018987"></rect>
                            <rect id="Rectangle" stroke="none" fill="#0C0853" fill-rule="nonzero" x="89.2095129" y="65.3163769" width="2.85930042" height="3.57018987"></rect>
                            <rect id="Rectangle" stroke="none" fill="#0C0853" fill-rule="nonzero" x="71.9414515" y="65.3163769" width="2.85930042" height="3.57018987"></rect>
                            <polygon id="Path" stroke="none" fill="#0C0853" fill-rule="nonzero" points="91.7386401 88.5078039 88.8793397 88.5078039 89.2095129 68.8832763 92.0688133 68.8832763"></polygon>
                            <polygon id="Path" stroke="none" fill="#0C0853" fill-rule="nonzero" points="72.2716247 88.5078039 75.1276234 88.5078039 74.7974501 68.8832763 71.9414515 68.8832763"></polygon>
                            <path d="M85.6436417,65.3163769 C85.6436417,65.3163769 82.3419091,62.4174486 81.2028114,62.440482 C80.236281,62.4927625 79.2737562,62.6026422 78.3203988,62.7695318 C78.3203988,62.7695318 78.7694345,62.440482 83.0451782,65.3163769 L85.6436417,65.3163769 Z" id="Path" stroke="#0C0853" stroke-width="0.5" fill="none"></path>
                            <path d="M81.6089245,62.519454 C79.4330827,61.8613545 78.3071919,65.3163769 80.6184047,65.3163769 C80.6184047,65.3163769 79.8160837,65.3558629 78.5878392,65.3163769 C76.4318078,65.243986 76.058712,62.9801236 78.3270023,62.6313309 C79.4105134,62.4428895 80.5150256,62.405238 81.6089245,62.519454 L81.6089245,62.519454 Z" id="Path" stroke="none" fill="#0C0853" fill-rule="nonzero"></path>
                            <path d="M85.6436417,65.3163769 C85.6436417,65.3163769 86.9181105,62.3713816 90.6391631,64.0890213 C90.6391631,64.0890213 88.4534161,64.0462449 87.8161818,65.3163769 L85.6436417,65.3163769 Z" id="Path" stroke="#0C0853" stroke-width="0.5" fill="none"></path>
                            <path d="M88.1397516,63.4375028 C89.3977117,63.4375028 90.6424649,63.8784295 92.1381497,64.8030593 C93.6338346,65.7276891 97.1468781,65.3163769 97.1468781,65.3163769 C95.9717215,65.4916063 94.7762564,65.1735033 93.8451455,64.4378141 C92.4220987,63.2170395 90.1108859,63.0623861 88.1397516,63.4375028 Z" id="Path" stroke="none" fill="#0C0853" fill-rule="nonzero"></path>
                            <path d="M95.5719516,65.2604385 C96.2963591,65.2468205 96.9864268,64.9502267 97.49356,64.4345236 L100.039196,64.4345236 C100.039196,64.4345236 99.679307,65.3723154 95.5719516,65.2604385 Z" id="Path" stroke="#0C0853" stroke-width="0.5" fill="none"></path>
                            <path d="M89.8566525,62.1904042 C89.430729,62.1278848 88.4732265,62.8485037 88.1397516,63.4309218 C88.1397516,63.4309218 86.3271004,63.7336476 85.6436417,65.3097959 L84.8479242,64.6516964 C84.8479242,64.6516964 85.4455378,62.4371915 87.195456,62.2792477 C88.0789341,62.1818198 88.9686127,62.1521181 89.8566525,62.1904042 L89.8566525,62.1904042 Z" id="Path" stroke="none" fill="#0C0853" fill-rule="nonzero"></path>
                            <path d="M88.8430206,62.440482 C89.9424975,62.0522033 90.6754822,62.440482 90.8042498,63.3947263" id="Path" stroke="#0C0853" stroke-width="0.5" fill="none"></path>
                            <path d="M71.1952599,16.294544 L71.1952599,83.2923652 C71.1943854,84.1525401 70.8504502,84.9770898 70.2392094,85.5843992 C69.6279686,86.1917086 68.7995604,86.5319618 67.9364498,86.5302215 L51.8801242,86.5302215 L51.8801242,16.294544 L71.1952599,16.294544 Z" id="Path" stroke="none" fill="#0C0853" fill-rule="nonzero"></path>
                            <path d="M50.6584832,16.2057006 L50.6584832,86.4446635 L33.2451455,86.4446635 C32.3832137,86.4455362 31.5563322,86.1046873 30.9468541,85.4972831 C30.3373759,84.8898789 29.9953633,84.0658111 29.9962389,83.2068123 L29.9962389,16.2057006 L50.6584832,16.2057006 Z" id="Path" stroke="none" fill="#E6E6E6" fill-rule="nonzero"></path>
                            <rect id="Rectangle" stroke="none" fill="url(#linearGradient-3)" fill-rule="nonzero" x="41.2122262" y="40.4862822" width="19.3052305" height="17.9891503" rx="4.0689"></rect>
                            <text id="V" stroke="none" fill="#FFFFFF" fill-rule="nonzero" font-family="Helvetica" font-size="9.8571" font-weight="normal">
                                <tspan x="44.4083034" y="52.7633065">V</tspan>
                            </text>
                            <g id="Group_17" stroke="none" stroke-width="1" fill="none" fill-rule="evenodd" transform="translate(25.651161, 0.000000)">
                                <path d="M42.2918928,-5.84509788e-16 L7.59398496,-5.84509788e-16 C3.39994288,-5.84509788e-16 9.38408844e-15,3.38837368 9.38408844e-15,7.56814443 L9.38408844e-15,7.56814443 L9.38408844e-15,83.2035218 C9.38408844e-15,87.3832925 3.39994288,90.7716662 7.59398496,90.7716662 L42.2918928,90.7716662 C46.4859349,90.7716662 49.8858777,87.3832925 49.8858777,83.2035218 L49.8858777,7.56814443 C49.8858777,3.38837368 46.4859349,-5.84509788e-16 42.2918928,-5.84509788e-16 L42.2918928,-5.84509788e-16 M45.5440994,83.2101028 C45.5440994,84.0697066 45.2014572,84.8941032 44.5915501,85.5019349 C43.9816431,86.1097666 43.1544316,86.4512429 42.2918928,86.4512429 L7.59398496,86.4512429 C6.73144614,86.4512429 5.90423467,86.1097666 5.29432762,85.5019349 C4.68442057,84.8941032 4.34177836,84.0697066 4.34177836,83.2101028 L4.34177836,83.2101028 L4.34177836,7.56814443 C4.34177836,5.77811217 5.79784085,4.32700432 7.59398496,4.32700432 L13.0187316,4.32700432 C13.6168385,4.32700432 14.1016999,4.81021587 14.1016999,5.40628752 L14.1016999,5.40628752 C14.1016999,6.26589132 14.4443421,7.090288 15.0542492,7.69811967 C15.6641562,8.30595135 16.4913677,8.64742763 17.3539065,8.64742763 L32.5418764,8.64742763 C33.4041115,8.64830091 34.2313316,8.30755686 34.8413338,7.70024759 C35.4513359,7.09293832 35.7940835,6.26887955 35.794083,5.40957802 L35.794083,5.40957802 C35.794083,4.81168907 36.2804227,4.32700432 36.8803531,4.32700432 L42.301798,4.32700432 C44.0940727,4.33244447 45.5440994,5.78196015 45.5440994,7.56814443 L45.5440994,83.2101028 Z" id="Path_11" fill="#FFFFFF" fill-rule="nonzero"></path>
                                <g id="Predict-and-win" transform="translate(16.348839, 11.000000)" fill="#232148" fill-rule="nonzero">
                                    <path d="M2.32938273,2.11586993 L2.64802645,2.11586993 L2.64802645,2.5733685 L2.32287979,2.5733685 C2.15946913,2.57891128 1.9964267,2.55420013 1.84166274,2.50043395 C1.71169338,2.44672208 1.59587911,2.36270031 1.50351021,2.25510862 L1.12634009,2.35456484 C0.953587852,2.38415411 0.789314478,2.45205697 0.64512303,2.55347726 C0.534443173,2.66779081 0.47552464,2.82398203 0.4825497,2.98445418 C0.4825497,3.35575737 0.677637696,3.54140896 1.05480782,3.54140896 C1.28562688,3.53298377 1.51008195,3.46203866 1.70510114,3.33586612 L1.70510114,3.78673428 C1.48732145,3.92525826 1.23312125,3.99236826 0.976772622,3.97901629 C0.712024068,3.99957871 0.451405413,3.90295045 0.261449971,3.71379973 C0.0833611533,3.51544635 -0.0101989827,3.25311216 0.00133264386,2.98445418 C-0.012804046,2.70700033 0.0860204907,2.43590296 0.274455838,2.23521738 C0.34813984,2.15790976 0.436697397,2.09696158 0.534573165,2.0561962 C0.696309712,1.99755493 0.861346257,1.94884465 1.02879609,1.91032709 C1.19296004,1.8792355 1.34971649,1.81620418 1.49050434,1.7246755 C1.37813835,1.45729696 1.12525717,1.27938835 0.840211025,1.26717692 C0.591288211,1.28897547 0.359346216,1.40485503 0.189917706,1.59206721 L0.189917706,1.17435113 C0.364542324,0.957319268 0.623477516,0.828946823 0.898737424,0.822939179 C1.1064789,0.826895385 1.30643711,0.904228464 1.46449261,1.04174284 C1.6700319,1.20773251 1.83665393,1.41839415 1.9522126,1.65837136 L1.9522126,1.84402295 C1.91386086,1.9146771 1.86317307,1.97759366 1.80264514,2.02967455 C1.96705855,2.1074177 2.14936643,2.13725058 2.32938273,2.11586993 Z" id="Path"></path>
                                    <path d="M2.42042379,2.5733685 L2.42042379,2.11586993 L2.75857632,2.11586993 C2.83076126,2.1227369 2.90281153,2.10140901 2.96016724,2.0561962 C3.00493312,1.99538271 3.02580598,1.91971322 3.01869364,1.84402295 L3.01869364,1.14119906 L3.48690483,0.88924332 L3.48690483,1.86391419 C3.49519821,2.07034685 3.40863894,2.26892315 3.25279924,2.40097773 C3.12371692,2.52115932 2.95261599,2.58329402 2.77808512,2.5733685 L2.42042379,2.5733685 Z M3.21378164,3.44195275 C3.14666494,3.44678126 3.08063147,3.42273556 3.03169951,3.37564861 C2.98854664,3.3239194 2.96541998,3.25789534 2.96667018,3.18999701 C2.96447655,3.12393626 2.98783132,3.05964222 3.03169951,3.01097583 C3.13323916,2.91735175 3.28782118,2.91735175 3.38936084,3.01097583 C3.43554246,3.06086703 3.45912584,3.12819499 3.45439017,3.19662743 C3.46168808,3.25685236 3.44412809,3.3174627 3.40590564,3.36397736 C3.3676832,3.41049202 3.31223154,3.43873294 3.25279924,3.44195275 L3.21378164,3.44195275 Z" id="Shape"></path>
                                    <path d="M5.0671176,2.34130401 C5.07932578,2.59938619 4.99574147,2.85268748 4.833012,3.05075832 C4.68669701,3.2232911 4.47126943,3.31847309 4.24774802,3.30934447 C4.08795605,3.30764158 3.93124984,3.26427321 3.79254269,3.1833666 L3.79254269,2.77891134 C3.9070036,2.8481444 4.0367071,2.8869062 4.16971282,2.89162838 C4.29034239,2.90015694 4.40803338,2.8511781 4.48835654,2.7590201 C4.57205501,2.65223661 4.6137808,2.51751466 4.60540934,2.38108649 L4.60540934,1.14119906 L5.0671176,0.88924332 L5.0671176,2.34130401 Z" id="Path"></path>
                                    <polygon id="Path" points="5.74342265 2.5733685 5.74342265 0.378701434 6.21163384 0.126745698 6.21163384 2.5733685"></polygon>
                                    <path d="M7.72031434,2.46728188 L7.48620874,2.46728188 C7.27134436,2.47965238 7.06439321,2.38283688 6.93345942,2.20869573 C6.82193675,2.05322397 6.76470125,1.8641456 6.77088609,1.67163218 C6.75615057,1.42956549 6.83559228,1.19133297 6.99198582,1.00859077 C7.12508905,0.861414444 7.31628599,0.783436406 7.51222048,0.796417522 C7.70920727,0.785108988 7.90057694,0.865596484 8.03245513,1.01522119 C8.14038128,1.15189417 8.19585466,1.32393347 8.18852553,1.49924142 L8.18852553,2.31478235 C8.20768683,2.57063863 8.12573921,2.82368816 7.96092287,3.01760625 C7.81011274,3.1862858 7.5926221,3.27644962 7.36915595,3.26293157 C7.20837381,3.26206483 7.05091285,3.21619404 6.91395062,3.13032329 L6.91395062,2.77891134 C7.03565175,2.85429337 7.17476067,2.89547155 7.31713248,2.89825879 C7.5245291,2.91367586 7.70622058,2.75782786 7.72681727,2.54684684 C7.72786618,2.52015346 7.72568205,2.49343006 7.72031434,2.46728188 Z M7.72031434,1.51913266 C7.72031434,1.35337231 7.64878207,1.26717692 7.50571754,1.26717692 C7.42182046,1.26517714 7.34296293,1.30789146 7.29762368,1.37989396 C7.24241844,1.46892691 7.2151928,1.5730245 7.21958848,1.6782626 C7.21958848,1.95010958 7.31713248,2.08271786 7.50571754,2.08271786 C7.58760522,2.08801797 7.66714504,2.0536123 7.72031434,1.98989206 L7.72031434,1.51913266 Z" id="Shape"></path>
                                    <path d="M11.3294423,3.78673428 C11.1163934,3.92706345 10.8677505,4.00081389 10.6141196,3.99890753 C10.3480394,4.01175542 10.0887691,3.91082064 9.89879696,3.72043014 C9.73480354,3.54071207 9.64613401,3.30279686 9.6516855,3.05738873 C9.65083226,2.88604739 9.69822929,2.7180564 9.78824709,2.5733685 C9.91012468,2.40804402 10.068239,2.27407753 10.2499553,2.18217407 C10.060118,2.03930389 9.89336229,1.86704199 9.75573243,1.67163218 L9.6907031,1.59206721 L9.6907031,1.37326355 C9.80182169,1.20699261 9.94859138,1.06868259 10.1198967,0.968808289 C10.2787142,0.870330327 10.4607582,0.817625459 10.6466343,0.816308765 C10.8323275,0.818915512 11.014045,0.871525843 11.1733719,0.968808289 C11.3460917,1.07246936 11.4929782,1.21542786 11.6025655,1.38652438 L11.6025655,1.59206721 C11.4424717,1.78880961 11.2512522,1.95688555 11.0368103,2.08934827 L12.0772796,2.08934827 L12.0772796,2.54684684 L10.9717809,2.54684684 C10.8397964,2.5470321 10.7099586,2.51279511 10.5946108,2.44739063 C10.4518198,2.50744185 10.3232352,2.59785932 10.2174407,2.7126072 C10.1410114,2.80281071 10.099403,2.91829863 10.1003879,3.03749749 C10.0984638,3.16918142 10.1531051,3.29514019 10.2499553,3.38227902 C10.3616994,3.47469515 10.5029163,3.5219034 10.6466343,3.5148873 C10.8774533,3.50646212 11.1019084,3.43551701 11.2969276,3.30934447 L11.3294423,3.78673428 Z M10.6076167,1.93021833 C10.7852363,1.81201756 10.9378104,1.65870697 11.0563191,1.47935017 C10.9480043,1.35870809 10.7997782,1.28314215 10.6401313,1.26717692 C10.484018,1.28254484 10.3396707,1.35850715 10.2369495,1.47935017 C10.3297834,1.65333659 10.4558112,1.80663295 10.6076167,1.93021833 L10.6076167,1.93021833 Z" id="Shape"></path>
                                    <path d="M11.8236652,2.5733685 L11.8236652,2.11586993 L12.4154321,2.11586993 C12.3435292,1.98882493 12.3054214,1.84483323 12.3048822,1.69815384 C12.2966492,1.4558792 12.3778693,1.21927268 12.5324849,1.03511243 C12.6655881,0.887936101 12.8567851,0.809958062 13.0527196,0.822939179 C13.2377401,0.813138279 13.4180765,0.884268243 13.5484599,1.01847373 C13.6788434,1.15267921 13.7468933,1.33721679 13.7355275,1.52576307 L13.7355275,1.87054461 C13.741199,2.06264308 13.6709001,2.24900329 13.5404395,2.38771691 C13.4087502,2.51789837 13.2292643,2.58532105 13.0462166,2.5733685 L11.8236652,2.5733685 Z M12.7730934,0.584244271 C12.7057663,0.583079164 12.6411127,0.557181606 12.5910113,0.511309716 C12.5478584,0.459580509 12.5247318,0.393556445 12.525982,0.325658121 C12.5186487,0.267549638 12.5344776,0.208869863 12.5699243,0.162758182 C12.605371,0.1166465 12.6574742,0.0869552503 12.714567,0.0803327994 L12.7730934,0.0803327994 C12.8311084,0.074837877 12.888821,0.0936314513 12.9329722,0.132395869 C12.9771234,0.171160286 13.0039176,0.226562963 13.007199,0.285875637 L13.007199,0.325658121 C13.0141501,0.391541301 12.9905136,0.456952579 12.9433009,0.502488702 C12.8960883,0.548024824 12.8307214,0.568456363 12.7665905,0.557722615 L12.7730934,0.584244271 Z M13.2608134,1.54565432 C13.2608134,1.37989396 13.1957841,1.29369858 13.0527196,1.29369858 C12.909655,1.29369858 12.7665905,1.43293728 12.7665905,1.71141467 C12.7665905,1.98989206 12.8576316,2.14239158 13.0462166,2.14239158 C13.2348017,2.14239158 13.2608134,2.06282662 13.2608134,1.89706626 L13.2608134,1.54565432 Z M13.3453515,0.584244271 C13.2780244,0.583079164 13.2133708,0.557181606 13.1632694,0.511309716 C13.122868,0.458003111 13.1000989,0.392999797 13.0982401,0.325658121 C13.0909068,0.267549638 13.1067357,0.208869863 13.1421824,0.162758182 C13.1776292,0.1166465 13.2297323,0.0869552503 13.2868251,0.0803327994 L13.3453515,0.0803327994 C13.4044186,0.0728918188 13.4638636,0.0907960493 13.5094839,0.129767794 C13.5551042,0.168739538 13.5828022,0.225278248 13.5859601,0.285875637 L13.5859601,0.325658121 C13.5929111,0.391541301 13.5692746,0.456952579 13.522062,0.502488702 C13.4748493,0.548024824 13.4094825,0.568456363 13.3453515,0.557722615 L13.3453515,0.584244271 Z" id="Shape"></path>
                                    <path d="M16.1351099,2.11586993 L16.1351099,2.5733685 L15.6734016,2.5733685 C15.6657915,2.79342026 15.5574766,2.99711737 15.3807696,3.12369287 C15.2280294,3.23181839 15.0464797,3.28966486 14.860535,3.2894538 C14.6977278,3.28845325 14.538208,3.24263719 14.3988267,3.15684494 L14.3988267,2.77891134 C14.5205279,2.85429337 14.6596368,2.89547155 14.8020086,2.89825879 C14.9013784,2.89734696 14.9984132,2.86743576 15.0816347,2.81206341 C15.1547342,2.76554834 15.2027183,2.68726865 15.2116934,2.59989016 L15.0231083,2.59989016 C14.8109112,2.59127421 14.610785,2.49697222 14.4668432,2.33777106 C14.3229014,2.17856991 14.2469613,1.96753954 14.2557622,1.75119715 C14.2431051,1.50941839 14.3222882,1.27196141 14.4768619,1.08815574 C14.6099651,0.940979413 14.8011621,0.863001375 14.9970966,0.875982492 C15.1940834,0.864673957 15.385453,0.945161453 15.5173312,1.09478616 C15.6252574,1.23145914 15.6807308,1.40349844 15.6734016,1.57880639 L15.6734016,2.11586993 L16.1351099,2.11586993 Z M15.2116934,1.51913266 C15.2116934,1.35337231 15.1401611,1.26717692 14.9970966,1.26717692 C14.854032,1.26717692 14.7174705,1.40641562 14.7174705,1.68489301 C14.7044764,1.77722341 14.7280175,1.87103317 14.7829071,1.94565405 C14.8377968,2.02027494 14.9195311,2.06958415 15.0101024,2.08271786 L15.0426171,2.08271786 C15.0987881,2.08935073 15.1555223,2.08935073 15.2116934,2.08271786 L15.2116934,1.51913266 Z" id="Shape"></path>
                                    <path d="M15.9140102,2.5733685 L15.9140102,2.11586993 L16.2586656,2.11586993 C16.3308506,2.1227369 16.4029008,2.10140901 16.4602565,2.0561962 C16.5050224,1.99538271 16.5258953,1.91971322 16.5187829,1.84402295 L16.5187829,1.14119906 L16.9869941,0.88924332 L16.9869941,1.86391419 C17.0017452,2.06594886 16.925095,2.26377306 16.7789003,2.40097773 C16.649818,2.52115932 16.478717,2.58329402 16.3041861,2.5733685 L15.9140102,2.5733685 Z M16.1806304,0.504679302 C16.1202177,0.51018706 16.0601477,0.490880867 16.013753,0.451045715 C15.9673582,0.411210562 15.9384768,0.354141894 15.933519,0.292506051 L15.933519,0.252723566 C15.92427,0.193574771 15.9392067,0.13314596 15.9748453,0.0855316957 C16.0104838,0.0379174316 16.0637081,0.00728089625 16.122104,0.000767830227 L16.1806304,0.000767830227 C16.2458995,-0.00473546679 16.3102029,0.0195474877 16.3562096,0.0670719712 C16.4051106,0.114619886 16.4327817,0.180511445 16.4327817,0.249408359 C16.4327817,0.318305273 16.4051106,0.384196832 16.3562096,0.431744747 C16.3108723,0.480935981 16.246775,0.507561645 16.1806304,0.504679302 L16.1806304,0.504679302 Z M16.7528885,0.504679302 C16.6876195,0.510182599 16.6233161,0.485899644 16.5773093,0.438375161 C16.5312555,0.387968041 16.5056888,0.321613318 16.5057771,0.252723566 C16.5057771,0.113572256 16.6164126,0.000767830227 16.7528885,0.000767830227 C16.8893644,0.000767830227 17,0.113572256 17,0.252723566 C17,0.391874877 16.8893644,0.504679302 16.7528885,0.504679302 L16.7528885,0.504679302 Z" id="Shape"></path>
                                </g>
                            </g>
                            <path d="M71.1985616,7.56814443 L71.1985616,8.5552937 L59.0052632,8.5552937 C60.4400561,8.1868977 61.4417378,6.89605053 61.4386401,5.41944951 C61.4386401,5.1340785 61.5523903,4.86039555 61.7548671,4.65860777 C61.9573438,4.45681999 62.2319613,4.3434568 62.5183066,4.3434568 L67.9496568,4.3434568 C69.7380853,4.34524333 71.1894842,5.7858235 71.1985616,7.56814443 L71.1985616,7.56814443 Z" id="Path" stroke="none" fill="#E6E6E6" fill-rule="nonzero"></path>
                            <path d="M29.9962406,7.56814443 L29.9962406,8.5552937 L42.1895391,8.5552937 C40.7533802,8.18896676 39.7507115,6.8968477 39.7561621,5.41944951 C39.7561635,5.13350747 39.6419601,4.85932467 39.4387687,4.65744204 C39.2355773,4.45555941 38.9601109,4.34258236 38.6731939,4.34345176 L33.2451455,4.34345176 C31.4567169,4.34524333 30.005318,5.7858235 29.9962406,7.56814443 L29.9962406,7.56814443 Z" id="Path" stroke="none" fill="#E6E6E6" fill-rule="nonzero"></path>
                            <path d="M55.0894083,52.0951577 C54.964485,51.9325193 54.8191203,51.7865434 54.6568813,51.660812 C54.4908701,51.5408652 54.3177666,51.4309834 54.1385093,51.3317622 C53.9602158,51.2330473 53.7885257,51.1409134 53.6201373,51.0586509 C53.4517489,50.9763885 53.289964,50.894126 53.1677999,50.8118636 C53.0465428,50.745642 52.9353685,50.662545 52.8376267,50.5650763 C52.7627204,50.4907049 52.7190397,50.3906989 52.7154626,50.285384 C52.7127918,50.1776967 52.7465137,50.0722395 52.8112128,49.9859487 C52.8725235,49.9041671 52.9500733,49.8358419 53.0390324,49.7852284 C53.1326878,49.7379713 53.2328129,49.7047099 53.3361883,49.6865134 C53.4348074,49.6640799 53.5355037,49.6519492 53.636646,49.650318 C53.8594843,49.6478008 54.0816324,49.6754749 54.2969925,49.7325804 C54.4712274,49.780121 54.6412803,49.841748 54.8054593,49.9168483 C54.9637121,49.9924444 55.1150624,50.0816244 55.2577967,50.1833786 L56.2483164,48.8342746 C56.0632638,48.6598169 55.8542641,48.5124639 55.6275907,48.3966384 C55.5219353,48.3439904 55.4030729,48.2913425 55.2710036,48.2386945 C55.1356326,48.189337 54.9903563,48.1432701 54.8285714,48.1004936 C54.6542993,48.0585582 54.4779726,48.0256094 54.3002942,48.0017787 C54.0956347,47.9745578 53.8893422,47.9613648 53.6828702,47.962247 C53.3355764,47.962247 52.9903475,48.0155111 52.6593331,48.1202366 C52.3364946,48.2208395 52.0337112,48.3767267 51.7645636,48.5809062 C51.502553,48.7769975 51.2862815,49.0273331 51.1306309,49.3146872 C50.9661147,49.6174784 50.8830774,49.9575664 50.8896044,50.3018365 C50.8859167,50.5375218 50.9262221,50.7718368 51.0084668,50.992841 C51.0898339,51.1906783 51.2011882,51.3748973 51.3386401,51.5390636 C51.469932,51.7006325 51.6207532,51.8454145 51.7876757,51.9701187 C51.9521456,52.0906415 52.1241874,52.2005494 52.302746,52.2991685 C52.4777378,52.4011739 52.6494279,52.4965984 52.8178163,52.5821513 C52.9862046,52.6677042 53.1479895,52.7499667 53.2668519,52.8289386 C53.3873997,52.8949323 53.4984597,52.976837 53.5970252,53.0724354 C53.6712351,53.1445938 53.7149423,53.2423062 53.7191893,53.3455467 C53.7256872,53.4623956 53.6931793,53.5781003 53.6267408,53.6745965 C53.5652111,53.7574092 53.4863489,53.8258981 53.3956195,53.8753168 C53.3054682,53.9280052 53.2073457,53.9657872 53.105067,53.9871938 C52.6047919,54.0930606 52.0834111,54.030569 51.6225891,53.8095069 C50.9198031,53.460283 50.3142311,52.9437948 49.8594639,52.3057495 L49.0571429,53.5824626 C49.5531346,54.2268611 50.1548147,54.7831067 50.8367767,55.2277113 C51.4308496,55.5585129 52.1047535,55.7201548 52.784799,55.694962 C53.1660636,55.6985847 53.5449756,55.6350906 53.9040863,55.5074036 C54.2262354,55.3922813 54.5257011,55.2218994 54.7889506,55.0039575 C55.0308248,54.798318 55.2275259,54.5451568 55.3667538,54.2603051 C55.5054174,53.975267 55.576581,53.6623122 55.574763,53.3455467 C55.5787334,53.1076963 55.5384319,52.8711727 55.4559006,52.6479612 C55.3649348,52.4449363 55.2411223,52.258182 55.0894083,52.0951577 Z" id="Path" stroke="none" fill="#FFFFFF" fill-rule="nonzero"></path>
                            <polygon id="Path" stroke="none" fill="#E6E6E6" fill-rule="nonzero" points="57.0275253 25.5079372 57.0275253 34.2540798 62.2310559 37.8078172 67.4345865 34.2540798 67.4345865 25.5079372"></polygon>
                            <path d="M64.8262177,22.4477745 C64.8882645,22.6389899 64.9007586,22.8427419 64.8625368,23.040064 C64.8226088,23.4356013 64.5618976,23.7747205 64.1890733,23.9160695 C63.816249,24.0574184 63.3952913,23.9767405 63.1016645,23.707664 C62.8080377,23.4385875 62.6921306,23.0272881 62.8022556,22.6452043 C62.8708252,22.2744435 63.1176293,21.9608391 63.4626022,21.8061274 L62.2310559,20.401085 L61.0028114,21.8159989 C61.3496161,21.9683697 61.597306,22.2830997 61.6631579,22.6550758 C61.7894776,23.0430993 61.6787788,23.4689177 61.3792941,23.7469981 C61.0798094,24.0250786 60.6457859,24.105051 60.2663313,23.9520708 C59.8868767,23.7990906 59.6307237,23.4408677 59.6094802,23.033483 C59.5706835,22.8359848 59.5843416,22.6318114 59.649101,22.4411935 L57.9982347,21.7271555 L59.3189278,24.7774468 L65.1497875,24.7774468 L66.4704805,21.7271555 L64.8262177,22.4477745 Z" id="Path" stroke="none" fill="#E6E6E6" fill-rule="nonzero"></path>
                            <polygon id="Path" stroke="none" fill="#0C0853" fill-rule="nonzero" points="35.4011769 62.5655209 35.4011769 72.3317178 41.2122262 76.3000578 47.0199738 72.3317178 47.0199738 62.5655209"></polygon>
                            <polygon id="Path" stroke="none" fill="#0C0853" fill-rule="nonzero" points="41.2089245 77.3266931 35.4044786 73.358353 35.4044786 76.2967673 41.2089245 80.2651074 47.0199738 76.2967673 47.0199738 73.358353"></polygon>
                            <path d="M99.7552468,39.0351728 C99.7552468,39.0351728 95.6346845,34.4284762 93.2244197,31.8125306 C90.814155,29.196585 88.9321674,29.0419316 88.9321674,29.0419316 L88.3906832,29.1209036 L87.0237659,29.196585 L86.1322981,29.170261 L85.7856162,28.2982792 C85.6634521,27.1762195 87.1063093,26.3239806 87.1063093,26.3239806 C88.3774763,25.8139535 88.2784243,25.109787 88.2784243,25.109787 C88.331252,24.2707101 88.8595293,23.4447952 88.9387708,23.0960025 C89.0180124,22.7472098 88.8727362,21.4178487 89.4472377,20.7071013 C90.0217391,19.9963538 89.7212815,19.700209 89.7212815,19.700209 C89.7212815,19.700209 88.6218045,17.8871448 88.1166394,17.0678109 C87.6114743,16.248477 86.6836875,16.5676553 86.6836875,16.5676553 L86.541713,16.5281693 C86.3735885,16.2616929 86.1393191,16.0429544 85.8615561,15.8931033 C83.4215757,15.2350038 82.4640732,15.6430255 82.4640732,15.6430255 L80.9881988,16.5643648 C80.9881988,16.5643648 79.8953253,16.5117168 79.8689114,16.8572191 C79.8424975,17.2027213 79.7401438,17.3968607 79.2514874,17.604162 C78.762831,17.8114634 78.7397189,18.5584063 78.6967963,19.5258126 C78.6538738,20.4932189 79.2944099,20.6116768 79.2944099,20.6116768 L79.8061785,20.6774868 C79.4198758,21.1414469 79.528833,21.5363066 79.6311867,22.3029926 C79.6964018,22.7466297 79.6475515,23.1995049 79.4892122,23.6191916 C79.2330151,24.3590235 79.12095,25.1408102 79.1590389,25.9225399 L79.2184701,26.4753435 L78.5845374,27.6829561 L77.9770186,29.8053271 L77.7095783,29.8678465 C77.4553449,30.0356619 76.8775417,31.5723243 76.8775417,31.5723243 C75.6559006,34.0698119 73.8663616,38.5942461 73.8663616,38.5942461 L72.9187643,41.4865935 L72.8065054,42.2828939 C72.9816967,42.7679586 73.182277,43.2435393 73.4074207,43.7076793 C73.551924,44.013351 73.7980576,44.2598096 74.1040863,44.4052648 C75.0681922,44.5664992 75.9068323,43.8294277 75.9068323,43.8294277 L76.8643347,42.7139491 L78.7033998,40.3349193 C78.7033998,40.3349193 78.898202,41.0588288 78.8750899,44.122282 C78.8519778,47.1857353 77.144982,53.664725 77.144982,53.664725 L77.2572409,53.9246743 L77.8284407,54.332696 C77.8284407,54.5564498 76.8907486,57.0078705 76.8907486,57.0078705 C76.8907486,57.0078705 75.589866,62.3121526 74.6554756,66.5503135 C73.7210853,70.7884744 74.3253024,70.3442572 74.3253024,70.3442572 C74.45407,71.5321268 76.4747303,74.1974299 76.4747303,74.1974299 C77.6897679,75.8591312 80.5721805,78.2743564 80.5721805,78.2743564 C81.6683557,79.0772378 84.121543,81.2358042 84.121543,81.2358042 C84.9403727,85.7437859 84.121543,87.1981858 83.9894737,87.5502691 C83.8574044,87.9023523 84.3196469,87.8200899 84.3196469,87.8200899 C84.3196469,87.8200899 84.0257927,88.8072391 82.1372017,89.3830762 C80.2486107,89.9589133 80.1957829,90.7881187 80.1957829,90.7881187 C79.8656097,92.0187648 80.7306636,91.9134688 80.7306636,91.9134688 C81.1929062,92.1865801 84.1512586,91.7259105 84.1512586,91.7259105 C84.1512586,91.7259105 87.1228179,91.1961404 87.7567506,91.1994309 C87.9163803,91.2218758 88.0776059,91.1709145 88.1950749,91.0608822 C88.3125438,90.9508499 88.3735629,90.7936363 88.3609676,90.6334653 L88.4005884,90.1201477 C89.0411246,90.1596336 89.0048055,89.626573 89.0048055,89.626573 C88.9062788,89.3357581 88.8312011,89.0375696 88.7802877,88.7348482 C88.6019941,87.9155143 88.8430206,86.4808573 88.8430206,86.4808573 C88.9965033,86.652887 89.1377219,86.8354067 89.2656424,87.0270799 C89.5033671,87.3791632 89.7278849,87.2442528 89.7278849,87.2442528 L90.0580582,87.0632754 L90.8339653,88.8960826 C90.8339653,88.8960826 90.7283099,89.4554672 90.6226545,90.380097 C90.516999,91.3047268 91.1410265,91.5482236 91.2268715,91.5778381 C91.3127166,91.6074526 92.5805819,91.7061675 93.1319712,90.9197386 C93.4699323,90.4141941 93.6670559,89.8282423 93.703171,89.2218418 L93.5578947,87.7509894 C93.5578947,87.7509894 93.369696,85.8721153 93.356489,85.6746854 C93.3432821,85.4772556 93.3300752,83.7727778 93.3994116,83.2232647 C93.468748,82.6737516 93.2772475,82.5026458 93.0395227,82.4467073 C92.8655026,82.4193806 92.6876298,82.4294782 92.517849,82.4763218 C92.662743,82.3365249 92.7331136,82.1368851 92.7077796,81.9374926 C92.6824457,81.7381001 92.5643659,81.5622413 92.3890814,81.4628485 L90.6457666,80.4362133 L89.4703498,79.2187292 C89.8203334,77.6458713 89.7311867,77.2872071 89.6552468,74.3981502 C89.5633128,72.4261935 89.2566532,70.4700295 88.7406669,68.564098 L88.4567179,65.3854774 C88.1001308,62.6477834 89.4274273,56.7446307 89.4274273,56.7446307 C91.4084668,56.2938326 92.3494606,55.2342923 92.5343576,54.8262706 C92.6549379,54.6231574 92.628132,54.3653609 92.468323,54.1912046 L91.6362864,52.0293477 L90.7943446,49.2620392 L90.6457666,49.0284139 L91.2103629,48.7882076 C91.3841665,48.4458876 91.6491845,48.1578644 91.9763648,47.9557117 C91.9763648,47.9557117 97.1072573,44.783672 98.0548545,44.4315888 C98.662507,44.1903124 99.2092766,43.818426 99.6561948,43.3424341 C101.947597,41.1542532 99.7552468,39.0351728 99.7552468,39.0351728 Z M79.750049,20.5754814 L79.6939196,20.3977945 C79.0335731,18.1306417 80.5457666,18.1964516 80.8561295,18.2326471 L80.9089572,18.2326471 L80.9815953,18.2589711 C80.6943446,18.3873005 79.750049,20.5754814 79.750049,20.5754814 Z M94.4955868,41.9406821 L93.0923504,42.8422785 L89.9623079,44.6191472 C89.7675057,38.5613411 90.5004904,36.3238028 90.5004904,36.3238028 L91.8211834,37.6400018 L93.3366787,39.2852506 L94.5087937,40.8581084 L94.9083034,41.5491129 L94.4955868,41.9406821 Z" id="Shape" stroke="none" fill="#FFFFFF" fill-rule="nonzero"></path>
                            <path d="M88.6383132,34.9088888 C88.9849951,34.9746988 93.6734554,38.9167149 94.9809415,41.7333808" id="Path" stroke="#0C0853" stroke-width="0.5" fill="none"></path>
                            <path d="M95.4200719,40.0848415 C95.3969598,40.8844324 95.4200719,41.6182134 92.8447205,42.9706079 C90.2693691,44.3230024 89.4439359,45.0074259 89.1434783,45.0534928 C88.8430206,45.0995598 88.615201,45.6260394 88.5029421,46.3696919 C88.3906832,47.1133443 88.9849951,48.8671795 90.2033344,49.0020899 C91.4216737,49.1370003 91.3061131,48.3834764 91.8112782,48.0412646 C92.3164433,47.6990529 96.7968944,44.9481969 98.2232429,44.3295834 C99.6495914,43.7109698 101.026414,42.0262351 100.706146,40.7330695 C100.385878,39.439904 98.7746322,37.8045267 97.6949657,36.7252435 C96.6152991,35.6459603 92.4121935,30.3120637 90.4080418,29.5124728 C88.4038902,28.7128819 88.8694345,29.143937 87.9944753,29.183423 C87.1195162,29.222909 86.2478588,29.2064565 86.2478588,29.2064565 C85.9495465,29.5305054 85.6953309,29.8922768 85.491762,30.2824492 C85.1913043,30.8780293 84.8710363,32.0691894 83.2829029,31.980346 C81.6947695,31.8915025 82.2494606,30.6970519 82.2494606,30.6970519" id="Path" stroke="#0C0853" stroke-width="0.5" fill="none"></path>
                            <path d="M79.2845047,27.8770955 C79.2845047,27.8770955 80.6051978,27.218996 80.9188624,27.2584819 C81.232527,27.2979679 82.2725727,27.0742141 82.8701863,27.0281471 C83.3978916,26.9935013 83.9273127,26.9935013 84.455018,27.0281471 C85.1681922,27.0511806 85.0097091,27.1169905 84.9634848,27.4394593 C84.9172605,27.7619281 84.2040863,27.7685091 83.5371363,27.8770955" id="Path" stroke="#0C0853" stroke-width="0.5" fill="none"></path>
                            <path d="M81.2622426,28.0350394 C81.2622426,28.0350394 83.3984636,27.7619281 83.4909121,28.0120059 C83.520735,28.2700325 83.4808389,28.5313144 83.3753514,28.7688203" id="Path" stroke="#0C0853" stroke-width="0.5" fill="none"></path>
                            <path d="M81.4702517,28.7688203 C81.4702517,28.7688203 83.5371363,28.6306194 83.4909121,28.8609543 C83.4536144,29.1459464 83.3250895,29.4113531 83.1244197,29.6177687" id="Path" stroke="#0C0853" stroke-width="0.5" fill="none"></path>
                            <path d="M81.2622426,29.3644004 C81.2622426,29.3644004 83.306015,29.3183334 83.2168683,29.7526791 C83.1277215,30.1870248 82.503694,30.7167949 82.4805819,30.7858953 C82.4574698,30.8549958 81.7211834,30.9438392 81.6056228,30.7858953 L81.2754495,30.4568456" id="Path" stroke="#0C0853" stroke-width="0.5" fill="none"></path>
                            <path d="M79.2845047,26.3865001 C78.97187,26.9049928 78.7034862,27.4487394 78.4821837,28.0120059 C78.4128473,28.3805416 77.6072246,30.8747388 77.6072246,30.8747388" id="Path" stroke="#0C0853" stroke-width="0.5" fill="none"></path>
                            <path d="M78.8024518,33.6946952 C78.8024518,33.6946952 79.3076169,31.3354084 79.515626,31.0820401 C79.515626,31.0820401 80.5259562,31.4933523 80.8957502,30.8747388 C81.2655443,30.2561252 82.1471069,30.3482592 82.1471069,30.3482592" id="Path" stroke="#0C0853" stroke-width="0.5" fill="none"></path>
                            <path d="M76.9864989,41.7333808 C76.9864989,41.7333808 77.4916639,39.9927076 78.3996404,37.6564543 C78.8990867,36.3418044 79.5133654,35.073385 80.2354037,33.8658011 L79.515626,31.0820401 C79.515626,31.0820401 81.5593985,33.8296056 79.9514547,33.9217395 C78.343511,34.0138735 77.5841125,32.0000889 77.4916639,30.8089288 C77.3992154,29.6177687 77.9175874,29.9007515 77.9175874,29.9007515" id="Path" stroke="#0C0853" stroke-width="0.5" fill="none"></path>
                            <path d="M77.5874142,29.9961759 C77.5874142,29.9961759 77.0327231,31.312375 75.7912717,33.9678065 C74.5498202,36.623238 72.6909448,41.5359509 72.8197123,42.2598604 C72.9484799,42.9837699 73.6253351,44.2736449 74.0380517,44.3888123 C74.4507682,44.5039797 74.8436744,44.5006892 75.6030729,44.0597626 C76.3624714,43.6188359 77.4388362,41.8419672 78.0133377,41.1772867 C78.5878392,40.5126062 78.7958483,40.2131709 78.7958483,40.2131709" id="Path" stroke="#0C0853" stroke-width="0.5" fill="none"></path>
                            <path d="M78.3237006,37.8571746 C78.3237006,37.8571746 78.8949003,39.6472053 78.9048055,43.427987 C78.9147107,47.2087688 77.158189,53.8029259 77.158189,53.8029259 C77.158189,53.8029259 77.7227852,54.6979412 80.3542661,55.073058 C82.985747,55.4481747 84.2271984,55.8989729 88.2255966,54.5235449 C92.2239948,53.1481169 92.4650212,53.9411268 92.603694,54.4544444 C92.7423668,54.967762 91.5339327,56.3464805 89.3646943,56.7577927" id="Path" stroke="#0C0853" stroke-width="0.5" fill="none"></path>
                            <path d="M90.4212488,36.3238028 C90.1244222,37.6642303 89.9662132,39.0314446 89.949101,40.4040198 L89.949101,44.4546223" id="Path" stroke="#0C0853" stroke-width="0.5" fill="none"></path>
                            <path d="M90.7316116,49.0284139 C90.7316116,49.0284139 91.8112782,52.9934635 92.603694,54.4708969" id="Path" stroke="#0C0853" stroke-width="0.5" fill="none"></path>
                            <path d="M90.0778686,53.9641603 C90.0778686,53.9641603 89.3283753,57.3369203 88.7769859,60.2555916 C88.2255966,63.174263 88.4666231,67.882965 88.948676,69.5315043 C89.430729,71.1800436 90.1207911,76.9186714 89.5000654,79.1529192" id="Path" stroke="#0C0853" stroke-width="0.5" fill="none"></path>
                            <path d="M81.5461916,55.2573258 C81.5461916,55.2573258 81.4009153,60.2950776 81.9159856,62.9768331 C82.4310559,65.6585887 83.0881007,70.3278047 83.0550834,71.2030771" id="Path" stroke="#0C0853" stroke-width="0.5" fill="none"></path>
                            <path d="M82.417849,65.9086665 C82.417849,65.9086665 81.2622426,68.7812709 81.3315789,68.9194718 C81.4009153,69.0576727 83.5371363,71.3939259 84.6068977,72.9404598 C85.676659,74.4869937 89.6552468,79.7419183 90.7778359,80.5316377 C91.900425,81.3213571 93.2244197,81.5977589 92.603694,82.4203833 C91.9829683,83.2430077 92.5013403,85.2403398 91.5339327,85.9609587 C90.566525,86.6815777 89.9160837,87.3363867 89.6057208,87.3001912 C89.295358,87.2639958 89.1797973,86.7506781 88.4600196,85.9247633 C87.7402419,85.0988484 84.4715266,81.3575526 82.7810396,80.0512251 C81.0905525,78.7448975 77.4685518,75.8953266 75.675711,73.0753702 C73.8828702,70.2554138 74.1602158,69.3998844 74.3319059,68.2679533 C74.5035959,67.1360221 76.6431187,57.3764063 77.158189,56.2411846 C77.4517872,55.6273679 77.668043,54.979703 77.8020268,54.312953" id="Path" stroke="#0C0853" stroke-width="0.5" fill="none"></path>
                            <path d="M84.2305002,81.3542621 C84.2305002,81.3542621 84.5606734,84.4473298 84.5012422,85.651652 C84.441811,86.8559741 83.9168356,87.563431 84.0191893,87.7740229 C84.121543,87.9846147 84.3823799,87.8365423 84.5111474,87.7740229 C85.0836517,87.6852618 85.6687548,87.7234618 86.2247466,87.8858998 C86.7431187,88.0899107 88.1793723,90.1530526 88.4600196,90.1530526 C88.7406669,90.1530526 89.2590389,90.0839522 88.9156587,89.1889369 C88.5722785,88.2939215 88.8760379,86.4545334 88.8760379,86.4545334" id="Path" stroke="#0C0853" stroke-width="0.5" fill="none"></path>
                            <path d="M92.7621772,82.4796123 C92.7621772,82.4796123 93.604119,82.2953444 93.3961098,83.4404376 C93.1881007,84.5855307 93.5116705,87.4482636 93.6965675,88.6624572 C93.8305433,89.5693573 93.5617662,90.4894591 92.9602811,91.1829784 C92.6598235,91.4330562 91.3754495,91.9858598 90.8702844,91.3672462 C90.3651193,90.7486327 90.8702844,88.9618925 90.8702844,88.9618925 L90.0778686,87.0599849" id="Path" stroke="#0C0853" stroke-width="0.5" fill="none"></path>
                            <path d="M84.3031383,87.9747432 C83.6923178,89.0968029 81.5825106,89.5114056 80.849526,89.9918183 C80.1165414,90.4722309 79.9745669,91.4791232 80.3443609,91.8015919 C80.714155,92.1240607 82.6192547,91.9397928 82.9395227,91.9167593 C83.2597908,91.8937259 87.3077149,91.3211793 87.9284407,91.2060119 C88.5491664,91.0908445 88.3180451,90.4491974 88.4600196,90.1530526" id="Path" stroke="#0C0853" stroke-width="0.5" fill="none"></path>
                            <path d="M86.2478588,29.203166 C85.8388087,28.6490965 85.6420656,27.9675071 85.6931677,27.2815154 C85.7625041,26.0903553 86.244557,25.6987861 86.244557,25.6987861 C86.4275286,25.6742439 86.6129748,25.6742439 86.7959464,25.6987861 C86.9808434,25.7448531 88.06051,24.9682956 87.8789147,23.9581129 C87.6973194,22.9479301 87.4397842,22.470808 87.0039555,22.7899862 C86.6339775,23.1479105 86.3250612,23.5635839 86.0893756,24.0206323 C86.0893756,24.0206323 85.7889179,24.3496821 85.5379863,24.1588332 C85.2870546,23.9679844 85.4686499,22.8426342 85.121968,22.6846903 C84.775286,22.5267464 84.2040863,22.1878252 84.3658712,21.5231447 C84.5276561,20.8584641 83.9960771,21.042732 83.7055247,20.996665 C83.4149722,20.9505981 82.3848316,20.8617546 82.4871854,19.8976389 C82.5895391,18.9335231 82.0612619,20.7762017 81.4009153,19.6771755 C80.7405688,18.5781493 81.6056228,18.0319267 80.2750245,18.3017475 C78.9444263,18.5715683 79.7665577,20.6610343 79.7665577,20.6610343 C79.7665577,20.6610343 78.9147107,20.7762017 78.7760379,20.0029348 C78.6373652,19.2296678 78.614253,17.7818489 79.3967636,17.5515141 C80.1792743,17.3211793 79.3439359,16.6597892 80.565577,16.6367558 C81.787218,16.6137223 81.7806146,15.4455956 83.4149722,15.5146961 C85.0493298,15.5837965 86.2214449,15.8108409 86.4525662,16.4064209 C86.6836875,17.002001 87.5091206,15.6759305 88.5887872,17.7588154 C89.6684537,19.8417004 90.2396535,19.70679 89.4868585,20.7202632 C88.7340634,21.7337365 89.3019614,23.0236116 88.72746,23.721197 C88.1529585,24.4187825 88.6118993,25.6954956 87.5553449,26.1265508 C86.4987905,26.557606 85.6931677,27.7388946 85.7955214,28.1666593" id="Path" stroke="#0C0853" stroke-width="0.5" fill="none"></path>
                            <path d="M80.8957502,18.370848 C80.8957502,18.370848 80.1132396,19.4468407 79.997679,19.9042198 C79.8821183,20.361599 79.3769533,21.0262795 79.5849624,22.0134288 C79.7929716,23.0005781 79.6080745,23.1815554 79.4231775,23.8659789 C79.2178131,24.588571 79.1396164,25.3411584 79.1920562,26.0903553 C79.2613926,26.8669127 79.3868585,27.8244475 79.3868585,27.8244475" id="Path" stroke="#0C0853" stroke-width="0.5" fill="none"></path>
                            <path d="M80.8957502,21.9673618 C80.8505986,21.7968088 80.7181005,21.6628976 80.5476148,21.6155136 C80.3771291,21.5681295 80.194216,21.6143768 80.0670154,21.737027" id="Path" stroke="#0C0853" stroke-width="0.5" fill="none" stroke-linecap="round"></path>
                            <path d="M81.4702517,22.424741 C81.8040852,22.7041298 82.2297921,22.8506279 82.6654789,22.8360532" id="Path" stroke="#0C0853" stroke-width="0.5" fill="none" stroke-linecap="round"></path>
                            <ellipse id="Oval" stroke="#0C0853" stroke-width="0.5" fill="none" stroke-linecap="round" cx="81.7249854" cy="23.8890124" rx="1" ry="1"></ellipse>
                            <ellipse id="Oval" stroke="#0C0853" stroke-width="0.5" fill="none" stroke-linecap="round" cx="80.2226971" cy="23.4612477" rx="1" ry="1"></ellipse>
                            <path d="M80.5688787,23.8890124 C80.5688787,23.8890124 79.8193854,25.0571391 79.4958156,25.2874739 C79.1722458,25.5178087 79.2613926,25.6987861 79.6774109,25.8600205 C79.937567,25.9600662 80.2060394,26.0371408 80.4797319,26.0903553" id="Path" stroke="#0C0853" stroke-width="0.5" fill="none" stroke-linecap="round"></path>
                            <path d="M79.9547565,27.0972476 C79.9547565,27.0972476 80.6778359,26.524701 81.183001,26.524701" id="Path" stroke="#0C0853" stroke-width="0.5" fill="none" stroke-linecap="round"></path>
                            <path d="M88.6383132,45.5339055 C88.3814798,45.3113211 88.1052414,45.112005 87.81288,44.9383254 C87.5817587,44.8461915 87.443086,44.5039797 86.640765,44.5730802 C85.8384439,44.6421806 86.4789801,45.2542132 86.6638771,45.1423363 C86.8487741,45.0304594 87.3242236,45.5339055 87.443086,45.8794077 C87.1498141,45.891276 86.858148,45.9287112 86.5714286,45.9912846 C86.2197395,46.1260987 85.8589576,46.2360541 85.491762,46.3203344 C85.1970679,46.4000882 84.9115625,46.5103726 84.639915,46.6493842 C84.5243544,46.7184846 83.7451455,47.3338077 83.6295848,47.3239362 C83.5140242,47.3140647 83.3291272,47.8635778 84.0654135,47.6365334 C84.8016999,47.4094891 85.1681922,47.1988973 85.2837529,47.1758638" id="Path" stroke="#0C0853" stroke-width="0.5" fill="none" stroke-linecap="round"></path>
                            <path d="M86.2016345,46.932367 C86.2016345,46.932367 85.0196143,47.5049135 84.8809415,47.5509805 C84.7422687,47.5970475 83.5140242,48.3275379 83.5140242,48.3275379 C83.5140242,48.3275379 83.2333769,48.8112411 83.7616541,48.6565877 C84.2899314,48.5019343 85.2540373,48.176175 85.2540373,48.176175" id="Path" stroke="#0C0853" stroke-width="0.5" fill="none" stroke-linecap="round"></path>
                            <path d="M86.4558679,47.6760194 C86.4558679,47.6760194 85.158287,48.215661 84.9337692,48.4887723 C84.7092514,48.7618836 84.0885257,49.1073859 84.157862,49.2225533 C84.2271984,49.3377207 84.4120955,49.5877985 84.8016999,49.3377207 C85.0891574,49.158364 85.3880485,48.9978857 85.6964694,48.857308" id="Path" stroke="#0C0853" stroke-width="0.5" fill="none" stroke-linecap="round"></path>
                            <path d="M86.3535142,48.5611633 C86.3535142,48.5611633 85.2738477,49.3146872 85.0328212,49.5186981 C84.7917947,49.7227089 84.8974501,49.9563342 85.0328212,50.0024012 C85.1681922,50.0484682 85.9771167,49.59767 86.2049363,49.4463071 C86.5782351,49.1909037 87.0169607,49.0470622 87.4694998,49.0317044 C88.0671134,49.0317044 88.7076496,48.9889279 89.2722458,48.5216773" id="Path" stroke="#0C0853" stroke-width="0.5" fill="none" stroke-linecap="round"></path>
                        </g>
                    </g>
                </g>
            </g>
        </g>
    </g>
</svg>