<?xml version="1.0" encoding="UTF-8"?>
<svg width="120px" height="120px" viewBox="0 0 120 120" version="1.1" xmlns="http://www.w3.org/2000/svg" xmlns:xlink="http://www.w3.org/1999/xlink">
    <title>Invite Copy</title>
    <defs>
        <circle id="path-1" cx="60" cy="60" r="60"></circle>
    </defs>
    <g id="All-In-One" stroke="none" stroke-width="1" fill="none" fill-rule="evenodd">
        <g id="Arabic_Complete_Flow_Updated_v2-01" transform="translate(-225.000000, -688.000000)">
            <g id="Invite-Copy" transform="translate(225.000000, 688.000000)">
                <mask id="mask-2" fill="white">
                    <use xlink:href="#path-1"></use>
                </mask>
                <use id="Mask" fill="#FFE000" xlink:href="#path-1"></use>
                <g id="App_Illustrations_315x300-03" mask="url(#mask-2)">
                    <g transform="translate(13.000000, 21.000000)">
                        <g id="Group" stroke="none" stroke-width="1" fill="none" fill-rule="evenodd" transform="translate(0.000000, 65.513204)">
                            <polygon id="Path" fill="#FFFFFF" fill-rule="nonzero" points="20.3183917 3.69149323 29.2639075 3.69149323 29.2639075 24.5156656 1.25336433 24.5156656 1.25336433 7.12695314 5.87446517e-16 7.12695314 5.87446517e-16 3.69149323 4.63976294 3.69149323"></polygon>
                            <rect id="Rectangle" stroke="#0C0853" stroke-width="0.5" x="0.0363773288" y="3.75755977" width="9.63999214" height="3.36939337"></rect>
                            <rect id="Rectangle" stroke="#0C0853" stroke-width="0.5" x="1.25336433" y="7.12695314" width="9.63999214" height="17.3887125"></rect>
                            <rect id="Rectangle" stroke="#0C0853" stroke-width="0.5" x="10.8933565" y="7.12695314" width="17.4082054" height="17.3887125"></rect>
                            <rect id="Rectangle" stroke="#0C0853" stroke-width="0.5" x="9.67636947" y="3.75755977" width="20.0472152" height="3.36939337"></rect>
                            <rect id="Rectangle" fill="#0C0853" fill-rule="nonzero" x="3.35994237" y="3.75755977" width="2.71507154" height="3.36939337"></rect>
                            <polygon id="Path" fill="#0C0853" fill-rule="nonzero" points="6.7595691 24.5156656 4.04780459 24.5156656 3.35994237 7.12695314 6.07501392 7.12695314"></polygon>
                            <path d="M14.0747192,3.6254267 C14.0747192,3.6254267 10.2617138,0.275853284 8.95212992,0.302279899 C7.84321005,0.363168473 6.73890888,0.490020906 5.64510003,0.682162485 C5.64510003,0.682162485 6.16430372,0.305583226 11.0950853,3.6254267 L14.0747192,3.6254267 Z" id="Path" stroke="#0C0853" stroke-width="0.5"></path>
                            <path d="M9.41842114,0.391469724 C6.90838545,-0.361688795 5.62856488,3.6254267 8.27088177,3.6254267 C8.27088177,3.6254267 7.3449134,3.67167327 5.9295046,3.6254267 C3.44261812,3.5395402 3.01270423,0.923305344 5.62856488,0.52029947 C6.87979192,0.302350465 8.15525526,0.258993249 9.41842114,0.391469724 L9.41842114,0.391469724 Z" id="Path" fill="#0C0853" fill-rule="nonzero"></path>
                            <path d="M14.0747192,3.6254267 C14.0747192,3.6254267 15.5463475,0.223000055 19.8355653,2.20499616 C19.8355653,2.20499616 17.3156085,2.15544625 16.5814479,3.6254267 L14.0747192,3.6254267 Z" id="Path" stroke="#0C0853" stroke-width="0.5"></path>
                            <path d="M16.9551423,1.45183764 C18.4069284,1.435321 19.8421794,1.96054997 21.5651419,3.03082787 C23.2881045,4.10110576 27.3392161,3.6254267 27.3392161,3.6254267 C27.3392161,3.6254267 25.1962608,4.01852259 23.5427458,2.61130536 C21.8892309,1.20408813 19.2270718,1.01910182 16.9551423,1.45183764 Z" id="Path" fill="#0C0853" fill-rule="nonzero"></path>
                            <path d="M25.5236567,3.56266349 C26.3605499,3.54671461 27.1575889,3.20262743 27.7426738,2.6046987 L30.6793163,2.6046987 C30.6793163,2.6046987 30.2659376,3.69149323 25.5236567,3.56266349 Z" id="Path" stroke="#0C0853" stroke-width="0.5"></path>
                            <path d="M18.9327461,0.0214971178 C18.4433057,-0.0511760726 17.3387577,0.78126229 16.9485282,1.45183764 C16.9485282,1.45183764 14.8584853,1.80199028 14.0681052,3.6254267 L13.1586719,2.86566152 C13.1586719,2.86566152 13.8465342,0.302279899 15.8638224,0.120596923 C16.8825478,0.00632816654 17.9087592,-0.0268096256 18.9327461,0.0214971178 L18.9327461,0.0214971178 Z" id="Path" fill="#0C0853" fill-rule="nonzero"></path>
                            <path d="M17.7653646,0.302279899 C19.031957,-0.146972551 19.8785567,0.302279899 20.027373,1.40228774" id="Path" stroke="#0C0853" stroke-width="0.5"></path>
                        </g>
                        <g id="Group" stroke="none" stroke-width="1" fill="none" fill-rule="evenodd" transform="translate(52.436266, 50.057355)">
                            <polygon id="Path" fill="#FFFFFF" fill-rule="nonzero" points="15.2553289 4.66886092 8.91905962 4.66886092 8.91905962 39.2084463 47.1384041 39.2084463 47.1384041 9.98721713 48.563734 9.98721713 48.563734 4.66886092 40.9575652 4.66886092"></polygon>
                            <rect id="Rectangle" stroke="#0C0853" stroke-width="0.5" x="17.4313546" y="9.98721713" width="29.7070495" height="29.2212292"></rect>
                            <rect id="Rectangle" stroke="#0C0853" stroke-width="0.5" x="1.5708392" y="9.98721713" width="15.8605154" height="29.2212292"></rect>
                            <rect id="Rectangle" stroke="#0C0853" stroke-width="0.5" x="0" y="4.66886092" width="16.26728" height="5.31835621"></rect>
                            <rect id="Rectangle" stroke="#0C0853" stroke-width="0.5" x="16.26728" y="4.66886092" width="32.2964539" height="5.31835621"></rect>
                            <rect id="Rectangle" fill="#0C0853" fill-rule="nonzero" x="31.0463966" y="4.67216425" width="4.24622638" height="5.31505288"></rect>
                            <rect id="Rectangle" fill="#0C0853" fill-rule="nonzero" x="5.3871517" y="4.66886092" width="4.24622638" height="5.31835621"></rect>
                            <polygon id="Path" fill="#0C0853" fill-rule="nonzero" points="35.2959301 9.98721713 34.8031826 39.2084463 30.5569562 39.2084463 31.0497037 9.98721713"></polygon>
                            <polygon id="Path" fill="#0C0853" fill-rule="nonzero" points="10.1261255 39.2084463 5.87989915 39.2084463 5.3871517 9.98721713 9.63337808 9.98721713"></polygon>
                            <path d="M14.8750205,0.876641711 C14.9055308,0.870026521 14.9371069,0.870026521 14.9676173,0.876641711 L14.8750205,0.876641711 Z" id="Path" stroke="#0C0853" stroke-width="0.5"></path>
                            <path d="M25.7485348,4.66886092 L21.8892309,4.66886092 C20.265494,3.54319222 18.5795431,2.50981501 16.8393962,1.57364367 C15.6356373,0.955921555 15.1495039,0.863428403 14.9676173,0.863428403 C15.3942242,0.790755213 17.1138797,0.509972432 18.5359026,0.41747928 L18.7111751,0.41747928 L19.1510101,0.400962646 L19.1774664,0.400962646 C19.3636706,0.408324159 19.5476666,0.443968275 19.7231263,0.506669105 L19.7396614,0.506669105 C21.0624734,0.946011574 23.231885,2.59767499 24.5679251,3.68446952 L24.6109165,3.72080612 C25.0838217,4.10399203 25.447595,4.41450475 25.6261747,4.56976111 L25.7485348,4.66886092 Z" id="Path" stroke="#0C0853" stroke-width="0.5"></path>
                            <path d="M18.6218853,0.404265973 L18.5359026,0.404265973 C17.8336246,0.536210701 17.2185379,0.955390525 16.8393962,1.56043037 C16.0093317,2.82890787 16.2441308,4.65564761 18.2746472,4.65564761 C18.2746472,4.65564761 17.5074163,4.69528753 16.26728,4.6787709 C15.9597263,4.6787709 15.6058741,4.6787709 15.2553289,4.65564761 C12.0508169,4.54994115 11.4985429,1.17724445 14.8684064,0.658622139 C16.1097384,0.464593626 17.3656922,0.379483361 18.6218853,0.404265973 L18.6218853,0.404265973 Z" id="Path" fill="#0C0853" fill-rule="nonzero"></path>
                            <path d="M19.7396614,0.500062451 C19.3989974,0.448676996 19.0555494,0.417790258 18.7111751,0.4075693 L18.6218853,0.4075693 C18.8043254,0.387547475 18.9884122,0.387547475 19.1708523,0.4075693 L19.1708523,0.4075693 C19.35577,0.424839689 19.5385375,0.460245801 19.7165122,0.513275759 L19.7396614,0.500062451 Z" id="Path" fill="#0C0853" fill-rule="nonzero"></path>
                            <path d="M25.7485348,4.67216425 C25.7485348,4.67216425 27.6434629,0.285346207 33.1695098,2.84542451 C33.1695098,2.84542451 29.9253135,2.7826613 28.9761959,4.67216425 L25.7485348,4.67216425 Z" id="Path" stroke="#0C0853" stroke-width="0.5"></path>
                            <path d="M42.1613241,4.73162413 C40.745071,4.8497937 39.3206237,4.82877178 37.9084837,4.66886092 C37.0298666,4.58857002 36.1768913,4.33004148 35.401755,3.90909575 C33.1761239,2.52830513 31.3274942,1.85112313 29.4491012,1.87424642 C30.7435722,1.62187999 32.0665001,1.54741664 33.3811598,1.65292352 C35.1008153,1.80817988 36.731181,2.33010552 37.941554,3.36404682 C38.6747821,3.9802028 39.551727,4.40171026 40.491274,4.58958107 C40.6467044,4.62261434 40.8021348,4.64904096 40.9476442,4.66886092 C41.3496338,4.72471789 41.755709,4.74571732 42.1613241,4.73162413 L42.1613241,4.73162413 Z" id="Path" fill="#0C0853" fill-rule="nonzero"></path>
                            <path d="M42.2142366,4.7283208 L42.7731247,4.6787709 C42.5878589,4.70533772 42.4012905,4.7218785 42.2142366,4.7283208 Z" id="Path" fill="#0C0853" fill-rule="nonzero"></path>
                            <path d="M47.1384041,3.35744016 C47.1384041,3.35744016 46.6059723,4.75805074 40.5011951,4.58958107 C41.5787063,4.56985731 42.6051345,4.12723113 43.3584689,3.35744016 L47.1384041,3.35744016 Z" id="Path" stroke="#0C0853" stroke-width="0.5"></path>
                            <path d="M31.9227596,0.0210800599 C31.7214085,0.034821513 31.5252744,0.091118763 31.3473364,0.186246402 C30.5816894,0.575365881 29.9308439,1.15716913 29.4590223,1.87424642 C29.4590223,1.87424642 26.8133984,2.31358888 25.7816051,4.59618773 C25.7816051,4.61931102 25.7584558,4.6424343 25.7485348,4.66886092 L25.6261747,4.56315446 L24.6109165,3.71419946 L24.5679251,3.67786287 C24.5679251,3.67786287 25.4575161,0.374536031 28.0535346,0.143303153 C29.3387588,0.0112004134 30.6317472,-0.0296431794 31.9227596,0.0210800599 L31.9227596,0.0210800599 Z" id="Path" fill="#0C0853" fill-rule="nonzero"></path>
                            <path d="M33.4175371,1.80487655 C33.4175371,1.75202332 33.4010019,1.69917009 33.3910808,1.64631686 C33.189352,0.582645622 32.4551914,0.0508100014 31.3473364,0.179639748 C31.0594746,0.216294916 30.7766193,0.284990559 30.5040437,0.384446012" id="Path" stroke="#0C0853" stroke-width="0.5"></path>
                        </g>
                        <path d="M69.1830654,32.5873192 L70.3802102,32.554286 L70.3041485,35.8278829 L69.9734455,35.768423 L69.913919,35.6561099 L69.913919,35.3687204 C69.913919,35.3687204 69.913919,35.0383878 69.913919,35.0152645 C69.913919,34.9921412 69.8874628,34.6089553 69.8874628,34.595742 C69.8874628,34.5825287 69.8213222,34.1134562 69.8213222,34.1134562 L69.6162863,33.4924308 C69.6162863,33.4924308 69.3186536,32.9903251 69.3021185,32.9539885 C69.2855833,32.9176519 69.1533021,32.6236558 69.1533021,32.6236558 L69.1830654,32.5873192 Z" id="Path" stroke="none" fill="#FFFFFF" fill-rule="nonzero"></path>
                        <path d="M58.524508,47.1748106 L57.8631021,49.3880395 L57.0098883,51.7697382 L56.5998166,52.4601335 L56.3716316,52.6550298 L55.6870764,52.7805562 L55.0521266,52.7508263 L54.7214237,52.6120865 L53.878131,51.9514212 L52.8860221,50.5342939 L49.1325431,43.5642743 C49.1325431,43.5642743 47.5881602,43.2702782 46.8176222,42.3189201 C46.2038256,41.6165761 45.5226322,40.9759755 44.7837988,40.4062939 L43.9901117,39.3095894 C43.9901117,39.3095894 43.7916899,38.8999768 44.2216037,38.9594367 L45.6006352,40.1056911 L46.1429881,40.3732606 L45.4518189,39.639922 L44.7904129,38.7546304 L44.3836482,37.809879 C44.3836482,37.809879 44.5159294,37.3639298 44.8896238,37.7305991 L45.0847385,38.0080786 L45.3658361,38.4639377 L46.0272421,39.0552332 L46.6192004,39.478059 L46.3976294,39.0552332 L45.1971776,37.132697 L45.0913526,36.779241 L45.1244229,36.6371979 L45.2600111,36.6140747 L45.4253626,36.6140747 L45.574179,36.6900512 C45.574179,36.6900512 45.7296094,36.8188809 45.7461445,36.8387009 C45.7626797,36.8585208 45.8585835,36.9576206 45.8916538,37.0038672 C45.9247241,37.0501138 46.0735405,37.2582234 46.1132248,37.3341999 L46.5398317,37.9651353 L47.0458073,38.6258007 L47.3169837,38.9098868 L47.4922563,38.9528301 L46.7018762,37.6579259 L46.348024,36.8750375 L46.2521201,36.4224817 C46.2521201,36.4224817 46.2686553,36.1714289 46.5563669,36.2705287 L46.8705347,36.6008613 L47.4327298,37.4894563 L47.6708359,37.9089788 L48.1635834,38.5167909 L48.6364887,39.1179964 L48.9043581,39.336016 L48.9473495,38.2194915 L49.0002619,37.5588261 L49.1457713,37.3275933 L49.2945876,37.30447 L49.3971055,37.3507165 L49.4963164,37.4630297 L49.55915,37.6050727 L49.6252906,37.9354054 L49.8567827,39.0155933 L50.2403982,39.7357185 L50.3859075,40.1255111 L50.4950395,41.1528457 L50.5777152,41.8135111 L50.7066894,42.4741765 L54.5263089,47.4291667 L54.7974853,47.6769162 C54.7974853,47.6769162 55.2108641,45.6949201 55.313382,45.6189436 C55.4158999,45.5429671 57.6415311,46.3357655 58.524508,47.1748106 Z" id="Path" stroke="none" fill="#FFFFFF" fill-rule="nonzero"></path>
                        <polyline id="Path" stroke="#0C0853" stroke-width="0.5" fill="none" points="69.0507842 32.5906226 70.4695 32.5476793 70.4562719 35.8014563 69.9436823 35.8014563"></polyline>
                        <path d="M70.6117023,41.2717655 L70.4198946,53.7054877 C68.366229,53.1868654 66.924364,50.4715307 64.7483383,48.3309749 C62.5723126,46.1904192 60.6443142,44.9648849 60.2210144,44.9648849 C59.7977145,44.9648849 59.3678007,47.4688066 59.2818179,47.9378791 C59.2923018,47.962122 59.2923018,47.9896126 59.2818179,48.0138556 C59.2123703,48.1162587 58.8849743,48.0667088 58.3194722,47.8123526 C58.4021479,47.4820199 58.4616745,47.2573937 58.4947448,47.1516873 C58.1171834,46.8869129 57.7252533,46.6431957 57.3207492,46.421652 C55.2406274,45.2621843 54.87024,45.7609867 54.8173275,45.8666931 C54.9066173,45.5363604 56.1732098,40.8555463 56.4443862,40.3138007 C56.7155627,39.7720551 57.9887692,38.4540277 57.9887692,38.4540277 L58.1309715,37.9651353 C58.1911111,37.9951274 58.2529468,38.0215987 58.3161652,38.0444152 C58.3161652,37.3837498 57.6249959,36.3233819 57.6249959,36.3233819 C57.2083101,36.4984582 56.8081595,36.6338946 56.5865885,36.7263878 C56.1075356,36.9740715 55.5623907,37.0642492 55.0289774,36.9840473 C54.3874136,36.8882508 54.1294653,35.2068574 53.9178154,34.2257694 C53.7061655,33.2446813 53.987263,33.1720081 54.0335614,32.7987322 C54.051276,32.5548157 54.0390596,32.3096507 53.9971841,32.0686969 C53.9674208,31.8242507 53.9277365,31.5897145 53.9178154,31.4080316 C53.9279121,31.2161663 53.9623603,31.0263583 54.0203333,30.8431627 C53.693852,30.1940111 53.7630064,29.4162552 54.1989129,28.83474 C54.9463017,27.8437419 54.2220621,27.6455423 55.5779444,27.0839767 C56.9338267,26.5224112 58.5741135,26.4233114 59.953145,27.2458397 C61.3321764,28.0683681 62.0365738,29.4425521 61.9671262,30.6812997 C61.8976785,31.9200472 61.2726499,34.2158594 60.730297,34.7972449 C60.9140411,35.0213153 61.1276815,35.219156 61.3652467,35.3852371 C61.3420975,35.2795306 61.3222553,35.2167674 61.3222553,35.2167674 L61.8480731,35.0780277 C61.8480731,35.0780277 64.377951,33.8491901 65.0095937,33.3602977 C65.6412364,32.8714054 68.8688975,32.3692997 68.8688975,32.3692997 C68.9350381,32.4386695 68.9978717,32.5080394 69.0607053,32.5807126 C69.6526636,33.241378 70.1421041,34.1299729 69.8874628,36.121879 C69.8874628,36.121879 68.1611932,36.7495111 67.7511214,37.3176833 C68.0222979,37.7471158 68.3563079,38.2822547 68.693625,38.8570336 C69.4806981,40.2213076 70.1553322,40.994286 70.6117023,41.2717655 Z" id="Path" stroke="none" fill="#FFFFFF" fill-rule="nonzero"></path>
                        <path d="M67.7147441,37.3573232 L67.7378933,37.3275933 C68.147965,36.759421 69.8742346,36.1317889 69.8742346,36.1317889 C70.1288759,34.1497928 69.6394355,33.2611979 69.0474772,32.5906226 C68.9846436,32.5179494 68.92181,32.4485795 68.8556694,32.3792097 C68.8556694,32.3792097 65.6280083,32.8714054 64.9963655,33.3702077 C64.3647228,33.8690101 61.834845,35.0879377 61.834845,35.0879377 L61.3090272,35.2266774 C61.3090272,35.2266774 61.3288694,35.2894406 61.3520186,35.3951471 C61.4346943,35.7882429 61.5768966,36.7759377 60.9948594,37.3308966 C60.293769,37.9915619 59.4372483,38.5035776 58.302937,38.0444152 L58.302937,38.0444152 C58.2397187,38.0215987 58.177883,37.9951274 58.1177434,37.9651353 L57.9755411,38.4540277 C57.9755411,38.4540277 56.7122557,39.7522352 56.4311581,40.3138007 C56.1500606,40.8753663 54.8933892,45.5264505 54.8040994,45.8666931" id="Path" stroke="#0C0853" stroke-width="0.5" fill="none"></path>
                        <path d="M54.7875643,45.8766031 L54.7875643,45.8766031 L54.7875643,45.8766031 C54.7875643,45.8766031 54.7875643,45.8766031 54.7875643,45.8766031 C54.8404767,45.76429 55.2108641,45.2720943 57.2909859,46.431562 C57.69549,46.6531057 58.0874202,46.8968229 58.4649815,47.1615972 C58.9775711,47.5249632 59.2388265,47.805746 59.2652827,47.957699 C59.2757666,47.981942 59.2757666,48.0094326 59.2652827,48.0336755 C59.1958351,48.1360787 58.8684391,48.0865288 58.302937,47.8321726 L58.302937,47.8321726" id="Path" stroke="#0C0853" stroke-width="0.5" fill="none"></path>
                        <path d="M67.0665663,36.3068653 C67.0665663,36.3068653 67.3410497,36.7098711 67.7279722,37.3275933 C67.9991487,37.7570257 68.3331587,38.2921647 68.6704758,38.8669436 C69.470777,40.2213076 70.1454111,40.994286 70.6017812,41.2717655 L70.4099735,53.7054877 C68.3563079,53.1868654 66.9144429,50.4715307 64.7384172,48.3309749 C62.5623915,46.1904192 60.6343931,44.9648849 60.2110933,44.9648849 C59.7877935,44.9648849 59.3578796,47.4688066 59.2718968,47.9378791 C59.2718968,47.987429 59.2718968,48.0138556 59.2718968,48.0138556" id="Path" stroke="#0C0853" stroke-width="0.5" fill="none"></path>
                        <line x1="55.2373203" y1="45.6618869" x2="54.7974853" y2="47.795836" id="Path" stroke="#0C0853" stroke-width="0.5" fill="#FFFFFF" fill-rule="nonzero"></line>
                        <path d="M55.6936904,48.6811276 C55.369245,48.4032873 55.071427,48.0958498 54.8040994,47.7628027 C53.4217609,46.1441726 51.1663665,43.0588653 50.885269,42.6855894 C50.5347238,42.2132136 50.5876363,41.863061 50.5181887,40.9348262 C50.5012879,40.349048 50.3114508,39.7813236 49.9725287,39.3029827 C49.780721,39.0056833 49.674896,38.2360081 49.5889133,37.7438124 C49.5029305,37.2516167 49.1854556,37.2351001 49.0597885,37.4134798 C48.9341213,37.5918594 48.9374284,38.2194915 48.9572706,38.5894641 C48.958496,38.8882908 48.9341559,39.1866756 48.8845159,39.4813624 C48.8845159,39.4813624 48.3256278,38.7116872 47.8924069,38.2393115 C47.459186,37.7669357 47.4360368,37.4332997 47.0689565,36.9179807 C46.7018762,36.4026617 46.4538489,36.1846422 46.2785763,36.3597185 C46.1033038,36.5347948 46.5431387,37.3936598 46.7878589,37.8825522 C47.0325792,38.3714445 47.7535117,39.2666461 47.3831243,39.0056833 C47.012737,38.7447205 46.4703841,37.9188888 46.0140139,37.2351001 C45.5576438,36.5513114 45.2269408,36.5347948 45.0847385,36.7263878 C44.9425363,36.9179807 45.577486,37.8660355 45.6469336,38.0047753 C45.7163813,38.143515 46.6688059,39.487969 46.7283324,39.5738555" id="Path" stroke="#0C0853" stroke-width="0.5" fill="none" stroke-linejoin="round"></path>
                        <path d="M46.7415605,39.5606422 L46.7415605,39.5606422 C46.6654988,39.5143956 45.4749681,38.7480238 45.2203268,38.2393115 C44.9656855,37.7305991 44.7308863,37.4332997 44.4861661,37.608376 C44.2414459,37.7834524 44.4497888,37.9387087 44.694509,38.5531275 C44.9392292,39.1675463 46.1661373,40.3798672 46.2818834,40.4954837" id="Path" stroke="#0C0853" stroke-width="0.5" fill="none" stroke-linejoin="round"></path>
                        <path d="M46.2884974,40.5153037 L46.2884974,40.5153037 C45.7909581,40.2474367 45.3241171,39.9262198 44.8962378,39.5573389 C44.4564029,39.1179964 44.1223928,38.800877 43.9636554,39.0486265 C43.804918,39.296376 44.5952981,40.0396246 44.6680528,40.2279142 C44.7408074,40.4162038 46.0536983,41.1165091 46.685341,42.1339338 C47.3169837,43.1513585 49.1424642,43.570881 49.1424642,43.570881 C49.1424642,43.570881 52.7801971,50.8613233 53.878131,51.9481178 C54.976065,53.0349124 55.422514,52.8268028 56.3021839,52.688063 C57.0264235,52.5724466 57.9193216,49.321973 58.3161652,47.8189593 C58.3988409,47.4886266 58.4583674,47.2640004 58.4914377,47.1582939" id="Path" stroke="#0C0853" stroke-width="0.5" fill="none" stroke-linejoin="round"></path>
                        <path d="M54.4204839,29.5416519 C54.4204839,29.5416519 55.3563734,29.7761881 55.7763662,29.5416519 C56.196359,29.3071157 56.2459644,29.3071157 56.642808,30.0338476 C57.0396516,30.7605795 57.5323991,31.685511 58.2334894,31.685511 C58.9345797,31.685511 59.0304836,31.8738006 59.0999312,32.3990296 C59.1693789,32.9242586 58.9345797,33.5089474 59.0999312,33.3669044 C59.2652827,33.2248613 59.8241708,31.4047282 60.2243214,31.4972214 C60.624472,31.5897145 60.9717102,31.8738006 60.7600602,32.6203525 C60.5484103,33.3669044 60.4095151,33.7666069 59.9200747,33.6708104" id="Path" stroke="#0C0853" stroke-width="0.5" fill="none"></path>
                        <path d="M59.1693789,35.2200707 C59.0238696,35.6528065 58.2897089,36.0326891 57.6117678,36.3134719 C57.195082,36.4885482 56.7949314,36.6239846 56.5733604,36.7164778 C56.0943075,36.9641615 55.5491626,37.0543392 55.0157493,36.9741373 C54.3741855,36.8783408 54.1162372,35.1969474 53.9045873,34.2158594 C53.6929374,33.2347713 53.9740349,33.1620981 54.0203333,32.7888222 C54.0380479,32.5449057 54.0258315,32.2997407 53.983956,32.0587869 C53.9541927,31.8143408 53.9145084,31.5798046 53.9045873,31.3981216 C53.9146839,31.2062563 53.9491321,31.0164484 54.0071052,30.8332527 C54.1592286,30.2683838 54.4204839,29.5284386 54.4204839,29.5284386" id="Path" stroke="#0C0853" stroke-width="0.5" fill="none"></path>
                        <path d="M58.302937,38.0378085 L58.302937,38.0378085 C58.302937,37.3771432 57.6117678,36.3167752 57.6117678,36.3167752" id="Path" stroke="#0C0853" stroke-width="0.5" fill="none"></path>
                        <path d="M60.293769,33.6542938 C60.3053745,34.0723764 60.4540913,34.475087 60.7170689,34.8005482 C60.9008129,35.0246186 61.1144534,35.2224593 61.3520186,35.3885404" id="Path" stroke="#0C0853" stroke-width="0.5" fill="none"></path>
                        <path d="M54.0071052,30.846466 C53.6806239,30.1973145 53.7497783,29.4195586 54.1856848,28.8380433 C54.9330736,27.8470452 54.208834,27.6488456 55.5647163,27.0872801 C56.9205985,26.5257145 58.5608854,26.4266147 59.9399168,27.2491431 C61.3189483,28.0716715 62.0233457,29.4458554 61.953898,30.684603 C61.8844504,31.9233505 61.2594218,34.2191627 60.7170689,34.8005482" id="Path" stroke="#0C0853" stroke-width="0.5" fill="none"></path>
                        <path d="M55.6870764,31.9530805 C55.9572832,31.7360447 56.3460425,31.7501144 56.5998166,31.9861138" id="Path" stroke="#0C0853" stroke-width="0.5" fill="none"></path>
                        <path d="M54.6354409,31.9861138 C54.6354409,31.9861138 54.205527,31.7581842 53.9740349,32.0786069" id="Path" stroke="#0C0853" stroke-width="0.5" fill="none"></path>
                        <path d="M54.9595298,32.6269592 C54.8505263,33.0471455 54.6507325,33.4383932 54.3741855,33.7732136 C54.1625356,33.9581999 53.9277365,34.2389827 54.3741855,34.3909357 C54.8206346,34.5428887 54.9000033,34.6023486 55.2736977,34.3909357" id="Path" stroke="#0C0853" stroke-width="0.5" fill="none"></path>
                        <path d="M55.0289774,35.3455972 C55.0289774,35.3455972 56.0012442,35.1639142 56.421237,34.5362821" id="Path" stroke="#0C0853" stroke-width="0.5" fill="none"></path>
                        <ellipse id="Oval" stroke="#0C0853" stroke-width="0.5" fill="none" cx="55.9951312" cy="32.8086421" rx="1" ry="1"></ellipse>
                        <ellipse id="Oval" stroke="#0C0853" stroke-width="0.5" fill="none" cx="54.31516" cy="32.8086421" rx="1" ry="1"></ellipse>
                        <path d="M68.9548803,22.7929552 C68.9548803,22.7929552 68.3860712,22.0199767 68.9548803,21.8449004 C69.5021629,21.7121362 70.065725,21.6587356 70.6282375,21.6863407 C71.0515373,21.6863407 71.8749877,21.4220745 71.9113651,21.6863407 C71.9477424,21.9506068 72.0337252,22.1124698 71.6302675,22.3040628 C71.2268099,22.4956558 70.1553322,22.6740354 70.138797,22.7434053 L68.9548803,22.7929552 Z" id="Path" stroke="none" fill="#FFFFFF" fill-rule="nonzero"></path>
                        <path d="M69.0077928,21.7127673 C68.8427715,21.571986 68.7637026,21.3551034 68.7994499,21.1412918 C68.7994499,20.9298788 69.1830654,20.8109591 69.3021185,20.8109591 C69.4211715,20.8109591 70.7406765,20.9001489 71.0912216,20.9265755 C71.3822403,20.9530021 71.8154612,21.1049552 71.5343636,21.4650178 L69.0077928,21.7127673 Z" id="Path" stroke="none" fill="#FFFFFF" fill-rule="nonzero"></path>
                        <g id="Group_17" stroke="none" stroke-width="1" fill="none" fill-rule="evenodd" transform="translate(24.630759, 0.000000)">
                            <path d="M42.3597459,-5.86788722e-16 L7.60616876,-5.86788722e-16 C3.40539775,-5.86788722e-16 -4.69957214e-15,3.40158454 -4.69957214e-15,7.59765172 L-4.69957214e-15,7.59765172 L-4.69957214e-15,83.5279224 C-4.69957214e-15,87.7239896 3.40539775,91.1255741 7.60616876,91.1255741 L42.3597459,91.1255741 C46.5605169,91.1255741 49.9659147,87.7239896 49.9659147,83.5279224 L49.9659147,7.59765172 C49.9659147,3.40158454 46.5605169,-5.86788722e-16 42.3597459,-5.86788722e-16 L42.3597459,-5.86788722e-16 M45.6171704,83.534529 C45.6171704,85.3320756 44.1593066,86.7897862 42.3597459,86.7916093 L7.60616876,86.7916093 C5.80919381,86.7825107 4.35830432,85.3229045 4.36196549,83.5279224 L4.36196549,83.5279224 L4.36196549,7.59765172 C4.36196549,5.80064034 5.82037103,4.34386975 7.61939688,4.34386975 L13.04954,4.34386975 C13.3377944,4.34299695 13.6145439,4.4567625 13.8186815,4.66005174 C14.0228191,4.86334098 14.1375541,5.139433 14.1375528,5.42736599 L14.1375528,5.42736599 C14.1375519,7.22491251 15.5954166,8.68262318 17.3949772,8.68444625 L32.6073148,8.68444625 C34.4063406,8.68444625 35.8647392,7.2276807 35.8647392,5.43066932 L35.8647392,5.43066932 C35.8647392,4.83044927 36.3518591,4.34386975 36.952752,4.34386975 L42.3828951,4.34386975 C44.1728741,4.35658153 45.6171704,5.80963195 45.6171704,7.59765172 L45.6171704,83.534529 Z" id="Path_11" fill="#FFFFFF" fill-rule="nonzero"></path>
                        </g>
                        <path d="M48.901051,32.3891196 C47.9327354,31.4843529 47.0827146,30.4610306 46.3711732,29.3434523 C45.8115095,28.4838922 45.421969,27.5251481 45.2236338,26.5191078 L34.2376805,26.5191078 C30.3649016,26.5053007 27.0251349,23.797701 26.214826,20.0148573 L25.9833339,18.6935266 C25.4762859,16.2793553 26.0857183,13.7654972 27.6422858,11.8504866 C29.1988533,9.93547595 31.5366956,8.82318598 34.0061884,8.82318598 L48.3355489,8.82318598 C52.2083279,8.8369931 55.5480945,11.5445929 56.3584035,15.3274365 L56.5898956,16.6487673 C57.0770988,18.9036861 56.5778129,21.2591189 55.2174781,23.1232879 C53.893395,24.9593159 51.8682721,26.1668123 49.6219836,26.459648 C49.3612388,28.3959097 49.1978868,30.3440167 49.1325431,32.2966265 C49.1324341,32.3503714 49.0997462,32.3986953 49.0498674,32.4188496 C49.0314123,32.4234647 49.0121029,32.4234647 48.9936479,32.4188496 C48.9603199,32.4195789 48.9277118,32.4091095 48.901051,32.3891196 L48.901051,32.3891196 Z" id="Path_4069" stroke="none" fill="#FFFFFF" fill-rule="nonzero" opacity="0.6"></path>
                        <path d="M46.7184113,30.2089239 C45.7558466,29.3044443 44.911395,28.2822481 44.2050686,27.1665599 C43.6429711,26.3067106 43.2522161,25.3466192 43.0542222,24.3389121 L32.0550408,24.3389121 C28.1814766,24.3304524 24.8393013,21.622276 24.0321862,17.8379649 L23.8006941,16.5166342 C23.2937648,14.1030291 23.9027877,11.589751 25.4586035,9.6748759 C27.0144193,7.76000081 29.3513282,6.64746959 31.8202416,6.6462936 L46.1496022,6.6462936 C50.0233832,6.66043672 53.3634948,9.36969134 54.1724567,13.1538475 L54.4039488,14.4751782 C54.8896896,16.727528 54.3917426,19.0799154 53.0348384,20.9430921 C51.7109415,22.7787667 49.6854871,23.9852649 47.4393438,24.2761489 C47.1798321,26.2124801 47.0175844,28.1605805 46.9532104,30.1131274 C46.9490845,30.1673178 46.9162991,30.2151813 46.8672277,30.2386539 C46.8486436,30.2420673 46.8295922,30.2420673 46.8110082,30.2386539 C46.7774411,30.241214 46.7442099,30.2305249 46.7184113,30.2089239 L46.7184113,30.2089239 Z" id="Path_4069-2" stroke="none" fill="#FFFFFF" fill-rule="nonzero"></path>
                        <path d="M31.2954453,14 L31.2954453,13.2939531 L31.5807656,13.2939531 L32.0039101,14 L32.3327538,14 L31.8334433,13.2177871 C32.0623443,13.1242923 32.1767949,12.9675273 32.1767949,12.7474922 C32.1767949,12.5750104 32.1219876,12.4460521 32.012373,12.3606172 C31.9027584,12.2751823 31.7339036,12.2324648 31.5058085,12.2324648 L31.5058085,12.2324648 L31.006498,12.2324648 L31.006498,14 L31.2954453,14 Z M31.4961367,13.0545742 L31.2954453,13.0545742 L31.2954453,12.4766797 L31.4864648,12.4766797 C31.6178411,12.4766797 31.7161718,12.4984414 31.781457,12.5419648 C31.8467421,12.5854883 31.8793847,12.6572214 31.8793847,12.7571641 C31.8793847,12.8554948 31.8491601,12.9296458 31.7887109,12.9796172 C31.7282617,13.0295885 31.6307369,13.0545742 31.4961367,13.0545742 L31.4961367,13.0545742 Z M33.1303934,14.0241797 C33.2214702,14.0241797 33.3024722,14.0173288 33.3733992,14.003627 C33.4443263,13.9899251 33.5144474,13.9665514 33.5837625,13.9335059 L33.5837625,13.9335059 L33.5837625,13.7025898 C33.5055815,13.7372474 33.432438,13.7620316 33.3643319,13.7769424 C33.2962257,13.7918532 33.2226792,13.7993086 33.1436922,13.7993086 C33.0235998,13.7993086 32.930508,13.7644495 32.8644168,13.6947314 C32.7983257,13.6250133 32.7632651,13.5252721 32.7592352,13.3955078 L32.7592352,13.3955078 L33.6502567,13.3955078 L33.6502567,13.2419668 C33.6502567,13.0541712 33.5990763,12.9066751 33.4967156,12.7994785 C33.394355,12.6922819 33.2549188,12.6386836 33.078407,12.6386836 C32.8881935,12.6386836 32.7386824,12.7011478 32.6298738,12.8260762 C32.5210653,12.9510046 32.466661,13.1226803 32.466661,13.3411035 C32.466661,13.5538848 32.5252967,13.7209261 32.6425682,13.8422275 C32.7598397,13.963529 32.9224481,14.0241797 33.1303934,14.0241797 Z M33.3709813,13.1899805 L32.7640711,13.1899805 C32.774549,13.0803659 32.8069901,12.996946 32.8613944,12.9397207 C32.9157986,12.8824954 32.9881362,12.8538828 33.078407,12.8538828 C33.1686779,12.8538828 33.239605,12.8822939 33.2911883,12.9391162 C33.3427716,12.9959385 33.3693693,13.0795599 33.3709813,13.1899805 L33.3709813,13.1899805 Z M34.317616,14 L34.317616,12.8780625 L34.6440418,12.8780625 L34.6440418,12.6628633 L34.317616,12.6628633 L34.317616,12.5758164 C34.317616,12.4960234 34.3323253,12.4361787 34.361744,12.3962822 C34.3911626,12.3563857 34.4381115,12.3364375 34.5025906,12.3364375 C34.5662638,12.3364375 34.633161,12.3477214 34.703282,12.3702891 L34.703282,12.3702891 L34.7782391,12.1550898 C34.6815203,12.1220443 34.5831896,12.1055215 34.4832469,12.1055215 C34.3309149,12.1055215 34.2176733,12.1436045 34.1435223,12.2197705 C34.0693712,12.2959365 34.0322957,12.4130065 34.0322957,12.5709805 L34.0322957,12.5709805 L34.0322957,12.6580273 L33.8122606,12.7450742 L33.8122606,12.8780625 L34.0322957,12.8780625 L34.0322957,14 L34.317616,14 Z M35.4552703,14.0241797 C35.5463472,14.0241797 35.6273491,14.0173288 35.6982762,14.003627 C35.7692033,13.9899251 35.8393244,13.9665514 35.9086395,13.9335059 L35.9086395,13.9335059 L35.9086395,13.7025898 C35.8304585,13.7372474 35.7573149,13.7620316 35.6892088,13.7769424 C35.6211027,13.7918532 35.5475561,13.7993086 35.4685692,13.7993086 C35.3484767,13.7993086 35.2553849,13.7644495 35.1892938,13.6947314 C35.1232026,13.6250133 35.0881421,13.5252721 35.0841121,13.3955078 L35.0841121,13.3955078 L35.9751336,13.3955078 L35.9751336,13.2419668 C35.9751336,13.0541712 35.9239533,12.9066751 35.8215926,12.7994785 C35.7192319,12.6922819 35.5797957,12.6386836 35.403284,12.6386836 C35.2130705,12.6386836 35.0635594,12.7011478 34.9547508,12.8260762 C34.8459422,12.9510046 34.7915379,13.1226803 34.7915379,13.3411035 C34.7915379,13.5538848 34.8501736,13.7209261 34.9674451,13.8422275 C35.0847166,13.963529 35.247325,14.0241797 35.4552703,14.0241797 Z M35.6958582,13.1899805 L35.0889481,13.1899805 C35.0994259,13.0803659 35.131867,12.996946 35.1862713,12.9397207 C35.2406756,12.8824954 35.3130132,12.8538828 35.403284,12.8538828 C35.4935548,12.8538828 35.5644819,12.8822939 35.6160653,12.9391162 C35.6676486,12.9959385 35.6942462,13.0795599 35.6958582,13.1899805 L35.6958582,13.1899805 Z M36.5820438,14 L36.5820438,13.301207 C36.5820438,13.1827266 36.6173058,13.0864108 36.6878299,13.0122598 C36.758354,12.9381087 36.8504383,12.9010332 36.9640828,12.9010332 C37.0076063,12.9010332 37.0495177,12.9058691 37.0898172,12.915541 L37.0898172,12.915541 L37.1176238,12.6507734 C37.0805483,12.6427135 37.0333979,12.6386836 36.9761727,12.6386836 C36.8939617,12.6386836 36.8171912,12.6620573 36.7458611,12.7088047 C36.6745311,12.7555521 36.6167013,12.8188223 36.5723719,12.8986152 L36.5723719,12.8986152 L36.5578641,12.8986152 L36.5203856,12.6628633 L36.2979324,12.6628633 L36.2979324,14 L36.5820438,14 Z M38.5164188,14.0241797 C38.6292573,14.0241797 38.7322225,14.0074554 38.8253143,13.9740068 C38.9184061,13.9405583 39.0060574,13.8907884 39.0882684,13.8246973 L39.0882684,13.8246973 L39.268407,14 L39.6347293,14 L39.270825,13.6481855 C39.3949474,13.5039134 39.4852182,13.3173268 39.5416375,13.0884258 L39.5416375,13.0884258 L39.2490633,13.0884258 C39.2055399,13.2552656 39.1511356,13.381806 39.0858504,13.4680469 L39.0858504,13.4680469 L38.6675418,13.0642461 C38.7948882,12.9892891 38.8857635,12.914332 38.9401678,12.839375 C38.9945721,12.764418 39.0217742,12.680998 39.0217742,12.5891152 C39.0217742,12.4722467 38.9810718,12.3793564 38.8996668,12.3104443 C38.8182619,12.2415322 38.7062293,12.2070762 38.5635692,12.2070762 C38.4160731,12.2070762 38.2986001,12.2425397 38.2111502,12.3134668 C38.1237003,12.3843939 38.0799754,12.4811126 38.0799754,12.603623 C38.0799754,12.6697142 38.0938787,12.7335889 38.1216854,12.7952471 C38.149492,12.8569053 38.2016798,12.9324668 38.2782488,13.0219316 C38.1436486,13.0993066 38.0505568,13.1772861 37.9989735,13.2558701 C37.9473901,13.3344541 37.9215985,13.4265384 37.9215985,13.532123 C37.9215985,13.6844551 37.9743908,13.8045475 38.0799754,13.8924004 C38.18556,13.9802533 38.3310412,14.0241797 38.5164188,14.0241797 Z M38.5043289,12.9010332 C38.4559695,12.8502559 38.4182895,12.8022995 38.3912889,12.7571641 C38.3642882,12.7120286 38.3507879,12.6640723 38.3507879,12.6132949 C38.3507879,12.5584876 38.3695272,12.5147627 38.4070057,12.4821201 C38.4444842,12.4494775 38.49506,12.4331562 38.5587332,12.4331562 C38.6167645,12.4331562 38.6633104,12.448873 38.6983709,12.4803066 C38.7334315,12.5117402 38.7509617,12.5536517 38.7509617,12.606041 C38.7509617,12.6616543 38.7326255,12.7118271 38.6959529,12.7565596 C38.6592804,12.801292 38.5954057,12.8494499 38.5043289,12.9010332 Z M38.5309266,13.7799648 C38.4366258,13.7799648 38.3614673,13.7551807 38.305451,13.7056123 C38.2494347,13.6560439 38.2214266,13.5917663 38.2214266,13.5127793 C38.2214266,13.4515241 38.2375464,13.3969183 38.269786,13.3489619 C38.3020255,13.3010055 38.3608628,13.2496237 38.4462977,13.1948164 L38.4462977,13.1948164 L38.9093387,13.6506035 C38.80456,13.7368444 38.6784227,13.7799648 38.5309266,13.7799648 Z M41.5147,14 L41.5147,13.7545762 L40.8038172,13.7545762 L40.8038172,13.1996523 L41.4699676,13.1996523 L41.4699676,12.9578555 L40.8038172,12.9578555 L40.8038172,12.4766797 L41.5147,12.4766797 L41.5147,12.2324648 L40.5148699,12.2324648 L40.5148699,14 L41.5147,14 Z M42.1905223,14.0241797 C42.292883,14.0241797 42.3767059,14.0094704 42.441991,13.9800518 C42.5072762,13.9506331 42.5721583,13.8952214 42.6366375,13.8138164 L42.6366375,13.8138164 L42.6463094,13.8138164 L42.7031317,14 L42.906241,14 L42.906241,13.0993066 C42.906241,12.9405267 42.8629191,12.8240612 42.7762752,12.7499102 C42.6896313,12.6757591 42.5612775,12.6386836 42.3912137,12.6386836 C42.3146447,12.6386836 42.2332397,12.648557 42.1469988,12.6683037 C42.060758,12.6880505 41.981368,12.7168646 41.9088289,12.7547461 L41.9088289,12.7547461 L42.0007117,12.9578555 C42.058743,12.9304518 42.1191922,12.9066751 42.1820594,12.8865254 C42.2449266,12.8663757 42.3106147,12.8563008 42.3791238,12.8563008 C42.4629468,12.8563008 42.5248065,12.877458 42.5647029,12.9197725 C42.6045994,12.9620869 42.6245477,13.0259616 42.6245477,13.1113965 L42.6245477,13.1113965 L42.6245477,13.1827266 L42.3936317,13.1899805 C42.1840744,13.1964284 42.0281154,13.2347129 41.9257547,13.304834 C41.823394,13.3749551 41.7722137,13.4789277 41.7722137,13.616752 C41.7722137,13.7465163 41.8090877,13.846862 41.8828358,13.9177891 C41.9565838,13.9887161 42.059146,14.0241797 42.1905223,14.0241797 Z M42.2799871,13.8065625 C42.20906,13.8065625 42.1558647,13.7902412 42.1204012,13.7575986 C42.0849376,13.7249561 42.0672059,13.6788132 42.0672059,13.6191699 C42.0672059,13.536959 42.097632,13.4759053 42.1584842,13.4360088 C42.2193364,13.3961123 42.3166597,13.3737461 42.4504539,13.3689102 L42.4504539,13.3689102 L42.6221297,13.3616562 L42.6221297,13.4777188 C42.6221297,13.5816914 42.5908976,13.6624919 42.5284334,13.7201201 C42.4659692,13.7777484 42.3831538,13.8065625 42.2799871,13.8065625 Z M43.5868992,14 L43.5868992,13.301207 C43.5868992,13.1827266 43.6221613,13.0864108 43.6926854,13.0122598 C43.7632095,12.9381087 43.8552938,12.9010332 43.9689383,12.9010332 C44.0124617,12.9010332 44.0543732,12.9058691 44.0946727,12.915541 L44.0946727,12.915541 L44.1224793,12.6507734 C44.0854038,12.6427135 44.0382534,12.6386836 43.9810281,12.6386836 C43.8988172,12.6386836 43.8220467,12.6620573 43.7507166,12.7088047 C43.6793865,12.7555521 43.6215568,12.8188223 43.5772274,12.8986152 L43.5772274,12.8986152 L43.5627195,12.8986152 L43.525241,12.6628633 L43.3027879,12.6628633 L43.3027879,14 L43.5868992,14 Z M44.6544324,14 L44.6544324,13.3338496 C44.6544324,13.1670098 44.6822391,13.0481263 44.7378524,12.9771992 C44.7934656,12.9062721 44.8813185,12.8708086 45.001411,12.8708086 C45.0916818,12.8708086 45.1575714,12.8961973 45.1990799,12.9469746 C45.2405884,12.997752 45.2613426,13.074724 45.2613426,13.1778906 L45.2613426,13.1778906 L45.2613426,14 L45.5466629,14 L45.5466629,13.1283223 C45.5466629,12.8018965 45.386271,12.6386836 45.0654871,12.6386836 C44.9752163,12.6386836 44.8930054,12.6560124 44.8188543,12.6906699 C44.7447033,12.7253275 44.687478,12.7744928 44.6471785,12.838166 L44.6471785,12.838166 L44.6326707,12.838166 L44.5927742,12.6628633 L44.3703211,12.6628633 L44.3703211,14 L44.6544324,14 Z" id="Refer&amp;Earn" stroke="none" fill="#19184A" fill-rule="nonzero"></path>
                        <path d="M28.6069102,18.1953797 C28.8245273,18.1953797 28.9923747,18.1423859 29.1104521,18.0363982 C29.2285296,17.9304106 29.2875684,17.783116 29.2875684,17.5945145 C29.2875684,17.4317046 29.235582,17.3031492 29.1316094,17.2088484 C29.0276367,17.1145477 28.8865885,17.0673973 28.7084648,17.0673973 C28.6496276,17.0673973 28.5998577,17.0706212 28.5591553,17.0770691 C28.5184528,17.0835171 28.4839967,17.089159 28.4557871,17.0939949 L28.4557871,17.0939949 L28.4956836,16.6563426 L29.164252,16.6563426 L29.164252,16.4036648 L28.2454238,16.4036648 L28.1777207,17.2668797 L28.3046641,17.3418367 C28.3465755,17.3321648 28.3953379,17.3235005 28.4509512,17.3158436 C28.5065645,17.3081867 28.5533118,17.3043582 28.5911934,17.3043582 C28.8603939,17.3043582 28.9949941,17.4099428 28.9949941,17.6211121 C28.9949941,17.7315327 28.9615456,17.8153556 28.8946484,17.8725809 C28.8277513,17.9298061 28.7302266,17.9584187 28.6020742,17.9584187 C28.5295352,17.9584187 28.4509512,17.9483439 28.3663223,17.9281941 C28.2816934,17.9080444 28.2067363,17.8794318 28.1414512,17.8423562 L28.1414512,17.8423562 L28.1414512,18.0998699 C28.2542897,18.1635431 28.4094427,18.1953797 28.6069102,18.1953797 Z M29.6835194,18.4903719 C29.7866861,18.2542169 29.8576132,18.0611824 29.8963007,17.9112684 L29.8963007,17.9112684 L29.8781659,17.8834617 L29.5988905,17.8834617 C29.5714869,18.0704513 29.5299784,18.2727547 29.4743652,18.4903719 L29.4743652,18.4903719 L29.6835194,18.4903719 Z M30.7410481,18.1953797 C30.9441574,18.1953797 31.095079,18.1208257 31.1938127,17.9717176 C31.2925464,17.8226095 31.3419133,17.5945145 31.3419133,17.2874324 C31.3419133,16.9892163 31.291136,16.7627332 31.1895813,16.6079832 C31.0880266,16.4532332 30.9385155,16.3758582 30.7410481,16.3758582 C30.5387447,16.3758582 30.3882261,16.4498077 30.2894924,16.5977068 C30.1907587,16.7456059 30.1413918,16.9755145 30.1413918,17.2874324 C30.1413918,17.5848426 30.1921692,17.8105197 30.2937238,17.9644637 C30.3952785,18.1184077 30.5443866,18.1953797 30.7410481,18.1953797 Z M30.7410481,17.9584187 C30.6322395,17.9584187 30.553051,17.9068354 30.5034826,17.8036687 C30.4539143,17.7005021 30.4291301,17.5284233 30.4291301,17.2874324 C30.4291301,17.0464415 30.4539143,16.8739598 30.5034826,16.7699871 C30.553051,16.6660145 30.6322395,16.6140281 30.7410481,16.6140281 C30.8498567,16.6140281 30.9294481,16.6670219 30.9798225,16.7730096 C31.0301968,16.8789972 31.055384,17.0504715 31.055384,17.2874324 C31.055384,17.5251993 31.0301968,17.6964721 30.9798225,17.8012508 C30.9294481,17.9060294 30.8498567,17.9584187 30.7410481,17.9584187 Z M32.1543508,18.1953797 C32.3574602,18.1953797 32.5083817,18.1208257 32.6071154,17.9717176 C32.7058492,17.8226095 32.755216,17.5945145 32.755216,17.2874324 C32.755216,16.9892163 32.7044387,16.7627332 32.602884,16.6079832 C32.5013293,16.4532332 32.3518182,16.3758582 32.1543508,16.3758582 C31.9520474,16.3758582 31.8015289,16.4498077 31.7027951,16.5977068 C31.6040614,16.7456059 31.5546945,16.9755145 31.5546945,17.2874324 C31.5546945,17.5848426 31.6054719,17.8105197 31.7070266,17.9644637 C31.8085813,18.1184077 31.9576893,18.1953797 32.1543508,18.1953797 Z M32.1543508,17.9584187 C32.0455422,17.9584187 31.9663537,17.9068354 31.9167854,17.8036687 C31.867217,17.7005021 31.8424328,17.5284233 31.8424328,17.2874324 C31.8424328,17.0464415 31.867217,16.8739598 31.9167854,16.7699871 C31.9663537,16.6660145 32.0455422,16.6140281 32.1543508,16.6140281 C32.2631594,16.6140281 32.3427509,16.6670219 32.3931252,16.7730096 C32.4434996,16.8789972 32.4686867,17.0504715 32.4686867,17.2874324 C32.4686867,17.5251993 32.4434996,17.6964721 32.3931252,17.8012508 C32.3427509,17.9060294 32.2631594,17.9584187 32.1543508,17.9584187 Z M33.5676535,18.1953797 C33.7707629,18.1953797 33.9216845,18.1208257 34.0204182,17.9717176 C34.1191519,17.8226095 34.1685188,17.5945145 34.1685188,17.2874324 C34.1685188,16.9892163 34.1177414,16.7627332 34.0161867,16.6079832 C33.914632,16.4532332 33.765121,16.3758582 33.5676535,16.3758582 C33.3653501,16.3758582 33.2148316,16.4498077 33.1160979,16.5977068 C33.0173641,16.7456059 32.9679973,16.9755145 32.9679973,17.2874324 C32.9679973,17.5848426 33.0187746,17.8105197 33.1203293,17.9644637 C33.221884,18.1184077 33.3709921,18.1953797 33.5676535,18.1953797 Z M33.5676535,17.9584187 C33.4588449,17.9584187 33.3796565,17.9068354 33.3300881,17.8036687 C33.2805197,17.7005021 33.2557356,17.5284233 33.2557356,17.2874324 C33.2557356,17.0464415 33.2805197,16.8739598 33.3300881,16.7699871 C33.3796565,16.6660145 33.4588449,16.6140281 33.5676535,16.6140281 C33.6764621,16.6140281 33.7560536,16.6670219 33.8064279,16.7730096 C33.8568023,16.8789972 33.8819895,17.0504715 33.8819895,17.2874324 C33.8819895,17.5251993 33.8568023,17.6964721 33.8064279,17.8012508 C33.7560536,17.9060294 33.6764621,17.9584187 33.5676535,17.9584187 Z M35.7619602,18.1712 L35.7619602,16.6515066 L36.2818235,16.6515066 L36.2818235,16.4036648 L34.9531496,16.4036648 L34.9531496,16.6515066 L35.4730129,16.6515066 L35.4730129,18.1712 L35.7619602,18.1712 Z M36.7015345,18.1953797 C36.9014199,18.1953797 37.0573789,18.1341245 37.1694114,18.0116141 C37.281444,17.8891036 37.3374602,17.7186368 37.3374602,17.5002137 C37.3374602,17.2890444 37.281041,17.1211971 37.1682024,16.9966717 C37.0553639,16.8721463 36.9022259,16.8098836 36.7087884,16.8098836 C36.506485,16.8098836 36.34972,16.8707358 36.2384935,16.9924402 C36.1272669,17.1141447 36.0716536,17.2834025 36.0716536,17.5002137 C36.0716536,17.6396499 36.0974453,17.7621603 36.1490286,17.8677449 C36.2006119,17.9733296 36.27436,18.0543315 36.3702727,18.1107508 C36.4661855,18.1671701 36.5766061,18.1953797 36.7015345,18.1953797 Z M36.7063704,17.9632547 C36.4782754,17.9632547 36.3642278,17.8089077 36.3642278,17.5002137 C36.3642278,17.3527176 36.391027,17.239476 36.4446253,17.1604891 C36.4982236,17.0815021 36.584666,17.0420086 36.7039524,17.0420086 C36.9312415,17.0420086 37.044886,17.1947436 37.044886,17.5002137 C37.044886,17.8089077 36.9320475,17.9632547 36.7063704,17.9632547 Z M38.134181,18.1953797 C38.2276757,18.1953797 38.3108942,18.1776479 38.3838362,18.1421844 C38.4567783,18.1067208 38.5129961,18.0579585 38.5524895,17.9958973 L38.5524895,17.9958973 L38.5669974,17.9958973 L38.6068938,18.1712 L38.830556,18.1712 L38.830556,16.8340633 L38.5452356,16.8340633 L38.5452356,17.5002137 C38.5452356,17.6678595 38.5172275,17.7873475 38.4612112,17.8586775 C38.405195,17.9300076 38.3175436,17.9656727 38.1982571,17.9656727 C38.1087923,17.9656727 38.0431041,17.9400825 38.0011927,17.8889021 C37.9592812,17.8377218 37.9383255,17.7609513 37.9383255,17.6585906 L37.9383255,17.6585906 L37.9383255,16.8340633 L37.6517962,16.8340633 L37.6517962,17.708159 C37.6517962,17.8717749 37.6916927,17.9938823 37.7714856,18.0744812 C37.8512786,18.1550802 37.972177,18.1953797 38.134181,18.1953797 Z M39.7747727,18.1953797 C39.8569837,18.1953797 39.9269033,18.1889318 39.9845315,18.1760359 C40.0421598,18.1631401 40.0963626,18.1417814 40.1471399,18.1119598 L40.1471399,18.1119598 L40.1471399,17.864118 C40.0343014,17.9269852 39.9146119,17.9584187 39.7880716,17.9584187 C39.676845,17.9584187 39.5924176,17.9207387 39.5347894,17.8453787 C39.4771611,17.7700187 39.448347,17.6573816 39.448347,17.5074676 C39.448347,17.2003855 39.5640065,17.0468445 39.7953255,17.0468445 C39.8735065,17.0468445 39.9726432,17.0702182 40.0927356,17.1169656 L40.0927356,17.1169656 L40.1785735,16.8884676 C40.065735,16.8360783 39.9387916,16.8098836 39.7977435,16.8098836 C39.5897981,16.8098836 39.4308167,16.8703328 39.3207991,16.9912312 C39.2107815,17.1121297 39.1557727,17.2850145 39.1557727,17.5098855 C39.1557727,17.7307267 39.2083636,17.900186 39.3135452,18.0182635 C39.4187269,18.136341 39.5724694,18.1953797 39.7747727,18.1953797 Z M40.7455872,18.1712 L40.7455872,17.5074676 C40.7455872,17.3398217 40.7735953,17.2203338 40.8296116,17.1490037 C40.8856279,17.0776736 40.9732793,17.0420086 41.0925657,17.0420086 C41.1828366,17.0420086 41.2487262,17.0673973 41.2902347,17.1181746 C41.3317431,17.168952 41.3524974,17.245924 41.3524974,17.3490906 L41.3524974,17.3490906 L41.3524974,18.1712 L41.6378177,18.1712 L41.6378177,17.2995223 C41.6378177,16.9730965 41.4758138,16.8098836 41.151806,16.8098836 C41.0599231,16.8098836 40.9795257,16.8276154 40.9106136,16.8630789 C40.8417015,16.8985424 40.7879017,16.9485138 40.7492142,17.012993 L40.7492142,17.012993 L40.7310794,17.012993 C40.7407513,16.9259461 40.7455872,16.8441382 40.7455872,16.7675691 L40.7455872,16.7675691 L40.7455872,16.2900203 L40.4614759,16.2900203 L40.4614759,18.1712 L40.7455872,18.1712 Z M42.3523274,18.1712 L42.3523274,17.5098855 L42.5360931,17.5098855 C42.7593522,17.5098855 42.931431,17.4607202 43.0523294,17.3623895 C43.1732278,17.2640587 43.233677,17.1226076 43.233677,16.9380359 C43.233677,16.7623302 43.1786683,16.6293419 43.0686507,16.5390711 C42.9586331,16.4488003 42.7932037,16.4036648 42.5723626,16.4036648 L42.5723626,16.4036648 L42.0633802,16.4036648 L42.0633802,18.1712 L42.3523274,18.1712 Z M42.5058685,17.2668797 L42.3523274,17.2668797 L42.3523274,16.6454617 L42.5530188,16.6454617 C42.6843951,16.6454617 42.7811139,16.6704474 42.8431751,16.7204187 C42.9052363,16.7703901 42.9362669,16.8461531 42.9362669,16.9477078 C42.9362669,17.0573224 42.9016093,17.1379214 42.8322942,17.1895047 C42.7629791,17.241088 42.6541705,17.2668797 42.5058685,17.2668797 L42.5058685,17.2668797 Z M44.1065638,18.1953797 C44.3064492,18.1953797 44.4624082,18.1341245 44.5744407,18.0116141 C44.6864733,17.8891036 44.7424895,17.7186368 44.7424895,17.5002137 C44.7424895,17.2890444 44.6860703,17.1211971 44.5732317,16.9966717 C44.4603932,16.8721463 44.3072552,16.8098836 44.1138177,16.8098836 C43.9115143,16.8098836 43.7547493,16.8707358 43.6435228,16.9924402 C43.5322962,17.1141447 43.4766829,17.2834025 43.4766829,17.5002137 C43.4766829,17.6396499 43.5024746,17.7621603 43.5540579,17.8677449 C43.6056412,17.9733296 43.6793893,18.0543315 43.775302,18.1107508 C43.8712148,18.1671701 43.9816354,18.1953797 44.1065638,18.1953797 Z M44.1113997,17.9632547 C43.8833047,17.9632547 43.7692571,17.8089077 43.7692571,17.5002137 C43.7692571,17.3527176 43.7960563,17.239476 43.8496546,17.1604891 C43.9032529,17.0815021 43.9896953,17.0420086 44.1089817,17.0420086 C44.3362708,17.0420086 44.4499153,17.1947436 44.4499153,17.5002137 C44.4499153,17.8089077 44.3370768,17.9632547 44.1113997,17.9632547 Z M45.3530267,18.1712 L45.3530267,16.8340633 L45.0689153,16.8340633 L45.0689153,18.1712 L45.3530267,18.1712 Z M46.0433567,18.1712 L46.0433567,17.5050496 C46.0433567,17.3382098 46.0711634,17.2193263 46.1267767,17.1483992 C46.1823899,17.0774721 46.2702428,17.0420086 46.3903352,17.0420086 C46.4806061,17.0420086 46.5464957,17.0673973 46.5880042,17.1181746 C46.6295127,17.168952 46.6502669,17.245924 46.6502669,17.3490906 L46.6502669,17.3490906 L46.6502669,18.1712 L46.9355872,18.1712 L46.9355872,17.2995223 C46.9355872,16.9730965 46.7751953,16.8098836 46.4544114,16.8098836 C46.3641406,16.8098836 46.2819297,16.8272124 46.2077786,16.8618699 C46.1336276,16.8965275 46.0764023,16.9456928 46.0361028,17.009366 L46.0361028,17.009366 L46.021595,17.009366 L45.9816985,16.8340633 L45.7592454,16.8340633 L45.7592454,18.1712 L46.0433567,18.1712 Z M47.7613235,18.1953797 C47.8145188,18.1953797 47.8659007,18.1907452 47.915469,18.1814764 C47.9650374,18.1722075 48.0055384,18.1607221 48.036972,18.1470203 L48.036972,18.1470203 L48.036972,17.9330301 C47.9676569,17.9547918 47.8983418,17.9656727 47.8290267,17.9656727 C47.7734134,17.9656727 47.7284795,17.9493514 47.6942249,17.9167088 C47.6599703,17.8840662 47.6428431,17.8334904 47.6428431,17.7649812 L47.6428431,17.7649812 L47.6428431,17.0492625 L48.0236731,17.0492625 L48.0236731,16.8340633 L47.6428431,16.8340633 L47.6428431,16.5366531 L47.4675403,16.5366531 L47.3708216,16.8195555 L47.1749661,16.9235281 L47.1749661,17.0492625 L47.3575228,17.0492625 L47.3575228,17.7698172 C47.3575228,18.0535255 47.492123,18.1953797 47.7613235,18.1953797 Z M48.651136,18.1953797 C48.8284537,18.1953797 48.964666,18.1605206 49.0597728,18.0908025 C49.1548795,18.0210844 49.2024329,17.9209402 49.2024329,17.7903699 C49.2024329,17.7258908 49.1903431,17.670479 49.1661634,17.6241346 C49.1419837,17.5777902 49.1049082,17.5368862 49.0549368,17.5014227 C49.0049655,17.4659591 48.9247695,17.4268686 48.8143489,17.3841512 C48.6829726,17.3333738 48.5977392,17.2934773 48.5586487,17.2644617 C48.5195582,17.2354461 48.500013,17.1999826 48.500013,17.1580711 C48.500013,17.0726362 48.57497,17.0299187 48.7248841,17.0299187 C48.8232148,17.0299187 48.9445162,17.0597404 49.0887884,17.1193836 L49.0887884,17.1193836 L49.1806712,16.9053934 C49.040429,16.8417202 48.8917239,16.8098836 48.734556,16.8098836 C48.575776,16.8098836 48.4502431,16.8415187 48.3579573,16.9047889 C48.2656715,16.968059 48.2195286,17.0569194 48.2195286,17.1713699 C48.2195286,17.2664767 48.2467308,17.3438517 48.3011351,17.4034949 C48.3555394,17.4631382 48.4597135,17.5227814 48.6136575,17.5824246 C48.6926445,17.6130522 48.7543027,17.6404559 48.7986321,17.6646355 C48.8429616,17.6888152 48.8747981,17.7121889 48.8941419,17.7347566 C48.9134856,17.7573243 48.9231575,17.785534 48.9231575,17.8193855 C48.9231575,17.9249702 48.8357076,17.9777625 48.6608079,17.9777625 C48.5254017,17.9777625 48.3791145,17.941493 48.2219466,17.8689539 L48.2219466,17.8689539 L48.2219466,18.1143777 C48.3299492,18.168379 48.4730123,18.1953797 48.651136,18.1953797 Z" id="5,000TouchPoints" stroke="none" fill="#19184A" fill-rule="nonzero"></path>
                        <path d="M46.8110082,30.2287439 C46.8295922,30.2321573 46.8486436,30.2321573 46.8672277,30.2287439 C46.9172677,30.2064152 46.9505028,30.1578952 46.9532104,30.1032175 C47.0175844,28.1506706 47.1798321,26.2025701 47.4393438,24.2662389 C49.6871153,23.9729324 51.7128426,22.7626839 53.0348384,20.9232722 C54.3938364,19.0597687 54.8930402,16.7059246 54.4072558,14.4520549 L54.1757637,13.048141 C53.3654548,9.26529735 50.0256881,6.55769758 46.1529092,6.54389046 L31.8235487,6.54389046 C29.3540559,6.54389046 27.0162135,7.65618043 25.459646,9.57119104 C23.9030785,11.4862016 23.2936462,14.0000598 23.8006941,16.4142311 L24.0321862,17.818145 C24.8399634,21.6011703 28.1793026,24.3095399 32.0517337,24.3223955 L43.037687,24.3223955 C43.2407519,25.3302568 43.6371675,26.2893383 44.2050686,27.1467399 C44.9154416,28.2642304 45.7643582,29.2875612 46.7316394,30.1924073 C46.7536266,30.2125331 46.7813919,30.2252446 46.8110082,30.2287439 L46.8110082,30.2287439 Z" id="Path_4068" stroke="#0C0853" stroke-width="0.5" fill="none"></path>
                        <path d="M32.7792803,32.1975267 C32.6003662,33.0797121 32.5458233,33.9825536 32.6172358,34.8798281 C32.7411017,35.7488438 32.5896161,36.6347933 32.1840149,37.4134798 C31.972365,37.799969 31.2911169,39.316196 30.9372647,40.0198046 C30.5834125,40.7234132 29.5879965,43.5642743 29.2837497,44.2810962 C28.979503,44.9979182 28.0138502,47.7165562 27.4648833,48.2649084 C26.9159163,48.8132607 26.4727743,48.8727205 25.7055434,48.3904348 C24.9383124,47.9081491 25.2061819,47.4886266 24.8622507,47.3498869 C24.5183196,47.2111471 25.2425592,49.6622157 25.6096395,51.0264896 C25.9767198,52.3907636 27.0250483,57.0385445 27.1771717,57.7124232 C27.2223974,57.8629005 27.2501384,58.0180764 27.2598474,58.1748889 C27.2598474,58.5052216 27.0680397,58.7001179 26.333879,58.994114 C25.7849121,59.2121335 25.6162536,59.1394604 25.556727,59.1328537 C25.4972005,59.126247 25.5203497,59.155977 25.440981,59.4400631 C25.2657084,60.0709985 24.0123441,63.5989516 23.5195966,64.8872491 C23.0268492,66.1755465 23.2120428,66.0169868 23.1690514,66.6611356 C23.1260601,67.3052843 22.6101634,72.2470612 22.5076455,73.4428656 C22.3311376,75.986912 22.2947054,78.5387243 22.3985135,81.0867639 C22.5440228,83.554349 23.1525163,86.9237424 23.2715694,87.6405643 C23.3906224,88.3573862 23.4898333,88.657989 25.3153138,89.4342708 C27.1407943,90.2105526 27.5310239,90.0288696 28.321404,90.2567992 C29.1117842,90.4847287 28.8637569,90.8547013 28.8406077,91.3402904 C28.8174585,91.8258794 28.0369994,91.7796328 26.4165548,91.9481025 C24.7616283,92.050439 23.1007219,91.9962435 21.45601,91.7862395 C20.9897187,91.690443 20.5994892,91.9183726 20.463901,91.4922434 C20.3283128,91.0661142 20.5002783,89.6853236 20.5002783,89.6853236 C20.1034347,89.7943334 19.031957,90.0718129 19.031957,90.0718129 C19.031957,90.0718129 18.0795324,86.263077 17.9307161,85.0936993 C17.7818997,83.9243216 17.808356,79.4615271 17.8215841,77.9519067 C17.8517484,77.337381 17.839594,76.7215111 17.7852068,76.1086503 C17.1700992,76.8089556 14.8518713,80.2378089 14.3690449,80.9480241 C13.8862185,81.6582394 11.839167,84.7699733 11.3398055,85.5396484 C10.840444,86.3093236 11.0917783,86.8081259 10.3476965,86.3291435 C9.60361481,85.8501612 9.59369372,85.0771827 9.46802659,85.4867952 C9.34235945,85.8964077 9.52755313,86.8708891 9.99715137,87.9642903 C10.4667496,89.0576915 11.7035788,90.2039459 11.9813693,90.4450888 C12.2591598,90.6862316 13.3041813,91.3402904 11.614289,91.8952493 C9.92439671,92.4502082 7.95009987,90.2865291 7.48711568,89.7579968 C7.0241315,89.2294645 4.98038702,86.45467 4.78857929,85.7510613 C4.59677155,85.0474527 5.63187191,84.1852844 6.01548738,83.8714684 C6.39910285,83.5576523 7.40774696,83.2999928 7.58301955,83.1678598 C7.75829213,83.0357267 7.99309125,82.3981846 8.16836384,82.0843686 C8.34363642,81.7705525 9.5242461,79.64321 10.7511542,77.3374879 C11.5812335,75.7061504 12.7161021,74.2485072 14.0945614,73.043163 C15.2454078,71.9497618 15.4702858,70.9984037 15.7877607,70.4335348 C16.1052356,69.8686659 16.7798697,67.1037814 16.9815985,66.1788498 C17.1833273,65.2539183 16.9815985,63.8136678 16.7534134,62.5451903 C16.5252284,61.2767128 16.2408238,59.3442666 16.1614551,58.7959144 C16.1462425,58.3689404 15.9059531,57.981892 15.5298124,57.7784897 C15.0899774,57.477887 15.1329688,57.3226306 15.2586359,56.9064114 C15.3843031,56.4901922 15.711699,53.8607441 15.7943748,52.8400161 C15.8770505,51.8192881 15.9101208,47.0063409 16.0953145,46.0516794 C16.2805082,45.097018 16.035788,44.6774955 15.7646115,44.6774955 C15.4934351,44.6774955 15.2222586,45.0639847 15.1032055,45.4967205 C14.9841525,45.9294563 14.266527,47.7363761 14.2136145,48.2417851 C14.160702,48.7471941 13.5257523,56.3778791 13.3570937,58.0196326 C13.1884352,59.661386 13.4662257,60.0478752 13.6514194,60.3616913 C13.8366131,60.6755073 14.0548771,62.4857304 14.1110966,62.7070533 C14.1673161,62.9283762 14.4417995,63.4965485 13.9225959,63.3346854 C13.4033922,63.1728224 13.6216561,62.6046502 13.4364625,62.9118596 C13.2706628,63.3570744 13.3456096,63.8561603 13.6348843,64.2331903 C13.9225959,64.5238831 13.6580335,65.1118753 13.3570937,64.6361962 C13.056154,64.1605171 13.1752071,64.745206 13.1950493,64.8310925 C13.2148915,64.916979 12.9536361,65.3959614 12.6593104,64.7749359 C12.3649848,64.1539105 12.6824596,64.2034604 12.2062473,64.0415974 C11.730035,63.8797344 11.7664124,63.2587089 11.6705085,63.0241727 C11.5746046,62.7896365 11.4158672,62.5187637 11.1810681,62.0133547 C10.9462689,61.5079457 11.1645329,60.8935269 11.4588586,59.9785054 C11.7531842,59.0634838 11.832553,57.963476 11.5746046,56.2721727 C11.3166563,54.5808693 11.3398055,52.7937695 11.2604368,51.9778478 C11.1810681,51.161926 11.7068858,47.5348732 11.9053076,46.4811119 C12.1037294,45.4273507 12.4575816,43.6039142 12.4939589,43.4321412 C12.5303363,43.2603683 12.2723879,43.0159221 12.163256,42.8111158 C12.054124,42.6063095 12.6692315,41.6747714 12.8511182,41.2486422 C13.0330048,40.822513 13.9159818,38.4441177 14.7295111,36.9378007 C15.5430405,35.4314836 15.7414623,34.8137615 16.5616057,34.5065521 C17.3817491,34.1993427 17.3751351,33.5155541 17.4908811,33.2248613 C17.6066272,32.9341686 17.6760748,32.4849161 17.917488,32.6170492 C18.1589011,32.7491823 18.248191,32.696329 18.3507089,32.1611901 C18.4532268,31.6260511 17.9108739,31.2527752 17.3585999,30.5425599 C16.7874484,29.7545471 16.4796273,28.8066873 16.47893,27.8338319 C16.4491667,26.7437341 17.4710389,26.2218084 17.5173373,25.8848691 C17.5636358,25.5479298 17.8182771,24.7881646 18.479683,24.4809552 C19.141089,24.1737458 19.9446973,23.7542233 20.463901,23.9160863 C21.2067708,24.0770941 21.9628134,24.1699732 22.7226024,24.1935658 C23.8866769,24.2662389 24.2835205,24.6857614 24.0850987,25.4752566 C23.8866769,26.2647517 23.6022724,25.4554366 23.9759667,26.3605482 C24.2430625,26.9164104 24.3152775,27.5458391 24.1810026,28.147648 C24.1082479,28.4779807 23.9693527,29.1023094 24.7002063,29.511922 C25.4310599,29.9215345 24.7002063,30.2882038 24.5117056,30.4467635 C24.3232049,30.6053231 24.2669854,31.4674914 24.3066697,31.9497772 C24.3463541,32.4320629 24.3926525,32.9903251 23.4832193,33.0563917 C22.5737861,33.1224582 22.3555221,32.8119455 21.9652926,32.5807126 C21.575063,32.3494797 21.5486068,32.8515854 21.4956943,33.707147 C21.4427818,34.5627087 21.4956943,34.4536989 22.1868636,34.7543016 C22.8780328,35.0549044 23.8403785,37.3672332 24.0487214,37.8594289 C24.2570643,38.3516246 25.2590943,41.1825757 25.440981,41.6681647 C25.642893,42.2881472 25.8859472,42.8939986 26.1685276,43.4816911 C26.4992305,44.1060199 26.5984414,43.570881 27.0548116,42.8540591 C27.5111817,42.1372371 28.8802921,39.6300121 29.9220065,37.9254954 C30.9637209,36.2209788 30.6760093,35.9038594 30.537114,34.394239 C30.3982188,32.8846187 30.5139648,32.4981294 30.3254641,31.503828 C30.1369634,30.5095267 30.3023149,30.51283 30.5007367,30.4467635 C30.6991585,30.3806969 30.9537998,31.3816049 30.9537998,31.3816049 C30.9537998,31.3816049 31.0629318,30.0602742 31.3936348,30.1131274 C31.7243378,30.1659807 31.5986706,31.5203447 31.5986706,31.5203447 C31.5986706,31.5203447 31.8698471,30.5293466 32.1476376,30.5293466 C32.4254281,30.5293466 32.4618054,31.6722977 32.4618054,31.6722977 C32.852035,31.6425678 32.8057366,31.9563838 32.7792803,32.1975267 Z" id="Path" stroke="none" fill="#FFFFFF" fill-rule="nonzero"></path>
                        <path d="M27.2730755,58.1748889 C27.2730755,58.5052216 27.0812678,58.7001179 26.3471072,58.994114 C25.7981402,59.2121335 25.6294817,59.1394604 25.5699551,59.1328537 C25.4839724,58.6043214 25.5997184,58.0923057 26.2908877,58.0130259 C26.6270858,57.9698654 26.9685744,58.0261422 27.2730755,58.1748889 Z" id="Path" stroke="none" fill="#0C0853" fill-rule="nonzero"></path>
                        <path d="M12.5303363,43.2735816 C12.5303363,43.2735816 11.5580695,47.7727127 11.5117711,48.5589045 C11.4654726,49.3450963 11.0223306,52.2619339 11.3034282,54.2604466 C11.5845257,56.2589594 11.7597983,58.2244388 11.5117711,59.2154369 C11.2637438,60.2064349 10.8801284,61.7755152 11.0686291,62.0794212 C11.3223272,62.4544431 11.5995714,62.8130226 11.8986936,63.1530025 C12.0250939,63.2424623 12.1677581,63.306421 12.3186864,63.3412921 C12.4608886,63.3412921 12.6493893,62.9680162 12.7419862,62.6409868 C12.834583,62.3139574 13.161979,61.7623019 12.8941096,61.6499888 C12.6262401,61.5376756 12.2327036,62.6409868 12.166563,62.71366" id="Path" stroke="#0C0853" stroke-width="0.5" fill="none"></path>
                        <path d="M11.7697194,62.006748 C11.9253842,62.1810961 12.0982207,62.3393521 12.2856161,62.4791238" id="Path" stroke="#0C0853" stroke-width="0.5" fill="none"></path>
                        <path d="M11.6407452,62.8457931 C11.7041905,63.2337293 11.8280504,63.6093514 12.0078255,63.9590142 C12.0971154,64.0283841 12.5898628,64.1340905 12.7651354,64.249707 C12.940408,64.3653234 13.277725,64.5998596 13.3736289,64.249707 C13.4695328,63.8995543 13.1156806,63.7707246 12.8709603,63.7013547 C12.6262401,63.6319849 12.4840379,63.4205719 12.5138011,63.3379888" id="Path" stroke="#0C0853" stroke-width="0.5" fill="none"></path>
                        <path d="M12.3782129,64.1671238 C12.4840379,64.3653234 12.7419862,65.1581219 12.834583,65.1581219 C12.9271799,65.1581219 13.1983563,64.9731355 13.165286,64.8277892 C13.1177009,64.6797032 13.0625106,64.534164 12.9999345,64.39175" id="Path" stroke="#0C0853" stroke-width="0.5" fill="none"></path>
                        <path d="M13.2314266,64.4148733 C13.2314266,64.4148733 13.4563046,64.7187794 13.4860679,64.745206 C13.5158312,64.7716326 13.7837006,64.5437031 13.7340952,64.4148733 C13.6844897,64.2860436 13.3504797,63.9656209 13.277725,63.7872412 C13.2197487,63.4383744 13.2197487,63.0823467 13.277725,62.73348" id="Path" stroke="#0C0853" stroke-width="0.5" fill="none"></path>
                        <path d="M12.7882846,61.2701062 C13.0337536,61.6633085 13.2250771,62.0877486 13.3570937,62.531977 C13.5191382,63.0241727 13.5753577,63.3743254 14.0184997,63.3379888 C14.4616417,63.3016522 14.1838512,63.209159 14.0184997,62.4791238 C13.8531482,61.7490886 13.7671654,60.4640944 13.5191382,60.166795 C13.271111,59.8694956 13.2413477,59.2914134 13.274418,58.6373547 C13.3074883,57.983296 13.8564553,52.9225992 14.0085786,51.6144818 C14.160702,50.3063644 14.0416489,48.4135581 14.2632199,47.9081491 C14.4847909,47.4027401 15.3181625,44.6675855 15.3181625,44.6675855" id="Path" stroke="#0C0853" stroke-width="0.5" fill="none"></path>
                        <path d="M20.7780688,30.2287439 C20.1464261,31.1834053 19.6536787,30.0107243 19.5511607,29.2740824 C19.4486428,28.5374405 19.6536787,27.975875 20.2522511,28.2236245 C20.8508235,28.471374 21.128614,30.2056206 21.24436,29.310419 C21.3601061,28.4152174 21.4890803,28.4317341 22.897875,27.1004934 C24.3066697,25.7692527 24.1942307,25.1713505 24.1611604,24.9632409 C24.1280901,24.7551313 24.1611604,24.1440158 22.3125307,24.1902624 C20.463901,24.236509 20.7251563,23.7476166 19.7330474,23.9821528 C18.7409384,24.216689 17.6727678,24.8674444 17.6727678,25.4521333 C17.6727678,26.0368221 16.9419141,26.4266147 16.7567205,26.9947869 C16.5715268,27.5629591 16.1250778,28.3524542 16.8261681,29.683695 C17.5272584,31.0149357 18.479683,31.5963212 18.3474019,32.4287596 C18.2151207,33.2611979 18.8632985,31.8110374 19.0980976,31.4113349 C19.3328968,31.0116323 19.8818637,30.2551705 19.8818637,30.2551705" id="Path" stroke="#0C0853" stroke-width="0.5" fill="none"></path>
                        <path d="M23.7742379,26.096282 C23.7742379,26.096282 24.3099768,27.0146069 24.3099768,27.5068026 C24.3099768,27.9989983 23.889984,28.6993036 24.3827314,29.1881959 C24.6278004,29.4437952 24.8932343,29.679104 25.1764186,29.8918045 C25.1764186,29.8918045 24.3827314,30.52274 24.3595822,30.6614797 C24.336433,30.8002194 24.7332766,32.8813153 23.8668347,33.0233584 C23.1247536,33.1478938 22.3663081,32.9277896 21.8065551,32.4254562 C21.8065551,32.4254562 21.45601,33.7930335 21.5254576,34.4470923" id="Path" stroke="#0C0853" stroke-width="0.5" fill="none"></path>
                        <path d="M21.5023084,34.404149 C21.0558593,33.2810179 17.7488294,32.5807126 17.7488294,32.5807126 L17.0477391,34.2654093 C17.0477391,34.2654093 21.346878,33.5155541 22.6696899,35.1771275 C23.9925019,36.8387009 25.0805147,40.9480395 25.6195606,42.0480473 C25.6195606,42.0480473 24.9581546,42.1636637 23.9032121,43.0985052 C22.8482695,44.0333467 21.8263973,45.4339573 22.014898,45.6916168 C22.2033987,45.9492763 23.4666841,45.1333546 23.4666841,45.1333546" id="Path" stroke="#0C0853" stroke-width="0.5" fill="none"></path>
                        <path d="M22.8912609,44.1522665 C22.8912609,44.1522665 24.452179,46.8147479 24.8754789,47.3531902 C25.2987787,47.8916325 25.7650699,48.7306775 26.5124587,48.7538008 C27.2598474,48.7769241 27.4748044,48.4234681 28.1659736,47.0030376 C28.8571429,45.582607 31.5589863,38.6125874 31.863233,37.981652 C32.1674798,37.3507165 32.855342,36.8585208 32.6569202,35.1507009 C32.4584984,33.4428809 32.8685701,32.0918202 32.8222717,31.8804073 C32.7566903,31.6985615 32.5629849,31.5968009 32.3758227,31.6458711 C32.2600766,31.6921177 32.1410235,32.3957263 32.0252775,32.7921255 C31.9095314,33.1885247 31.7904784,33.9846265 31.7904784,33.9846265" id="Path" stroke="#0C0853" stroke-width="0.5" fill="none"></path>
                        <path d="M30.9041944,32.9011353 C30.8981409,32.3398471 30.9213214,31.7786244 30.973642,31.2197419 C31.0629318,30.694513 31.1323794,30.0800942 31.3241872,30.0966108 C31.4199647,30.1157624 31.5032376,30.1743229 31.5535848,30.2579315 C31.6039321,30.3415402 31.6166971,30.4424639 31.5887495,30.5359533 C31.5358371,30.7275462 31.4994597,32.3329631 31.4994597,32.3329631" id="Path" stroke="#0C0853" stroke-width="0.5" fill="none"></path>
                        <path d="M30.9339576,31.5566813 C30.9339576,31.5566813 30.7818343,30.4500668 30.5172719,30.4500668 C30.2527095,30.4500668 30.1865689,30.6053231 30.2725517,30.9918124 C30.3594407,31.4656017 30.3949209,31.9473698 30.3783766,32.4287596 C30.3647878,32.939553 30.3991102,33.4504954 30.4808945,33.9548966 C30.5701843,34.5164621 30.7818343,36.0591157 30.6561671,36.3200786 C30.1343278,37.5614626 29.5470593,38.7743799 28.8968272,39.9537381 C28.1725877,41.1462391 26.4165548,43.9177303 26.4165548,43.9177303" id="Path" stroke="#0C0853" stroke-width="0.5" fill="none"></path>
                        <path d="M27.1540225,45.3315542 C27.0845748,45.258881 25.9734128,43.0522587 25.4575161,42.0711706" id="Path" stroke="#0C0853" stroke-width="0.5" fill="none"></path>
                        <path d="M22.018205,45.5859103 C22.018205,45.6916168 20.8475165,41.509605 20.5333486,40.4921804" id="Path" stroke="#0C0853" stroke-width="0.5" fill="none"></path>
                        <path d="M17.0576602,34.2654093 C16.2871222,34.4272723 15.4041452,35.4777302 15.3016273,35.6561099 C15.1991094,35.8344895 12.4939589,42.1042039 12.3253004,42.4543565 C12.1566419,42.8045091 12.0111326,42.8078125 12.5369503,43.2636716 C13.0627681,43.7195307 13.2380407,44.8030219 16.1184637,44.6642822" id="Path" stroke="#0C0853" stroke-width="0.5" fill="none"></path>
                        <path d="M16.1449199,40.3534406 C16.1449199,40.3534406 16.2143676,54.1646501 15.1263547,57.3193273 C15.7290944,58.0609085 16.5999298,58.5355935 17.5504076,58.640658 C19.2336859,58.8884075 21.9355293,59.1328537 24.7431977,58.2574721 C27.550866,57.3820905 28.3809306,58.4655817 25.665859,59.2022236" id="Path" stroke="#0C0853" stroke-width="0.5" fill="none"></path>
                        <path d="M27.3061458,58.1980122 C27.3061458,58.1980122 26.1685276,53.2165953 25.8080613,51.7466149 C25.447595,50.2766345 24.7431977,48.0634055 24.7101274,47.1549906" id="Path" stroke="#0C0853" stroke-width="0.5" fill="none"></path>
                        <path d="M25.7948332,58.0097226 C25.7948332,58.0097226 25.4641302,60.3220514 23.0929898,65.8749438 C20.7218493,71.4278362 20.3216987,73.0960162 17.9340231,76.0062472 C15.5463475,78.9164781 10.7743034,86.4183334 10.7743034,86.4183334 C10.7743034,86.4183334 10.0732131,86.3126269 9.47794768,85.3645721" id="Path" stroke="#0C0853" stroke-width="0.5" fill="none"></path>
                        <path d="M10.7743034,86.4183334 C11.0057955,86.0582707 9.45149144,83.7525486 8.79008546,83.1150065 C8.12867948,82.4774645 7.91372254,82.7648539 7.79797649,82.8011905 C7.68223044,82.8375271 9.72928195,79.3657306 10.7478472,77.3308812 C11.5588877,75.6170961 12.7456721,74.1076161 14.2202285,72.9143333 C15.7315412,71.6161258 16.2937363,69.161754 16.6079041,67.7941767 C16.922072,66.4265994 18.6781048,58.6439613 18.6781048,58.6439613" id="Path" stroke="#0C0853" stroke-width="0.5" fill="none"></path>
                        <path d="M16.045709,58.1385523 C16.045709,58.1385523 16.9882126,64.2265837 17.0874235,65.3464115" id="Path" stroke="#0C0853" stroke-width="0.5" fill="none"></path>
                        <path d="M17.9340231,76.0062472 C17.7356013,77.2218715 17.7818997,83.2041964 17.9704004,85.3084156 C18.1766889,86.9277363 18.5365682,88.5238112 19.0451852,90.0751162 C19.0451852,90.0751162 20.6987001,89.678717 21.9719066,89.2327678 C23.2451131,88.7868187 23.5162896,88.2054332 23.3277889,87.9477737 C23.3277889,87.9477737 22.2761534,82.0810652 22.2530042,78.2492061 C22.2298549,74.417347 23.1888936,67.8701532 23.2451131,65.5115778" id="Path" stroke="#0C0853" stroke-width="0.5" fill="none"></path>
                        <path d="M23.3707803,88.2186465 C23.3707803,88.2186465 24.2702924,89.0477815 24.8093383,89.2096445 C25.3483841,89.3715076 26.5653711,90.2006426 27.8055074,90.2006426 C29.0456436,90.2006426 28.9034413,90.9504978 28.8571429,91.346897 C28.8108444,91.7432962 28.3643954,91.7664195 26.7274156,91.9315859 C25.0904358,92.0967522 21.5089224,91.9315859 20.9500344,91.7664195 C20.3911463,91.6012532 20.4804361,91.6276798 20.4341377,90.9273745 C20.4065305,90.503261 20.4627142,90.0778651 20.5994892,89.6754136" id="Path" stroke="#0C0853" stroke-width="0.5" fill="none"></path>
                        <path d="M4.85141285,85.2852923 C5.34489278,84.18277 6.3797947,83.4184267 7.57971252,83.2702629" id="Path" stroke="#0C0853" stroke-width="0.5" fill="none"></path>
                        <path d="M10.0269146,84.7402433 C10.0269146,84.7402433 9.61684293,84.9681729 9.5473953,85.1663725" id="Path" stroke="#0C0853" stroke-width="0.5" fill="none"></path>
                        <path d="M8.00631937,82.7417306 C7.84758194,82.7780672 7.51026489,83.2504429 7.51026489,83.2504429 C8.04931076,83.1348265 9.66314135,84.5123138 9.49448283,85.232439 C9.3258243,85.9525643 9.80534364,87.5018246 10.0004584,87.8751005 C10.1955732,88.2483764 11.2703579,89.9330731 12.1136505,90.5375819 C12.9569431,91.1420907 12.1136505,91.7532062 12.1136505,91.7532062 C12.1136505,91.7532062 10.5692675,92.2222786 9.65652729,91.356807 C8.74378704,90.4913354 7.48050162,87.617441 6.80256049,86.8477659 C6.12461936,86.0780907 5.30447595,85.0012062 4.86133394,85.2819889 C4.41819194,85.5627717 5.93611866,87.7594841 6.66366524,88.6943256 C7.39121181,89.6291671 8.95543695,91.9117659 10.9429619,91.8919459" id="Path" stroke="#0C0853" stroke-width="0.5" fill="none"></path>
                        <ellipse id="Oval" stroke="#0C0853" stroke-width="0.5" fill="none" cx="23.6755281" cy="28.5539572" rx="1" ry="1"></ellipse>
                        <path d="M23.8502996,27.4671626 C23.8502996,27.4671626 23.3211748,27.4869826 23.1657444,27.6785756" id="Path" stroke="#0C0853" stroke-width="0.5" fill="none" stroke-linecap="round"></path>
                        <path d="M23.1657444,31.0975188 C23.1657444,31.2725952 23.4964474,31.5765012 23.9958089,31.6227478" id="Path" stroke="#0C0853" stroke-width="0.5" fill="none" stroke-linecap="round"></path>
                        <path d="M32.3592875,31.6458711 C32.3592875,31.6458711 32.518025,30.654873 32.2898399,30.5888065 C32.0616548,30.52274 31.9392947,30.4831 31.8698471,30.7803995 C31.7979915,31.226831 31.6974709,31.6681852 31.5689074,32.1017302 C31.4571142,32.5159404 31.3753293,32.9376548 31.3241872,33.363601" id="Path" stroke="#0C0853" stroke-width="0.5" fill="none"></path>
                        <path d="M23.4071576,45.1729945 C23.4071576,45.1729945 22.1967847,46.0153428 22.018205,45.6552802 C21.8396254,45.2952176 22.8449625,44.2051197 22.8449625,44.2051197 L23.4071576,45.1729945 Z" id="Path" stroke="none" fill="#0C0853" fill-rule="nonzero"></path>
                        <path d="M10.0269146,84.8624664 C10.0269146,84.8624664 9.22992043,85.1663725 9.47794768,85.5396484 C9.72597492,85.9129244 10.7246979,86.43485 10.8007596,86.253167 C10.8768213,86.0714841 10.0269146,84.8624664 10.0269146,84.8624664 Z" id="Path" stroke="none" fill="#0C0853" fill-rule="nonzero"></path>
                        <path d="M69.3021185,20.8109591 C69.3021185,20.8109591 68.8688975,20.5995462 69.2293638,20.2857301 C69.5898301,19.9719141 69.6162863,20.2262702 70.3173766,20.3088534 C71.018467,20.3914366 71.2532661,20.4740197 71.0779935,20.8109591 L69.3021185,20.8109591 Z" id="Path" stroke="none" fill="#FFFFFF" fill-rule="nonzero"></path>
                        <path d="M68.9548803,22.7929552 C68.9548803,22.7929552 68.3860712,22.0199767 68.9548803,21.8449004 C69.5021629,21.7121362 70.065725,21.6587356 70.6282375,21.6863407 C71.0515373,21.6863407 71.8749877,21.4220745 71.9113651,21.6863407 C71.9477424,21.9506068 72.0337252,22.1124698 71.6302675,22.3040628 C71.2268099,22.4956558 70.1553322,22.6740354 70.138797,22.7434053" id="Path" stroke="#0C0853" stroke-width="0.5" fill="none" stroke-linecap="round" stroke-linejoin="round"></path>
                        <path d="M69.0077928,21.7127673 C68.8427715,21.571986 68.7637026,21.3551034 68.7994499,21.1412918 C68.7994499,20.9298788 69.1830654,20.8109591 69.3021185,20.8109591 C69.4211715,20.8109591 70.7406765,20.9001489 71.0912216,20.9265755 C71.3822403,20.9530021 71.8154612,21.1049552 71.5343636,21.4650178" id="Path" stroke="#0C0853" stroke-width="0.5" fill="none" stroke-linecap="round" stroke-linejoin="round"></path>
                        <path d="M69.3021185,20.8109591 C69.3021185,20.8109591 68.8688975,20.5995462 69.2293638,20.2857301 C69.5898301,19.9719141 69.6162863,20.2262702 70.3173766,20.3088534 C71.018467,20.3914366 71.2532661,20.4740197 71.0779935,20.8109591" id="Path" stroke="#0C0853" stroke-width="0.5" fill="none" stroke-linecap="round" stroke-linejoin="round"></path>
                        <path d="M71.3888543,23.4899571 L71.3293278,23.4899571 L71.3293278,23.4899571 C71.0500515,23.575153 70.7611964,23.6250911 70.4695,23.6386068 L70.4695,25.4356166 C70.2496901,25.5070158 70.0193185,25.5405275 69.7882519,25.5347164 L69.7551816,25.5347164 L69.6460496,25.5115932 L69.6195933,25.5115932 C69.4711085,25.4581815 69.3810981,25.30741 69.4046364,25.1515305 C69.4085268,25.07186 69.4299821,24.9940305 69.46747,24.923601 C69.477479,24.8998025 69.4908423,24.8775554 69.5071543,24.8575344 C69.7518745,24.5272018 70.3504469,24.5272018 70.4099735,24.5272018 L70.3372188,24.5073818 C70.0206128,24.4196049 69.7137029,24.3000773 69.4211715,24.1506225 L69.4046364,24.1506225 C69.2489185,24.085757 69.1123336,23.9822961 69.0077928,23.8500198 C68.8259062,23.5196871 68.4885891,23.1398045 68.7994499,22.9151783 C68.8846567,22.8586079 68.9801674,22.819324 69.0805475,22.7995618 L69.2095216,22.7731352 L69.3153466,22.7731352 C69.5875382,22.7371091 69.8632984,22.7371091 70.13549,22.7731352 C70.353754,22.7995618 70.5521758,22.8425051 70.7539046,22.8755383 L70.7539046,22.8755383 C70.9024963,22.9009342 71.0529128,22.9141914 71.2036607,22.9151783 C71.4913723,22.9151783 71.6666448,23.0010648 71.7261714,23.1100745 C71.7856979,23.2190843 71.7063292,23.3941607 71.3888543,23.4899571 Z" id="Path" stroke="none" fill="#FFFFFF" fill-rule="nonzero"></path>
                        <path d="M70.4562719,25.5974797 C70.2283959,25.601785 70.0005501,25.5874224 69.7750237,25.5545364 L69.7419534,25.5545364 L69.6328215,25.5314131 L69.6063652,25.5314131 C69.5029366,25.5119783 69.4061845,25.4664989 69.3252677,25.39928 C69.2062146,25.2803603 69.25582,25.1019806 69.4211715,24.9434209 L69.4939262,24.8773544 C69.7554656,24.6803481 70.0696922,24.5653757 70.3967454,24.5470217 L70.3239907,24.5272018 C70.012674,24.4241762 69.7069145,24.3050966 69.4079434,24.1704425 L69.3914083,24.1704425 C69.2095216,24.0812526 69.0607053,23.9920628 69.0607053,23.922693 C69.0540748,23.9009173 69.0452089,23.8798845 69.034249,23.8599297 C68.918503,23.6253935 68.6076422,23.2752409 68.7663796,23.0076714 C68.7835164,22.9782953 68.803451,22.9506394 68.8259062,22.9250882 C68.8628039,22.8746624 68.9132578,22.8357189 68.9714155,22.8127751 C69.0901486,22.7711428 69.2166796,22.7564726 69.3418028,22.7698319 L69.6229004,22.7896518 L69.8907698,22.8160785 C70.1586392,22.8425051 70.4794211,22.8524151 70.7803608,22.862325 L70.7803608,22.862325 C71.2731083,22.862325 71.7030222,22.8986616 71.7360925,23.0076714 C71.7453808,23.0365775 71.7509374,23.0665497 71.7526276,23.0968612 C71.7526276,23.2455109 71.6765659,23.4437106 71.3359418,23.5295971 L71.3359418,23.5295971 C71.246602,23.548555 71.1559487,23.5607022 71.0647654,23.5659337 C70.6157576,23.5953221 70.1717694,23.6773679 69.7419534,23.8103798" id="Path" stroke="#0C0853" stroke-width="0.5" fill="none" stroke-linejoin="round"></path>
                    </g>
                </g>
            </g>
        </g>
    </g>
</svg>