<?xml version="1.0" encoding="UTF-8"?>
<svg width="121px" height="124px" viewBox="0 0 121 124" version="1.1" xmlns="http://www.w3.org/2000/svg" xmlns:xlink="http://www.w3.org/1999/xlink">
    <title>C0DF6F32-D145-4D80-ABF5-C35C5125F427</title>
    <defs>
        <circle id="path-1" cx="60" cy="60" r="60"></circle>
    </defs>
    <g id="All-In-One" stroke="none" stroke-width="1" fill="none" fill-rule="evenodd">
        <g id="Arabic_Complete_Flow_Updated_v2-01" transform="translate(-214.000000, -200.000000)">
            <g id="Oval" transform="translate(30.000000, 194.000000)">
                <g id="Group-8" transform="translate(184.000000, 6.000000)">
                    <circle id="Oval" fill="#FFE000" cx="60" cy="64" r="60"></circle>
                    <g id="Spin_the_Wheel[6]" transform="translate(0.000000, 4.000000)">
                        <mask id="mask-2" fill="white">
                            <use xlink:href="#path-1"></use>
                        </mask>
                        <use id="Mask" fill="#FFE000" xlink:href="#path-1"></use>
                        <g id="App_Illustrations_315x300-01" mask="url(#mask-2)">
                            <g transform="translate(10.000000, 19.000000)">
                                <path d="M45.8234101,10.365484 L24.6891165,90.5658763 C24.5856079,90.9613806 24.6724219,91.3821394 24.9242518,91.7054997 C25.1760817,92.02886 25.5645815,92.2189367 25.976502,92.2189367 L68.2450891,92.2189367 C68.6575051,92.2197844 69.0469264,92.0305678 69.2990596,91.706818 C69.5511928,91.3830682 69.637435,90.9615129 69.5324746,90.5658763 L48.398181,10.365484 C48.2434839,9.78611527 47.714991,9.38264272 47.1107956,9.38264272 C46.5066001,9.38264272 45.9781072,9.78611527 45.8234101,10.365484 Z" id="Path" stroke="#0C0853" stroke-width="0.5" fill="none"></path>
                                <path d="M46.3083139,12.9263683 L26.2667613,88.9873418 C26.2058669,89.2320339 26.2618281,89.4909116 26.4185076,89.6893229 C26.575187,89.8877341 26.8151663,90.0035657 27.069243,90.0035657 L67.1557629,90.0035657 C67.4093608,90.0023032 67.6484544,89.8860745 67.8048405,89.6880347 C67.9612267,89.4899948 68.0177344,89.2318883 67.9582446,88.9873418 L47.9132772,12.9263683 C47.8173492,12.564746 47.4877534,12.3126995 47.1107956,12.3126995 C46.7338377,12.3126995 46.4042419,12.564746 46.3083139,12.9263683 Z" id="Path" stroke="#0C0853" stroke-width="0.5" fill="none"></path>
                                <g id="Group_17" stroke="none" stroke-width="1" fill="none" fill-rule="evenodd" transform="translate(20.925990, 0.000000)">
                                    <path d="M43.7403726,-6.0172544e-16 L7.8540758,-6.0172544e-16 C3.51638951,-6.0172544e-16 -4.85274479e-15,3.48817194 -4.85274479e-15,7.7910501 L-4.85274479e-15,7.7910501 L-4.85274479e-15,85.6507399 C-4.85274479e-15,89.953618 3.51638951,93.44179 7.8540758,93.44179 L43.7403726,93.44179 C48.0780589,93.44179 51.5944484,89.953618 51.5944484,85.6507399 L51.5944484,7.7910501 C51.5944484,3.48817194 48.0780589,-6.0172544e-16 43.7403726,-6.0172544e-16 L43.7403726,-6.0172544e-16 M47.1039659,85.6575147 C47.1039659,87.500269 45.5980339,88.9941166 43.7403726,88.9941166 L7.8540758,88.9941166 C5.9964145,88.9941166 4.49048247,87.500269 4.49048247,85.6575147 L4.49048247,85.6575147 L4.49048247,7.7910501 C4.49048247,5.94829576 5.9964145,4.45444821 7.8540758,4.45444821 L13.4646178,4.45444821 C14.0832096,4.45444821 14.5846773,4.95189186 14.5846773,5.5655197 L14.5846773,5.5655197 C14.5846773,7.40827404 16.0906093,8.90212159 17.9482706,8.90212159 L33.6564222,8.90212159 C34.5481885,8.90302058 35.4037406,8.55224055 36.034635,7.92704411 C36.6655295,7.30184768 37.020016,6.45351778 37.0200156,5.56890711 L37.0200156,5.56890711 C37.0191081,5.27364616 37.1367133,4.99016976 37.3468636,4.78107023 C37.557014,4.5719707 37.8424242,4.45444821 38.1400751,4.45444821 L43.750617,4.45444821 C45.6042764,4.46004859 47.1039659,5.95225708 47.1039659,7.7910501 L47.1039659,85.6575147 Z" id="Path_11" fill="#FFFFFF" fill-rule="nonzero"></path>
                                </g>
                                <ellipse id="Oval" stroke="none" fill="#FFFFFF" fill-rule="nonzero" cx="47.30544" cy="42.305402" rx="19.0717449" ry="18.9187021"></ellipse>
                                <ellipse id="Oval" stroke="#0C0853" stroke-width="0.5" fill="none" cx="47.30544" cy="42.305402" rx="1.27031139" ry="1.26011767"></ellipse>
                                <ellipse id="Oval" stroke="#0C0853" stroke-width="0.5" fill="none" cx="47.30544" cy="42.305402" rx="17.9721743" ry="17.8279551"></ellipse>
                                <ellipse id="Oval" stroke="#0C0853" stroke-width="0.5" fill="none" cx="47.30544" cy="42.305402" rx="12.6211583" ry="12.5198788"></ellipse>
                                <ellipse id="Oval" stroke="#0C0853" stroke-width="0.5" fill="none" cx="47.30544" cy="42.305402" rx="19.0717449" ry="18.9187021"></ellipse>
                                <line x1="47.8176624" y1="43.4605099" x2="54.5687527" y2="58.7174184" id="Path" stroke="#0C0853" stroke-width="0.5" fill="none"></line>
                                <line x1="40.0421273" y1="25.8899982" x2="46.7966325" y2="41.1502942" id="Path" stroke="#0C0853" stroke-width="0.5" fill="none"></line>
                                <line x1="46.8444399" y1="43.4808344" x2="40.7421645" y2="59.0053485" id="Path" stroke="#0C0853" stroke-width="0.5" fill="none"></line>
                                <line x1="53.8687156" y1="25.6054555" x2="47.7664401" y2="41.1299697" id="Path" stroke="#0C0853" stroke-width="0.5" fill="none"></line>
                                <line x1="46.120499" y1="41.8481013" x2="30.4703993" y2="35.7947941" id="Path" stroke="#0C0853" stroke-width="0.5" fill="none"></line>
                                <line x1="64.1438956" y1="48.81601" x2="48.490381" y2="42.7627028" id="Path" stroke="#0C0853" stroke-width="0.5" fill="none"></line>
                                <line x1="46.1409879" y1="42.813514" x2="30.7606586" y2="49.5104297" id="Path" stroke="#0C0853" stroke-width="0.5" fill="none"></line>
                                <line x1="63.8536363" y1="35.1003744" x2="48.4698921" y2="41.7972901" id="Path" stroke="#0C0853" stroke-width="0.5" fill="none"></line>
                                <polygon id="Path" stroke="#0C0853" stroke-width="0.5" fill="none" points="47.0015215 27.4583705 48.138655 24.6840792 45.8643879 24.6840792"></polygon>
                                <ellipse id="Oval" stroke="none" fill="#FFFFFF" fill-rule="nonzero" cx="47.0015215" cy="23.3866999" rx="1.84058559" ry="1.82581565"></ellipse>
                                <ellipse id="Oval" stroke="#0C0853" stroke-width="0.5" fill="none" cx="47.0015215" cy="23.3866999" rx="1.84058559" ry="1.82581565"></ellipse>
                                <rect id="Rectangle" stroke="none" fill="#0C0853" fill-rule="nonzero" x="46.3219732" y="50.5232662" width="2.11035602" height="1.45997504"></rect>
                                <rect id="Rectangle" stroke="none" fill="#0C0853" fill-rule="nonzero" x="46.1922102" y="52.0916384" width="2.37329682" height="1"></rect>
                                <rect id="Rectangle" stroke="none" fill="#FFFFFF" fill-rule="nonzero" x="47.1688474" y="50.5232662" width="1" height="2.13407024"></rect>
                                <rect id="Rectangle" stroke="none" fill="#0C0853" fill-rule="nonzero" x="46.250262" y="32.9188804" width="2.11035602" height="1.45997504"></rect>
                                <rect id="Rectangle" stroke="none" fill="#0C0853" fill-rule="nonzero" x="46.120499" y="32.2413978" width="2.37329682" height="1"></rect>
                                <rect id="Rectangle" stroke="none" fill="#FFFFFF" fill-rule="nonzero" x="47.0937215" y="32.2413978" width="1" height="2.13407024"></rect>
                                <rect id="Rectangle" stroke="none" fill="#0C0853" fill-rule="nonzero" x="46.250262" y="50.2319487" width="2.11035602" height="1.45997504"></rect>
                                <rect id="Rectangle" stroke="none" fill="#0C0853" fill-rule="nonzero" x="46.120499" y="51.8003209" width="2.37329682" height="1"></rect>
                                <rect id="Rectangle" stroke="none" fill="#FFFFFF" fill-rule="nonzero" x="47.0937215" y="50.2319487" width="1" height="2.13407024"></rect>
                                <ellipse id="Oval" stroke="#0C0853" stroke-width="0.5" fill="none" cx="47.30544" cy="42.305402" rx="1.27031139" ry="1.26011767"></ellipse>
                                <polygon id="Rectangle" stroke="none" fill="#0C0853" fill-rule="nonzero" transform="translate(56.028586, 42.302015) rotate(90.000000) translate(-56.028586, -42.302015) " points="54.9818758 41.5661219 57.075297 41.5661219 57.075297 43.0379074 54.9818758 43.0379074"></polygon>
                                <polygon id="Rectangle" stroke="none" fill="#0C0853" fill-rule="nonzero" transform="translate(57.165720, 42.307096) rotate(90.000000) translate(-57.165720, -42.307096) " points="55.9885939 42.0219586 58.342846 42.0219586 58.342846 42.5922328 55.9885939 42.5922328"></polygon>
                                <polygon id="Rectangle" stroke="none" fill="#FFFFFF" fill-rule="nonzero" transform="translate(56.371775, 42.303708) rotate(90.000000) translate(-56.371775, -42.303708) " points="56.1634495 41.2280414 56.5801013 41.2280414 56.5801013 43.3793752 56.1634495 43.3793752"></polygon>
                                <polygon id="Rectangle" stroke="none" fill="#0C0853" fill-rule="nonzero" transform="translate(38.578879, 42.305402) rotate(90.000000) translate(-38.578879, -42.305402) " points="37.5321682 41.5695093 39.6255895 41.5695093 39.6255895 43.0412948 37.5321682 43.0412948"></polygon>
                                <polygon id="Rectangle" stroke="none" fill="#0C0853" fill-rule="nonzero" transform="translate(37.448575, 42.307096) rotate(90.000000) translate(-37.448575, -42.307096) " points="36.2714489 42.0219586 38.625701 42.0219586 38.625701 42.5922328 36.2714489 42.5922328"></polygon>
                                <polygon id="Rectangle" stroke="none" fill="#FFFFFF" fill-rule="nonzero" transform="translate(38.239105, 42.303708) rotate(90.000000) translate(-38.239105, -42.303708) " points="38.0307788 41.2280414 38.4474306 41.2280414 38.4474306 43.3793752 38.0307788 43.3793752"></polygon>
                                <ellipse id="Oval" stroke="none" fill="#0C0853" fill-rule="nonzero" cx="40.6124015" cy="35.7947941" rx="1" ry="1"></ellipse>
                                <ellipse id="Oval" stroke="none" fill="#0C0853" fill-rule="nonzero" cx="53.8687156" cy="35.7947941" rx="1" ry="1"></ellipse>
                                <ellipse id="Oval" stroke="none" fill="#0C0853" fill-rule="nonzero" cx="40.6124015" cy="48.6635764" rx="1" ry="1"></ellipse>
                                <ellipse id="Oval" stroke="none" fill="#0C0853" fill-rule="nonzero" cx="53.8687156" cy="48.6635764" rx="1" ry="1"></ellipse>
                                <rect id="Rectangle" stroke="none" fill="#FFFFFF" fill-rule="nonzero" x="34.1515705" y="63.781601" width="25.143287" height="5.14548048" rx="2.57274024"></rect>
                                <g id="Spinandwin" stroke="none" stroke-width="1" fill="none" fill-rule="evenodd" transform="translate(37.000000, 65.500000)">
                                    <path d="M1.22439648,1.02511065 L1.39734085,1.02511065 L1.39734085,1.26550394 L1.22439648,1.26550394 C1.13602734,1.27147152 1.0473766,1.25850049 0.964979931,1.22754711 C0.894640106,1.20081466 0.832769738,1.1572279 0.785383858,1.10102432 L0.585832666,1.15163343 C0.493356169,1.16930363 0.405296297,1.20366252 0.326416117,1.25285167 C0.266298612,1.30931594 0.23477203,1.38773437 0.239943934,1.46794041 C0.239943934,1.65139845 0.33971953,1.74629054 0.545922428,1.74629054 C0.675639165,1.74719998 0.802804784,1.71201699 0.91176628,1.64507231 L0.91176628,1.89811789 C0.795265601,1.96999022 0.658034634,2.0053839 0.519315602,1.99933612 C0.371334099,1.99591185 0.231539597,1.93402028 0.133516632,1.82853035 C0.0437952497,1.72564653 -0.00349193355,1.59522564 0.000482503852,1.46161427 C-0.0056631701,1.32352179 0.0471086195,1.18892434 0.146820044,1.08837204 C0.186729303,1.05324051 0.231485669,1.02344447 0.279854172,0.999806089 L0.545922428,0.923892415 C0.633342859,0.910251824 0.717017618,0.880140734 0.792035564,0.835326463 C0.729775129,0.716843017 0.605202329,0.639471197 0.466101951,0.632890001 C0.331534609,0.645345082 0.206280278,0.703783159 0.113561513,0.797369627 L0.113561513,0.556976328 C0.210488669,0.45366139 0.3472524,0.392049358 0.492708777,0.386170563 C0.604895021,0.386317534 0.713362548,0.424441364 0.798687271,0.493714934 C0.906399387,0.576696 0.994749221,0.680112076 1.05810382,0.797369627 L1.05810382,0.892261718 C1.03917029,0.929097469 1.01191399,0.961500272 0.978283343,0.98715381 C1.05600287,1.01816384 1.14035579,1.03117319 1.22439648,1.02511065 Z" id="Path" fill="#21224A" fill-rule="nonzero"></path>
                                    <path d="M1.27761013,1.26550394 L1.27761013,0.999806089 L1.45827473,0.999806089 C1.49269672,1.01250981 1.53091323,1.01250981 1.56533523,0.999806089 C1.58057686,0.965406055 1.58057686,0.926661752 1.56533523,0.892261718 L1.56533523,0.53799791 L1.85306033,0.417801261 L1.85306033,0.904913997 C1.86009519,1.0052629 1.81819104,1.1031413 1.73930855,1.17061185 C1.67320628,1.2357315 1.58036636,1.27037899 1.48503985,1.26550394 L1.27761013,1.26550394 Z M1.70585214,1.68935529 C1.66851493,1.68919498 1.63263715,1.67562701 1.60548292,1.65139845 C1.55777387,1.60096888 1.55777387,1.52469612 1.60548292,1.47426655 C1.63263715,1.45003799 1.66851493,1.43647002 1.70585214,1.43630971 C1.73671873,1.4299754 1.76866349,1.4299754 1.79953008,1.43630971 C1.81255135,1.46674257 1.81255135,1.50076894 1.79953008,1.5312018 C1.79953008,1.67037687 1.79953008,1.71465984 1.73930855,1.71465984 L1.70585214,1.68935529 Z" id="Shape" fill="#21224A" fill-rule="nonzero"></path>
                                    <path d="M2.69442359,1.13898116 C2.700482,1.26988601 2.65547293,1.39830435 2.56804117,1.4995711 C2.49064386,1.5862769 2.37476995,1.63317157 2.25541097,1.62609389 C2.16475465,1.62583787 2.07559505,1.60409538 1.99599442,1.5628325 L1.99599442,1.3540699 C2.05782725,1.39090963 2.12923439,1.41062605 2.20219732,1.41100515 C2.26862723,1.41786266 2.33405732,1.39153559 2.37514169,1.34141762 C2.42103583,1.29083395 2.44272504,1.22436714 2.43500704,1.15795957 L2.43500704,0.525345631 L2.68112018,0.398822842 L2.69442359,1.13898116 Z" id="Path" fill="#21224A" fill-rule="nonzero"></path>
                                    <polygon id="Path" fill="#21224A" fill-rule="nonzero" points="3.06691915 1.26550394 3.06691915 0.158429544 3.3263357 0.0319067552 3.3263357 1.26550394"></polygon>
                                    <path d="M4.12094914,1.26550394 L3.99381479,1.26550394 C3.87819282,1.27130934 3.76734424,1.22129135 3.69939841,1.13265502 C3.63901772,1.05579213 3.60619554,0.962698903 3.60572047,0.86695716 C3.59286997,0.736330683 3.63629376,0.60632584 3.72616354,0.506367213 C3.79905041,0.442464974 3.8944204,0.406398708 3.99381479,0.405148982 C4.10011821,0.397526946 4.20408143,0.43731098 4.27484861,0.512693352 C4.33607804,0.578932825 4.36731914,0.665269652 4.36183527,0.753086651 L4.36183527,1.15795957 C4.36887099,1.28706489 4.32338204,1.41382125 4.23470092,1.51222338 C4.15434811,1.59499649 4.03883234,1.63914607 3.9202107,1.63242003 C3.83302186,1.63386046 3.74718413,1.61192706 3.67263329,1.56915864 L3.67263329,1.36039604 C3.73530405,1.40203686 3.81015629,1.42415173 3.88675429,1.42365743 C3.99391402,1.42785835 4.09039785,1.36270212 4.12094914,1.26550394 Z M4.12094914,0.791043487 C4.12094914,0.677172977 4.08080145,0.632890001 3.99381479,0.632890001 C3.95000612,0.633681055 3.90863111,0.652089143 3.88006301,0.683499117 C3.85419983,0.730405485 3.84044253,0.782431748 3.83991532,0.835326463 C3.83991532,0.968175391 3.89344557,1.03776293 3.99381479,1.03776293 C4.03618448,1.04526745 4.07956583,1.03079191 4.10756658,0.999806089 L4.12094914,0.791043487 Z" id="Shape" fill="#21224A" fill-rule="nonzero"></path>
                                    <path d="M6.82513326,1.02511065 L7.00472933,1.02511065 L7.00472933,1.26550394 L6.80517814,1.26550394 C6.71909358,1.27095642 6.63389509,1.24619773 6.56571671,1.19591641 C6.50255761,1.24593071 6.42155216,1.27085562 6.3395587,1.26550394 L5.06243107,1.26550394 L5.18881349,1.03143679 L5.46153345,1.03143679 L5.46153345,0.158429544 L5.71429829,0.0319067552 L5.71429829,0.632890001 C5.83600817,0.511367947 6.00350361,0.440821958 6.17991774,0.436779679 C6.32405462,0.429629186 6.46371669,0.485556061 6.55906501,0.588607025 C6.640348,0.677932001 6.6831173,0.793180573 6.67879572,0.911240136 L6.67879572,0.955523112 C6.68544743,0.98715381 6.73200937,1.02511065 6.82513326,1.02511065 Z M6.32625528,1.02511065 C6.35358198,1.03760683 6.38540077,1.03760683 6.41272747,1.02511065 C6.42593655,0.990363125 6.42593655,0.952313797 6.41272747,0.917566276 L6.41272747,0.879609439 C6.4114045,0.812244889 6.38554402,0.747404222 6.3395587,0.696151396 C6.2935975,0.653214323 6.23098285,0.630310483 6.16661433,0.632890001 C6.069695,0.637380852 5.97667234,0.67055698 5.90054607,0.727782093 C5.81320821,0.801812891 5.74299084,0.892289824 5.69434318,0.993479949 L5.69434318,1.0504152 L6.32625528,1.02511065 Z M6.18656945,0.221690938 C6.15665969,0.232963935 6.12335532,0.232963935 6.09344556,0.221690938 C6.05621213,0.189992848 6.04079699,0.141124008 6.05353532,0.0951681495 C6.05221652,0.0596072783 6.06670369,0.0251620342 6.09344556,0.000276057998 L6.18656945,0.000276057998 C6.24810987,-0.00378034125 6.30281815,0.0372964465 6.31295187,0.0951681495 L6.31295187,0.0951681495 C6.31295187,0.183734102 6.27304163,0.221690938 6.18656945,0.221690938 Z" id="Shape" fill="#21224A" fill-rule="nonzero"></path>
                                    <path d="M8.18873307,1.02511065 L8.38828426,1.02511065 L8.38828426,1.26550394 L8.2219916,1.26550394 C8.13870106,1.25891187 8.05746287,1.2374502 7.98253017,1.20224255 C7.9134444,1.17636875 7.85186646,1.13515703 7.8029341,1.0820459 C7.63236525,1.18562123 7.43320073,1.23848163 7.23088735,1.23387325 L6.91825715,1.23387325 L6.91825715,0.999806089 L7.21758394,0.999806089 C7.424769,1.01356343 7.62820985,0.942158824 7.77632728,0.803695766 C7.72158095,0.675365134 7.59552361,0.587284535 7.45039366,0.575954746 C7.31662667,0.591039178 7.19226848,0.649059156 7.09785322,0.740434372 L7.09785322,0.53167177 C7.19478038,0.428356832 7.33154411,0.3667448 7.47700049,0.360866006 C7.58918673,0.361012977 7.69765426,0.399136806 7.78297898,0.468410376 C7.8906911,0.551391442 7.97904093,0.654807518 8.04239553,0.772065069 L8.04239553,0.86695716 C8.01711956,0.899441911 7.98811658,0.929147144 7.95592335,0.955523112 C8.02638697,0.99645233 8.10631907,1.02034428 8.18873307,1.02511065 L8.18873307,1.02511065 Z" id="Path" fill="#21224A" fill-rule="nonzero"></path>
                                    <path d="M8.23529502,1.26550394 L8.23529502,0.999806089 L8.38828426,0.999806089 C8.43030819,1.01910237 8.47929446,1.01910237 8.52131839,0.999806089 C8.54095867,0.957492856 8.54095867,0.909270393 8.52131839,0.86695716 L8.52131839,0.158429544 L8.77408323,0.0319067552 L8.77408323,0.860631021 C8.78016661,0.971382087 8.73666669,1.07940589 8.65435252,1.15795957 C8.57858611,1.2289997 8.47449435,1.26583579 8.36832914,1.25917781 L8.23529502,1.26550394 Z" id="Path" fill="#21224A" fill-rule="nonzero"></path>
                                    <polygon id="Path" fill="#21224A" fill-rule="nonzero" points="9.13992709 1.26550394 9.13992709 0.158429544 9.39269193 0.0319067552 9.39269193 1.26550394"></polygon>
                                    <path d="M10.5766957,1.26550394 C10.4769408,1.27212498 10.3800784,1.23196945 10.3172791,1.15795957 C10.25661,1.08911957 10.2257013,1.00093194 10.2308069,0.911240136 L10.2308069,0.683499117 L10.4769201,0.563302468 L10.4769201,0.86695716 C10.463711,0.901704682 10.463711,0.939754009 10.4769201,0.974501531 C10.5134558,0.987064097 10.5534633,0.987064097 10.5899991,0.974501531 L11.2551697,0.974501531 C11.2901565,0.993712482 11.333262,0.993712482 11.3682487,0.974501531 C11.3816062,0.941957936 11.3816062,0.905826894 11.3682487,0.8732833 L11.3682487,0.519019492 L11.6210136,0.398822842 L11.6210136,0.885935579 C11.6281103,0.988148223 11.5866045,1.08799506 11.5079346,1.15795957 C11.4366664,1.21312682 11.3470341,1.24228967 11.2551697,1.24019939 L10.5766957,1.26550394 Z M10.9225844,1.68935529 C10.885468,1.68919498 10.8498024,1.67562701 10.8228088,1.65139845 C10.7753819,1.60096888 10.7753819,1.52469612 10.8228088,1.47426655 C10.8498024,1.45003799 10.885468,1.43647002 10.9225844,1.43630971 C10.9543512,1.43458449 10.9855336,1.44495597 11.0092462,1.46513401 C11.0329587,1.48531204 11.0472509,1.51363688 11.0489668,1.54385408 L11.0489668,1.54385408 C11.0489668,1.65139845 11.0090566,1.69568143 10.9225844,1.69568143 L10.9225844,1.68935529 Z" id="Shape" fill="#21224A" fill-rule="nonzero"></path>
                                    <path d="M12.7917139,0.158429544 L13.037827,0.0319067552 L13.037827,0.860631021 C13.0465155,0.970551666 13.0053624,1.07875899 12.924748,1.15795957 C12.8483429,1.22871003 12.7453441,1.26743741 12.6387246,1.26550394 L11.8804301,1.26550394 L12.0068125,1.03143679 L12.2728808,1.03143679 L12.2728808,0.398822842 L12.5189939,0.272300054 L12.5189939,1.01245837 L12.6387246,1.01245837 C12.6807486,1.03175465 12.7297348,1.03175465 12.7717588,1.01245837 C12.8049216,0.975893949 12.819515,0.927317193 12.811669,0.879609439 L12.7917139,0.158429544 Z" id="Path" fill="#21224A" fill-rule="nonzero"></path>
                                    <path d="M13.8523956,1.26550394 L13.7252612,1.26550394 C13.6096393,1.27130934 13.4987907,1.22129135 13.4308449,1.13265502 C13.3704642,1.05579213 13.337642,0.962698903 13.3371669,0.86695716 C13.3243164,0.736330683 13.3677402,0.60632584 13.45761,0.506367213 C13.533879,0.439478059 13.6346331,0.403190074 13.7386438,0.405148982 C13.8449472,0.397526946 13.9489104,0.43731098 14.0196776,0.512693352 C14.0809071,0.578932825 14.1121482,0.665269652 14.1066643,0.753086651 L14.1066643,1.15795957 C14.1173946,1.28752559 14.0714394,1.41558122 13.9795299,1.51222338 C13.8991771,1.59499649 13.7836614,1.63914607 13.6650397,1.63242003 C13.5778509,1.63386046 13.4920131,1.61192706 13.4174623,1.56915864 L13.4174623,1.36039604 C13.4801331,1.40203686 13.5549853,1.42415173 13.6315833,1.42365743 C13.7370921,1.43194075 13.8322674,1.36377287 13.8523956,1.26550394 L13.8523956,1.26550394 Z M13.8523956,0.791043487 C13.8523956,0.708803675 13.8523956,0.670846838 13.7386438,0.670846838 C13.6948351,0.671637892 13.6534601,0.69004598 13.624892,0.721455953 C13.5990288,0.768362322 13.5852715,0.820388585 13.5847443,0.8732833 C13.5847443,1.00613223 13.6382746,1.07571976 13.7386438,1.07571976 C13.7810135,1.08322429 13.8243948,1.06874874 13.8523956,1.03776293 L13.8523956,0.791043487 Z" id="Shape" fill="#21224A" fill-rule="nonzero"></path>
                                    <path d="M14.2816961,1.26550394 L14.4080785,1.03143679 L14.7207087,1.03143679 C14.7872258,1.03143679 14.8204843,1.03143679 14.8204843,0.923892415 C14.8365053,0.781340217 14.7637599,0.642970511 14.6342366,0.569628607 L14.7539673,0.367192145 C14.9610238,0.468488578 15.0917447,0.670817845 15.0932043,0.892261718 C15.0932043,1.12000274 14.9934287,1.23387325 14.7872258,1.23387325 L14.2816961,1.26550394 Z" id="Path" fill="#21224A" fill-rule="nonzero"></path>
                                    <path d="M16.2306461,1.13898116 C16.2367045,1.26988601 16.1916954,1.39830435 16.1042637,1.4995711 C16.0250749,1.58393224 15.9104581,1.63031814 15.7916335,1.62609389 C15.7054931,1.62379304 15.6211517,1.60211375 15.5455203,1.5628325 L15.5455203,1.3540699 C15.6068887,1.39188594 15.6786029,1.41168715 15.7517232,1.41100515 C15.8163126,1.41815036 15.8799181,1.39153371 15.9180159,1.34141762 C15.959183,1.28885823 15.9760015,1.22259197 15.9645778,1.15795957 L15.9645778,0.525345631 L16.2173427,0.398822842 L16.2306461,1.13898116 Z" id="Path" fill="#21224A" fill-rule="nonzero"></path>
                                    <path d="M16.4301973,1.26550394 L16.5565797,1.03143679 L16.8692099,1.03143679 C16.935727,1.03143679 16.9689855,1.03143679 16.9689855,0.923892415 C16.9811886,0.777158274 16.9000102,0.637690948 16.7627826,0.569628607 L16.8825133,0.367192145 C17.0895699,0.468488578 17.2202908,0.670817845 17.2217504,0.892261718 C17.2217504,1.12000274 17.1219748,1.23387325 16.9157719,1.23387325 L16.4301973,1.26550394 Z" id="Path" fill="#21224A" fill-rule="nonzero"></path>
                                    <polygon id="Path" fill="#21224A" fill-rule="nonzero" points="17.5410323 1.26550394 17.5410323 0.158429544 17.7937971 0.0319067552 17.7937971 1.26550394"></polygon>
                                </g>
                                <polygon id="Path" stroke="none" fill="#FFFFFF" fill-rule="nonzero" points="21.9197011 78.7912284 21.9197011 92.2866821 2.73868208 92.2866821 2.50647463 78.7912284 2.50647463 76.3387413 16.4150184 76.3387413 16.4150184 78.7912284"></polygon>
                                <polygon id="Path" stroke="none" fill="#FFFFFF" fill-rule="nonzero" points="2.73868208 92.2866821 0.734185347 92.2866821 0.734185347 78.7912284 2.50647463 78.7912284"></polygon>
                                <rect id="Rectangle" stroke="none" fill="#FFFFFF" fill-rule="nonzero" x="-3.03296549e-15" y="76.3387413" width="2.50647463" height="2.45248707"></rect>
                                <rect id="Rectangle" stroke="none" fill="#FFFFFF" fill-rule="nonzero" x="16.4150184" y="76.3387413" width="6.17057173" height="2.45248707"></rect>
                                <rect id="Rectangle" stroke="#0C0853" stroke-width="0.5" fill="none" x="8.10677215" y="78.7946158" width="13.812929" height="13.4920663"></rect>
                                <rect id="Rectangle" stroke="#0C0853" stroke-width="0.5" fill="none" x="0.734185347" y="78.7946158" width="7.37258681" height="13.4920663"></rect>
                                <rect id="Rectangle" stroke="#0C0853" stroke-width="0.5" fill="none" x="0.00341481557" y="76.3387413" width="7.56381648" height="2.45587449"></rect>
                                <rect id="Rectangle" stroke="#0C0853" stroke-width="0.5" fill="none" x="7.56381648" y="76.3387413" width="15.0183589" height="2.45587449"></rect>
                                <rect id="Rectangle" stroke="none" fill="#0C0853" fill-rule="nonzero" x="14.4378402" y="76.3387413" width="1.9737634" height="2.45587449"></rect>
                                <rect id="Rectangle" stroke="none" fill="#0C0853" fill-rule="nonzero" x="2.50647463" y="76.3387413" width="1.9737634" height="2.45587449"></rect>
                                <polygon id="Path" stroke="none" fill="#0C0853" fill-rule="nonzero" points="16.182811 92.2866821 14.2090476 92.2866821 14.4378402 78.7912284 16.4116036 78.7912284"></polygon>
                                <polygon id="Path" stroke="none" fill="#0C0853" fill-rule="nonzero" points="2.73526727 92.2866821 4.71244548 92.2866821 4.48365284 78.7912284 2.50647463 78.7912284"></polygon>
                                <path d="M11.9757582,76.3387413 C11.9757582,76.3387413 9.69124658,74.3469424 8.90242418,74.3638795 C8.2348542,74.3982724 7.57001285,74.4729335 6.91158671,74.5874487 C6.91158671,74.5874487 7.22233492,74.3638795 10.1761504,76.3387413 L11.9757582,76.3387413 Z" id="Path" stroke="#0C0853" stroke-width="0.5" fill="none"></path>
                                <path d="M9.18585387,74.4146907 C7.68333502,73.9675521 6.91500152,76.3387413 8.50289076,76.3387413 C8.50289076,76.3387413 7.94627582,76.3658406 7.09940156,76.3387413 C5.60712716,76.2879301 5.35101599,74.7331075 6.91841634,74.4926012 C7.6671607,74.3646625 8.42997987,74.3384516 9.18585387,74.4146907 L9.18585387,74.4146907 Z" id="Path" stroke="none" fill="#0C0853" fill-rule="nonzero"></path>
                                <path d="M11.9757582,76.3387413 C11.9757582,76.3387413 12.8567806,74.3062935 15.4247219,75.4952755 C15.4247219,75.4952755 13.9153734,75.4647887 13.4748622,76.3387413 L11.9757582,76.3387413 Z" id="Path" stroke="#0C0853" stroke-width="0.5" fill="none"></path>
                                <path d="M13.7002401,75.0481369 C14.5676032,75.0481369 15.4281367,75.3496167 16.4628258,75.9864503 C17.497515,76.623284 19.922034,76.3251917 19.922034,76.3251917 C19.112517,76.4446661 18.289256,76.2264011 17.6477668,75.7222321 C16.6574703,74.8957033 15.0593366,74.7873061 13.7002401,75.0481369 Z" id="Path" stroke="none" fill="#0C0853" fill-rule="nonzero"></path>
                                <path d="M18.8327078,76.3014798 C19.3335446,76.2916955 19.8105145,76.0873564 20.1610711,75.7323944 L21.9197011,75.7323944 C21.9197011,75.7323944 21.6874937,76.3793903 18.8327078,76.3014798 Z" id="Path" stroke="#0C0853" stroke-width="0.5" fill="none"></path>
                                <path d="M14.8851811,74.1843466 C14.5915069,74.1403102 13.9290327,74.6382599 13.7002401,75.0379747 C13.7002401,75.0379747 12.4470027,75.2446069 11.9928323,76.3285791 L11.443047,75.8780531 C11.443047,75.8780531 11.8562396,74.3537172 13.0616695,74.24532 C13.6669737,74.1778547 14.276671,74.157468 14.8851811,74.1843466 Z" id="Path" stroke="none" fill="#0C0853" fill-rule="nonzero"></path>
                                <path d="M14.1748994,74.3604921 C14.9329885,74.0962738 15.4383812,74.3604921 15.5408256,75.0176502" id="Path" stroke="#0C0853" stroke-width="0.5" fill="none"></path>
                                <polygon id="Path" stroke="none" fill="#FFFFFF" fill-rule="nonzero" points="101 69.0829025 101 72.7548583 100.009703 72.7548583 100.009703 92.933678 68.3270447 92.933678 68.3270447 72.7548583 67.2274741 72.7548583 67.2274741 69.0829025"></polygon>
                                <rect id="Rectangle" stroke="#0C0853" stroke-width="0.5" fill="none" x="79.3500693" y="72.7548583" width="20.6562194" height="20.1788198"></rect>
                                <rect id="Rectangle" stroke="#0C0853" stroke-width="0.5" fill="none" x="68.3236298" y="72.7548583" width="11.0264395" height="20.1788198"></rect>
                                <rect id="Rectangle" stroke="#0C0853" stroke-width="0.5" fill="none" x="67.2308889" y="69.0862899" width="11.3098692" height="3.67195579"></rect>
                                <rect id="Rectangle" stroke="#0C0853" stroke-width="0.5" fill="none" x="78.540758" y="69.0862899" width="22.4558272" height="3.67195579"></rect>
                                <rect id="Rectangle" stroke="none" fill="#0C0853" fill-rule="nonzero" x="88.8193529" y="69.0862899" width="2.95381546" height="3.67195579"></rect>
                                <rect id="Rectangle" stroke="none" fill="#0C0853" fill-rule="nonzero" x="70.9769415" y="69.0862899" width="2.95381546" height="3.67195579"></rect>
                                <polygon id="Path" stroke="none" fill="#0C0853" fill-rule="nonzero" points="91.428272 92.933678 88.4744565 92.933678 88.8193529 72.7548583 91.7697535 72.7548583"></polygon>
                                <polygon id="Path" stroke="none" fill="#0C0853" fill-rule="nonzero" points="71.3184231 92.933678 74.2722386 92.933678 73.930757 72.7548583 70.9769415 72.7548583"></polygon>
                                <path d="M85.1347669,69.103227 C85.1347669,69.103227 81.7199513,66.1223034 80.5452548,66.1460153 C79.5467448,66.1997439 78.5523847,66.3128609 77.5675356,66.4847566 C77.5675356,66.4847566 78.0319505,66.1460153 82.4507218,69.103227 L85.1347669,69.103227 Z" id="Path" stroke="#0C0853" stroke-width="0.5" fill="none"></path>
                                <path d="M80.9652771,66.2103762 C78.7149136,65.5328936 77.5504615,69.0862899 79.9408324,69.0862899 C79.9408324,69.0862899 79.1076174,69.1269388 77.8407208,69.0862899 C75.6108463,69.0117668 75.2283869,66.6812266 77.5709504,66.3221608 C78.6918859,66.130809 79.8340157,66.0931955 80.9652771,66.2103762 L80.9652771,66.2103762 Z" id="Path" stroke="none" fill="#0C0853" fill-rule="nonzero"></path>
                                <path d="M85.1347669,69.103227 C85.1347669,69.103227 86.4494709,66.0748797 90.2945532,67.8397219 C90.2945532,67.8397219 88.0373601,67.7956855 87.3783007,69.103227 L85.1347669,69.103227 Z" id="Path" stroke="#0C0853" stroke-width="0.5" fill="none"></path>
                                <path d="M87.7129526,67.1554644 C89.0139974,67.1385274 90.297968,67.6059904 91.8448795,68.5578534 C93.3917909,69.5097165 97.018325,69.103227 97.018325,69.103227 C95.8029198,69.2836174 94.5665106,68.9561453 93.6035095,68.1987877 C92.1351388,66.9285078 89.7481827,66.7659119 87.7129526,67.1554644 Z" id="Path" stroke="none" fill="#0C0853" fill-rule="nonzero"></path>
                                <path d="M95.389458,69.0287039 C96.1375651,69.0141639 96.850013,68.7088465 97.3734659,68.1784632 L100.006289,68.1784632 C100.006289,68.1784632 99.6340738,69.1438759 95.389458,69.0287039 Z" id="Path" stroke="#0C0853" stroke-width="0.5" fill="none"></path>
                                <path d="M89.4852419,65.8784097 C89.0447307,65.8140489 88.057849,66.5558923 87.7129526,67.1554644 C87.7129526,67.1554644 85.8416337,67.4671064 85.1347669,69.0862899 L84.3117963,68.4088073 C84.3117963,68.4088073 84.9298779,66.1324657 86.7363154,65.9698699 C87.6489083,65.8695594 88.5679242,65.8389827 89.4852419,65.8784097 L89.4852419,65.8784097 Z" id="Path" stroke="none" fill="#0C0853" fill-rule="nonzero"></path>
                                <path d="M88.4403083,66.1290783 C89.5740271,65.7293635 90.3321162,66.1290783 90.465294,67.1114281" id="Path" stroke="#0C0853" stroke-width="0.5" fill="none"></path>
                                <path d="M52.5301079,75.6917454 C51.51511,75.41534 50.5472244,74.9906502 49.658248,74.4316277 C48.7703959,73.7846318 47.4659364,72.5583883 47.6742401,72.3991799 C48.0441818,72.1070173 48.5299425,72.0018837 48.9889441,72.1146372 C49.4977516,72.3009449 50.6109815,72.842931 50.8875816,72.8124443 C51.2190213,72.8485903 51.542122,72.9390193 51.8437299,73.0800499 C51.8437299,73.0800499 51.8949522,73.3137814 52.0895966,73.3137814 C52.2842411,73.3137814 54.1692193,73.3137814 54.1965379,73.1579604 C54.2075127,73.0176549 54.2864491,72.8913598 54.4082564,72.8192191 C54.527775,72.7582457 54.712175,72.6803352 54.712175,72.6803352 C54.7255015,72.7269816 54.7647537,72.7618198 54.8129644,72.7697904 C54.861175,72.777761 54.9096958,72.7574343 54.9375528,72.7175967 C55.0878047,72.5753254 56.1054198,71.8063826 56.3444568,71.6403994 C56.5834939,71.4744161 57.2391385,71.0916384 57.2391385,71.0916384 C57.2391385,71.0916384 56.9386347,70.8816188 57.0683977,70.776609 C57.1981607,70.6715992 59.8241539,68.3681583 60.5719985,67.7042254 C61.3198431,67.0402924 62.7028434,65.7733999 63.9868141,64.7504011 C65.2707847,63.7274024 67.2172296,62.1793546 68.3543632,61.6814049 C69.4914968,61.1834552 69.7202894,60.9226244 71.4276972,61.0750579 C73.135105,61.2274915 73.3741421,61.6746301 75.4503499,62.2437155 C77.0177503,62.6739169 78.8856544,63.0736317 78.8856544,63.0736317 C78.8856544,63.0736317 78.96761,61.5933321 78.486121,60.6414691 C78.004632,59.689606 77.2772763,58.6090212 77.1201947,57.3421287 C76.9631132,56.0752362 77.0553133,55.0793368 76.6045576,54.2765199 C76.1538019,53.473703 75.2864388,51.9459797 75.190824,51.6817615 C75.0952091,51.4175432 75.7986611,50.9060439 75.7986611,50.9060439 C75.7986611,50.9060439 74.9756906,48.4298449 74.9347128,47.8234979 C74.9153783,46.4666665 74.9689531,45.1097771 75.0952091,43.7586022 C75.2249721,42.3325013 75.6245055,38.1693707 75.6245055,38.1693707 L75.7337796,37.5833482 C75.7337796,37.5833482 75.3513203,37.3970405 75.2727795,37.2446069 C75.1942388,37.0921733 74.893735,36.7873061 74.7844609,36.6043858 C74.6751868,36.4214655 74.1390608,35.7304332 74.5659127,35.4797647 C74.9927646,35.2290961 75.4605944,35.056338 75.467424,34.802282 C75.3826726,34.3123079 75.262851,33.8289433 75.1088684,33.3558567 C75.0132535,32.9866286 74.9722758,32.7291852 75.0747202,32.678374 C75.1771647,32.6275628 75.1942388,32.5869139 75.3479055,32.8850062 C75.5015722,33.1830986 75.781587,34.1485113 75.9181797,34.3483687 C76.0547723,34.5482261 76.0513575,34.5617757 76.0445278,34.3483687 C76.0376982,34.1349617 76.1128242,33.2508469 76.1059945,33.1322874 C76.0991649,33.0137279 76.0752612,32.6749866 76.2664909,32.6546622 C76.4577205,32.6343377 76.4543057,32.6953111 76.4816242,33.0442147 C76.4669568,33.6322879 76.4909112,34.2206845 76.5533354,34.8056695 C76.6557798,35.1850597 76.689928,35.9573899 76.8470095,36.2927438 C76.9932953,36.7721432 77.0294673,37.2779598 76.9528688,37.7730433 C76.9050614,38.3421287 76.9699429,39.5243359 76.9187206,40.0595472 C76.8674984,40.5947584 76.8026169,44.7375646 76.8026169,45.3201997 C76.7946912,46.1521537 76.8403149,46.983761 76.9392095,47.8099483 C77.0800913,48.5921007 77.2740384,49.3639272 77.5197282,50.120164 C77.5197282,50.120164 77.8407208,50.0422535 78.1104913,50.4826172 C78.3802617,50.9229809 78.0251209,49.9609556 77.967069,49.6289891 C77.8638979,49.0534016 77.8204168,48.4688467 77.837306,47.8844714 C77.9634125,47.5947906 77.9634125,47.2663255 77.837306,46.9766447 C77.6172298,46.2391257 77.6779932,45.4471024 78.0080468,44.7511143 C78.434196,43.9237173 79.281178,43.3925955 80.2174325,43.3656623 C81.2487127,43.2620435 82.2795445,43.5663768 83.0858775,44.2125156 C84.0044629,44.9238723 84.5201001,45.8825103 84.6532779,47.2611874 C84.7864557,48.6398645 84.8445076,49.4223569 84.1444704,50.7129613 C84.1444704,50.7129613 84.946952,50.7129613 85.168915,51.0313781 C85.606997,51.4833916 85.9321378,52.0309992 86.1182338,52.6302371 C86.4119079,53.5990373 86.8011969,54.7981815 86.8011969,54.7981815 C86.8414705,54.9554223 86.8169114,55.1221014 86.7329546,55.2613302 C86.6489979,55.400559 86.512567,55.5008563 86.353856,55.540025 C86.353856,55.540025 86.4528857,58.0500981 86.353856,59.0290604 C86.2548264,60.0080228 86.3982486,60.2417543 86.575819,61.0005349 C86.8407529,61.921716 87.0112204,62.8670849 87.0846266,63.82225 C87.1256044,64.9333214 87.0846266,65.6141915 87.0846266,66.06133 C87.0641377,66.8201105 87.0470636,67.8261722 87.7197823,67.9819932 C88.3925009,68.1378142 88.9559455,68.0395792 89.3657234,68.185238 C89.7755012,68.3308968 89.7276938,68.1242646 90.076005,68.5510786 C90.4243162,68.9778927 90.8819015,68.9948297 90.4926125,69.0456409 C90.1033235,69.0964521 86.6338709,69.0998395 86.4972783,68.9745053 C86.3606857,68.849171 85.9509078,68.6899626 85.9338337,67.2266001 C85.6601821,67.5712596 85.3671824,67.9003596 85.0562261,68.2123373 C84.5337175,68.6990157 83.8587155,68.993155 83.1439294,69.0456409 C81.0164109,69.1661968 78.8831817,69.1469595 76.7582243,68.9880549 C76.2699057,68.8762703 73.3878013,68.9304689 72.8106975,69.1371011 C72.2335937,69.3437333 71.9945566,70.1973614 71.7862528,70.759672 C71.5779491,71.3219825 70.987186,74.3469424 70.8984008,76.9654127 C70.8096156,79.583883 71.2398823,80.9591728 70.3895933,81.5011589 C69.5393042,82.0431449 68.6070595,82.4936709 66.4386517,81.6671421 C65.2124768,81.2354576 64.1429275,80.4527 63.3653176,79.4178998 C63.3653176,79.4178998 62.6106434,80.772865 62.5286878,80.9523979 C62.4467323,81.1319308 62.2418433,81.3927616 62.5286878,81.4503477 C62.8155323,81.5079337 63.2116509,82.4191478 63.228725,82.9103227 C63.2457991,83.4014976 63.228725,84.1399536 63.0135916,84.2483509 C62.4846627,84.4520889 61.9351091,84.5985962 61.3744802,84.6853272 C61.1081246,84.6853272 61.0056801,84.8275985 60.951043,84.634516 C60.8540484,84.4007185 60.7399157,84.1742848 60.6095615,83.9570333 C60.1163968,84.3271448 59.5599817,84.6059887 58.9670352,84.7801747 C58.1338202,84.9834195 56.508368,85.274737 56.0200494,85.1798895 C55.5317307,85.0850419 54.7770565,84.7733999 54.7941306,84.5024068 C54.8112047,84.2314138 54.7770565,84.5396684 55.5214863,84.1026921 C56.2659161,83.6657158 57.249383,82.9848458 57.4098793,82.9001605 C57.584205,82.8001509 57.7941391,82.7815572 57.9835683,82.8493493 C58.2226054,82.9238723 58.1645535,82.9475842 58.4377388,82.724015 C58.710924,82.5004457 60.192954,81.4977714 60.3158873,81.3893742 C60.4388207,81.280977 60.4968726,81.1420931 60.4046725,81.1116063 C60.3124725,81.0811196 60.2919836,80.9219112 60.6539541,80.8033518 C61.0159245,80.6847923 61.1798357,80.7220538 61.2447172,80.5357461 C61.3095987,80.3494384 61.6954728,78.5371724 61.7023025,78.5032983 C61.4053942,78.3859122 61.1516496,78.1814729 60.9749467,77.9172758 C60.6163911,77.4125513 60.5378504,76.6707078 60.4627244,75.884828 C60.3875985,75.0989481 60.2373466,73.6288108 58.6972648,72.7785702 C58.6972648,72.7785702 56.8396051,73.6423605 56.7200866,73.7676948 C56.600568,73.8930291 56.6176421,74.0014263 56.6995977,74.031913 C56.7815532,74.0623997 56.7166717,74.2487074 56.6313013,74.540025 C56.5779506,74.9794475 56.5653768,75.4228006 56.5937384,75.8645035 C56.5937384,76.2608308 56.3137235,77.4294883 56.1532272,77.5040114 C55.9927308,77.5785345 55.6239308,77.2838296 55.2380566,77.1855946 C54.8521824,77.0873596 54.06336,76.7587805 54.0155526,76.6198966 C53.9677452,76.4810127 54.1282415,76.0846853 53.8072489,76.0101622 C53.4862562,75.9356392 52.5301079,75.6917454 52.5301079,75.6917454 Z" id="Path" stroke="none" fill="#FFFFFF" fill-rule="nonzero"></path>
                                <path d="M64.1199919,78.1577821 C64.5161105,78.2594045 63.9629104,78.43555 65.9195997,78.222143 C67.876289,78.008736 69.1124522,78.3407024 69.6758968,78.6387948 C70.2393414,78.9368871 70.7959563,79.2857907 70.8232748,79.7972901 C70.8505934,80.3087894 71.116949,81.4638973 69.3617338,81.9652344 C67.6065186,82.4665716 65.803496,81.5011589 64.8097846,80.6915671 C63.8160733,79.8819754 63.3311695,79.3908005 63.3311695,79.3908005 L64.1199919,78.1577821 Z" id="Path" stroke="none" fill="#0C0853" fill-rule="nonzero"></path>
                                <path d="M58.5675018,72.7548583 C58.5675018,72.7548583 59.9880651,71.9384917 60.1075836,72.1010875 C60.5328342,72.7122981 60.848237,73.3919062 61.0398282,74.1098235 C61.2605035,75.048276 61.6516201,75.9390185 62.1940359,76.7384561 L61.6715691,78.4795864 C61.2222774,78.3167237 60.8759329,77.9543502 60.7359097,77.500624 C60.5695058,76.8752948 60.4552928,76.2374351 60.3944281,75.5935104 C60.3944281,75.2547691 60.0529465,73.7405955 59.4826723,73.310394 C59.2041825,73.0852409 58.8963506,72.8983778 58.5675018,72.7548583 L58.5675018,72.7548583 Z" id="Path" stroke="none" fill="#0C0853" fill-rule="nonzero"></path>
                                <path d="M86.2275079,54.5373507 C86.2275079,54.5373507 86.5689894,57.8841148 86.3675153,59.2594045 C86.1660412,60.6346942 86.9002265,61.0818328 87.0504784,63.6223926 C87.2007303,66.1629524 86.9412043,67.7719736 87.6344119,67.9040827 C88.3276194,68.0361918 89.6833012,67.9582813 90.0247828,68.4088073 C90.3662643,68.8593332 90.9297089,68.9880549 90.5301755,69.0151542 C90.1306421,69.0422535 87.0129154,69.0151542 86.7738784,69.0151542 C86.5348413,69.0151542 86.3504412,69.0422535 86.0909152,68.3376716 C85.8313893,67.6330897 85.9577374,66.8573721 85.7733374,66.0376181 C85.5889373,65.2178641 84.5747371,61.6746301 84.5201001,60.722767 C84.465463,59.7709039 84.281063,56.2818684 83.6937147,54.6423605" id="Path" stroke="#0C0853" stroke-width="0.5" fill="none"></path>
                                <path d="M86.2548264,55.4519522 C86.2548264,55.4519522 87.0709673,55.4045284 86.8148561,54.9472277 C86.558745,54.4899269 86.0601819,54.4696024 85.4011225,54.4729898 C84.8471071,54.4718774 84.2959517,54.5517757 83.7654258,54.7101088 C83.5263887,54.7812444 82.7409812,55.1640221 82.8263516,55.4519522 C82.9117219,55.7398823 82.9936775,55.9295775 83.9976333,55.8448921" id="Path" stroke="#0C0853" stroke-width="0.5" fill="none"></path>
                                <path d="M86.8558339,55.0556249 C86.8558339,55.0556249 86.1933597,52.4710287 85.9270041,52.030665 C85.6606485,51.5903013 85.1962336,50.5503655 84.113737,50.726511" id="Path" stroke="#0C0853" stroke-width="0.5" fill="none"></path>
                                <path d="M82.8126923,55.4519522 C82.8126923,55.4519522 82.9253812,54.0224639 82.9253812,53.0536638" id="Path" stroke="#0C0853" stroke-width="0.5" fill="none"></path>
                                <path d="M78.7832099,44.6427171 C78.7832099,44.6427171 79.1554248,45.5268319 79.9203435,45.7199144 C80.6852622,45.912997 81.5355513,45.8960599 81.6072624,46.3194865 C81.6789735,46.7429132 81.6072624,47.0952041 81.8223958,47.3052237 C82.0375292,47.5152434 81.7677587,48.1690141 81.8223958,48.2232127 C81.8770328,48.2774113 82.4234033,47.2544126 82.8263516,47.3052237 C83.2292998,47.3560349 83.3488183,47.8709217 83.0278257,48.3214477 C82.706833,48.7719736 82.6863441,49.2394366 82.003381,48.9989303" id="Path" stroke="#0C0853" stroke-width="0.5" fill="none"></path>
                                <path d="M82.225344,49.070066 C81.9062819,49.396846 81.6719222,49.7955476 81.5423809,50.2319487 C81.3443216,50.9365306 81.0643067,51.2481726 80.9823512,52.5049028 C80.9003956,53.7616331 79.9954695,53.9174541 79.5686175,54.8320556 C79.1417656,55.7466572 79.1417656,57.8807274 79.9783954,58.3244785 C80.8150252,58.7682296 80.4393955,58.852915 80.3847584,57.565698 C80.3301214,56.278481 80.688677,55.6789089 81.6106772,54.6050989 C82.5326774,53.531289 83.5127295,52.4710287 83.7449369,51.6241754 C83.9771444,50.7773222 84.7215742,49.7543234 84.7215742,48.2943484 C84.7215742,46.8343733 84.3800926,44.0804065 81.3818846,43.4435728 C78.3836765,42.8067392 77.8816986,44.8561241 77.7553504,45.3303619 C77.5949064,46.0273764 77.6668032,46.7572163 77.9602394,47.4102336" id="Path" stroke="#0C0853" stroke-width="0.5" fill="none"></path>
                                <path d="M78.8788248,45.0322696 C78.5815705,45.3647887 78.3499022,45.7497192 78.1958616,46.167053 C78.0900024,46.5837048 78.1685431,47.1290783 77.9363357,47.4745944 C77.7041282,47.8201105 77.8646245,49.2360492 78.0080468,49.7644856 C78.151469,50.2929221 78.3017209,50.6994117 78.6466173,50.7163487 C79.2090587,50.7587062 79.7743747,50.6896163 80.3096325,50.5131039" id="Path" stroke="#0C0853" stroke-width="0.5" fill="none"></path>
                                <path d="M79.633499,50.6790872 C79.8605105,51.1857243 80.0189663,51.719923 80.1047436,52.2677839 C80.169625,52.9452665 79.8657065,53.3517561 79.8691213,53.6972722 C79.8725361,54.0427884 79.7700916,55.0962738 79.5003212,54.1173115 C79.2305508,53.1383491 79.6881361,52.2677839 79.3671434,51.7664468 C79.0461507,51.2651096 78.7832099,50.7061865 78.7832099,50.7061865" id="Path" stroke="#0C0853" stroke-width="0.5" fill="none"></path>
                                <path d="M78.8719951,63.0634694 C78.8700911,61.7472472 78.5000897,60.4573573 77.8031579,59.337315 C77.1662521,58.2980783 76.8692304,57.0887601 76.9528688,55.8753789 C77.0245799,54.56445 76.4884539,54.2968444 76.2050242,53.6261366 C75.9215945,52.9554288 75.2283869,51.93243 75.1805795,51.5936887 C75.1327721,51.2549474 76.727491,50.218399 77.3865504,50.1100018 C78.0456098,50.0016046 78.2197654,50.6384382 78.3631876,50.8145837 C78.6464898,51.0906809 78.9451865,51.3507914 79.2578693,51.5936887" id="Path" stroke="#0C0853" stroke-width="0.5" fill="none"></path>
                                <path d="M82.8809886,64.052594 C82.6043885,63.9272598 79.6164249,63.3107506 76.6318761,62.5722945 C73.6473273,61.8338385 71.2842749,60.3670886 69.0783041,61.3189517 C66.8723332,62.2708148 64.191703,64.5471564 62.5047841,65.9901943 C60.8178652,67.4332323 57.8128275,70.2041362 57.2630422,70.6106258 C56.7132569,71.0171154 56.9215607,71.1018007 56.9215607,71.1018007 C56.9215607,71.1018007 57.6215979,70.3972188 59.0250871,71.1898734 C60.4285763,71.9825281 60.7324948,73.1308611 61.415458,75.1734712 C62.0984211,77.2160813 63.4643473,78.5066857 65.6088515,78.2763416 C67.7533556,78.0459975 71.1374379,78.2966661 70.9052304,80.3765377 C70.673023,82.4564093 67.654326,82.3683366 65.9469182,81.4164735 C64.96992,80.8853123 64.0874156,80.1987063 63.3345843,79.3840257" id="Path" stroke="#0C0853" stroke-width="0.5" fill="none"></path>
                                <path d="M64.06194,78.1577821 C64.06194,78.1577821 62.3237989,81.1522553 62.3237989,81.2979141 L62.3237989,81.4300232" id="Path" stroke="#0C0853" stroke-width="0.5" fill="none"></path>
                                <path d="M60.9578727,80.6915671 C60.9578727,80.6915671 61.2242283,81.592619 62.5389323,81.4164735 C62.5389323,81.4164735 63.3482436,82.4902835 63.1843324,83.4252095 C63.0204213,84.3601355 63.1092065,84.2348012 62.3101396,84.4414334 C61.861955,84.5625136 61.4054216,84.6508232 60.9442134,84.7056516 L60.5549244,83.929934 C59.8493593,84.4209817 59.0516105,84.7665482 58.2089461,84.946158 C56.9659533,85.159565 55.7571086,85.3695846 55.0912195,84.8784097 C54.4253305,84.3872348 54.7258343,84.5396684 55.8629678,83.8621858 C57.0001014,83.1847032 57.266457,82.7511143 57.693309,82.8459618 C58.1201609,82.9408094 59.7626872,83.4827955 60.9612875,83.3032626 L61.4769246,81.7348904 C61.1328621,81.5835821 60.8006974,81.4069433 60.4832133,81.2064539 C59.933428,80.8338385 60.9578727,80.6915671 60.9578727,80.6915671 Z" id="Path" stroke="#0C0853" stroke-width="0.5" fill="none"></path>
                                <path d="M58.1235758,82.9306472 C58.1235758,82.9306472 60.0700206,81.5756819 60.45248,81.1996791" id="Path" stroke="#0C0853" stroke-width="0.5" fill="none"></path>
                                <path d="M61.0500727,80.8778748 C61.2898907,80.3347507 61.4674364,79.7666187 61.5793691,79.1841683 C61.8286506,78.0392227 62.1803766,76.7655554 62.1803766,76.7655554" id="Path" stroke="#0C0853" stroke-width="0.5" fill="none"></path>
                                <path d="M61.7398654,78.4795864 C61.199213,78.2888138 60.7829906,77.8532733 60.6198059,77.3075415 C60.2783244,76.3387413 60.6198059,73.6592976 58.451398,72.7074345" id="Path" stroke="#0C0853" stroke-width="0.5" fill="none"></path>
                                <path d="M60.0427021,72.0333393 C60.0427021,72.0333393 57.3518274,73.2697451 56.5527606,73.9404528" id="Path" stroke="#0C0853" stroke-width="0.5" fill="none"></path>
                                <path d="M54.674612,72.7074345 C55.096725,73.4660147 55.8851659,73.9532333 56.7576495,73.9946515 L56.5527606,74.6450348 C56.5527606,74.6450348 56.730331,76.2167944 56.5527606,76.5148868 C56.3950696,76.8323324 56.2637332,77.1620037 56.1600568,77.500624 C56.1600568,77.500624 54.1111675,76.8231414 53.9745748,76.6029595 C53.9069076,76.4203671 53.9069076,76.219854 53.9745748,76.0372615 C53.9745748,76.0372615 51.1505224,75.4207524 50.3138926,74.9465145 C49.3386638,74.3292341 48.4587446,73.575039 47.7015586,72.7074345 C47.2747067,72.1417365 48.8216181,71.8978428 49.4089664,72.2501337 C49.9963147,72.6024247 51.8437299,73.0766625 51.8437299,73.0766625 C51.8437299,73.0766625 51.9325151,74.2724193 52.8920783,74.7229453 C53.5995219,75.0711788 54.2838722,75.4637854 54.9409676,75.8983776 L55.2619603,74.0657871 L54.2375156,72.9885898 L54.674612,72.7074345 Z" id="Path" stroke="#0C0853" stroke-width="0.5" fill="none"></path>
                                <path d="M51.8778781,73.3002318 C51.8778781,73.3002318 53.9267674,73.3815297 54.3263008,73.0935996" id="Path" stroke="#0C0853" stroke-width="0.5" fill="none"></path>
                                <path d="M54.7292491,72.8090569 C54.7292491,72.8090569 56.9283903,70.9188804 57.8333164,70.817258" id="Path" stroke="#0C0853" stroke-width="0.5" fill="none"></path>
                                <path d="M70.8915712,80.3765377 C70.8915712,80.3765377 70.8130304,77.8901765 70.8915712,76.0914602 C70.9701119,74.2927438 71.745275,69.6553753 72.5989789,69.1912997 C73.4526828,68.7272241 76.0376982,69.0016046 79.449099,69.0185416 C82.8604997,69.0354787 84.4074112,69.5605277 85.8860263,67.0741665" id="Path" stroke="#0C0853" stroke-width="0.5" fill="none"></path>
                                <path d="M75.6620685,50.7231236 C75.6620685,50.7231236 74.7844609,48.1182029 74.8117794,47.0579426 C74.8390979,45.9976823 75.6620685,37.6002853 75.6620685,37.6002853 C75.3384564,37.456161 75.1253433,37.1423393 75.1122832,36.7906935" id="Path" stroke="#0C0853" stroke-width="0.5" fill="none"></path>
                                <path d="M77.5026541,49.9677304 C77.0076085,48.5299984 76.7639247,47.01891 76.782128,45.4997326 C76.8094465,42.9591728 76.9699429,37.5935104 76.9699429,37.5935104 C77.0587224,37.1294051 77.0281874,36.6505913 76.8811577,36.2012837 C76.6889477,35.558721 76.5743183,34.8957947 76.5396761,34.2264218 C76.5396761,34.0502763 76.5943131,32.620788 76.3655205,32.6343377 C76.1367279,32.6478873 76.0718464,32.6749866 76.0240389,33.0848636 C75.9762315,33.4947406 76.0240389,34.5651631 76.0240389,34.5651631 C75.8712942,34.31943 75.7453738,34.0582547 75.6484092,33.7860581 C75.5562092,33.4473168 75.3581499,32.6072384 75.1566758,32.6343377 C74.9552017,32.661437 74.8151942,32.6885363 74.9688609,33.1492245 C75.1225276,33.6099126 75.4366907,34.8700303 75.4366907,34.8700303 C75.3223084,34.9867209 75.1867602,35.0809582 75.0371573,35.1477982 C74.8220239,35.2257087 74.5829868,35.2934569 74.6956757,35.5847745 L74.8049498,35.8727046" id="Path" stroke="#0C0853" stroke-width="0.5" fill="none" stroke-linejoin="round"></path>
                                <path d="M74.6854312,35.3950793 C74.6854312,35.3950793 74.2517497,35.5712248 74.3439497,35.7676948 C74.4361497,35.9641647 74.7161646,36.7195579 74.9688609,36.7839187 C75.0942687,36.8301778 75.2353055,36.7854081 75.3103425,36.6755215" id="Path" stroke="#0C0853" stroke-width="0.5" fill="none"></path>
                                <path d="M76.3689353,35.7270458 C76.2494168,35.662685 75.6859722,35.4120164 75.4640092,35.5170262 C75.2420462,35.622036 75.1839943,35.7168836 74.9961795,35.7947941 C74.8083646,35.8727046 74.6786016,36.1911214 74.9961795,36.24532 C75.2442062,36.248441 75.4914169,36.2165045 75.7303648,36.1504725 C75.8225648,36.1504725 75.4093721,36.6992334 76.0240389,37.1328222" id="Path" stroke="#0C0853" stroke-width="0.5" fill="none"></path>
                                <path d="M75.0917943,36.24532 C75.0917943,36.24532 75.1839943,36.712783 75.5152314,36.6484222" id="Path" stroke="#0C0853" stroke-width="0.5" fill="none"></path>
                                <path d="M78.8890692,49.398645 C79.2928926,49.4319828 79.6900495,49.2811272 79.9681509,48.9887681" id="Path" stroke="#0C0853" stroke-width="0.5" fill="none" stroke-linecap="round"></path>
                                <path d="M79.2510397,47.0071314 C79.1394906,47.2997922 78.9550494,47.5596669 78.7149136,47.7625245 C78.3426987,48.0673917 78.2880617,48.0809413 78.4212395,48.290961 C78.5721762,48.4886834 78.7907945,48.6248258 79.0359063,48.6737386" id="Path" stroke="#0C0853" stroke-width="0.5" fill="none" stroke-linecap="round"></path>
                                <path d="M80.0808398,47.0071314 C80.1609453,46.9533521 80.2540795,46.9217769 80.3506103,46.9156712 C80.4466385,46.9094585 80.5429582,46.9221213 80.63404,46.9529328 C80.7251589,46.9827008 80.8089337,47.0311773 80.8799067,47.0952041 C80.9516386,47.1552061 81.0088286,47.2304616 81.0472326,47.315386 C80.8950515,47.2394173 80.7388854,47.1715723 80.5794029,47.1121412 C80.4180229,47.0575714 80.2506496,47.0223184 80.0808398,47.0071314 Z" id="Path" stroke="none" fill="#0C0853" fill-rule="nonzero"></path>
                                <path d="M78.8890692,46.8614726 C78.8185889,46.9330395 78.7366673,46.9925569 78.6466173,47.0376181 C78.6061637,47.0602165 78.5639052,47.0794768 78.5202691,47.0952041 C78.4716051,47.116931 78.4213833,47.1350469 78.3700172,47.1494027 C78.3893311,47.0366752 78.4616147,46.9398126 78.5646617,46.8885719 C78.6638859,46.8338395 78.7820152,46.8239716 78.8890692,46.8614726 L78.8890692,46.8614726 Z" id="Path" stroke="none" fill="#0C0853" fill-rule="nonzero"></path>
                                <path d="M80.2345065,46.2009271 C80.2345065,46.2009271 81.1462623,46.4448208 81.2794401,46.9732573" id="Path" stroke="#0C0853" stroke-width="0.5" fill="none" stroke-linecap="round"></path>
                                <path d="M78.9949285,46.1738278 C78.9949285,46.1738278 78.226595,46.536281 78.0934172,46.8513104" id="Path" stroke="#0C0853" stroke-width="0.5" fill="none" stroke-linecap="round"></path>
                                <path d="M86.2275079,54.5949367 L86.2479968,55.4519522 C86.2479968,55.4519522 86.9070562,55.2825816 86.8592487,55.1132109 C86.7305676,54.8607591 86.5016294,54.6729404 86.2275079,54.5949367 L86.2275079,54.5949367 Z" id="Path" stroke="none" fill="#0C0853" fill-rule="nonzero"></path>
                                <path d="M83.9976333,55.8448921 C83.9976333,55.8448921 83.0653886,56.1328222 82.8536701,55.5637369 C82.6419515,54.9946515 83.7312777,54.777857 83.7312777,54.777857 L83.9976333,55.8448921 Z" id="Path" stroke="none" fill="#0C0853" fill-rule="nonzero"></path>
                                <path d="M74.8083646,67.0707791 C73.8351422,66.5220182 72.9268012,65.847923 71.8955269,65.438046 C71.3914332,65.2220478 70.8408379,65.134706 70.2939784,65.18399 C69.7500545,65.2617263 69.2415048,65.4974594 68.8324374,65.8614726 C68.0118562,66.6083476 67.2911509,67.4564636 66.6879332,68.3850954 C66.0596071,69.3030843 65.4790885,70.2549474 64.9019847,71.2101979 C65.4381107,70.2312355 65.9742367,69.2556605 66.5923184,68.3241219 C67.1791297,67.3673857 67.8987434,66.4973231 68.7299929,65.7395258 C69.1577532,65.3494786 69.6971121,65.1009023 70.2734895,65.028169 C70.8474439,64.9775815 71.4248626,65.0744067 71.950164,65.3093243 C72.9985124,65.7530754 73.87612,66.4644322 74.8083646,67.0707791 Z" id="Path" stroke="none" fill="#0C0853" fill-rule="nonzero"></path>
                                <polygon id="Path" stroke="none" fill="#0C0853" fill-rule="nonzero" points="92.6815093 92.3916919 80.7159955 92.3916919 75.9694019 80.2952398 87.9383305 80.2952398"></polygon>
                                <polygon id="Path" stroke="none" fill="#060831" fill-rule="nonzero" points="88.6042195 95 76.6352909 95 80.7159955 92.3916919 92.6815093 92.3916919"></polygon>
                                <polygon id="Path" stroke="none" fill="#060831" fill-rule="nonzero" points="75.9694019 80.2952398 75.9694019 82.4936709 74.6922609 81.396149 76.6352909 95 80.7159955 92.3916919"></polygon>
                                <path d="M80.7159955,80.9320735 C80.7159955,80.9320735 81.3989587,80.969335 82.0204551,82.5546443 C82.6419515,84.1399536 83.6732258,85.0579426 84.8035298,84.4583705 C85.9338337,83.8587984 85.3157521,81.0032091 84.3254556,80.7322161" id="Path" stroke="#F9EA18" stroke-width="0.5" fill="none" stroke-linecap="round"></path>
                                <polygon id="Path" stroke="none" fill="#0C0853" fill-rule="nonzero" points="74.6922609 81.396149 75.9694019 81.396149 75.9694019 82.4936709"></polygon>
                            </g>
                        </g>
                    </g>
                </g>
            </g>
        </g>
    </g>
</svg>